Signika-Bold.ufo
<glyph name="exclam" format="2">
  <advance width="616"/>
  <unicode hex="0021"/>
  <outline>
    <contour>
      <point x="181" y="418" type="curve"/>
      <point x="221" y="406"/>
      <point x="272" y="404"/>
      <point x="300" y="404" type="curve" smooth="yes"/>
      <point x="331" y="404"/>
      <point x="375" y="406"/>
      <point x="416" y="418" type="curve"/>
      <point x="436" y="675"/>
      <point x="474" y="930"/>
      <point x="474" y="1187" type="curve" smooth="yes"/>
      <point x="474" y="1364" type="line"/>
      <point x="388" y="1389"/>
      <point x="212" y="1389"/>
      <point x="126" y="1364" type="curve"/>
      <point x="126" y="1191" type="line" smooth="yes"/>
      <point x="126" y="930"/>
      <point x="158" y="675"/>
    </contour>
    <contour>
      <point x="300" y="278" type="curve" smooth="yes"/>
      <point x="246" y="278"/>
      <point x="189" y="266"/>
      <point x="151" y="245" type="curve"/>
      <point x="137" y="220"/>
      <point x="130" y="163"/>
      <point x="130" y="126" type="curve" smooth="yes"/>
      <point x="130" y="90"/>
      <point x="137" y="35"/>
      <point x="151" y="10" type="curve"/>
      <point x="189" y="-12"/>
      <point x="246" y="-23"/>
      <point x="300" y="-23" type="curve" smooth="yes"/>
      <point x="354" y="-23"/>
      <point x="410" y="-12"/>
      <point x="447" y="10" type="curve"/>
      <point x="462" y="35"/>
      <point x="470" y="90"/>
      <point x="470" y="126" type="curve" smooth="yes"/>
      <point x="470" y="163"/>
      <point x="462" y="220"/>
      <point x="447" y="245" type="curve"/>
      <point x="410" y="266"/>
      <point x="354" y="278"/>
    </contour>
  </outline>
</glyph>
<glyph name="numbersign" format="2">
  <advance width="1435"/>
  <unicode hex="0023"/>
  <outline>
    <contour>
      <point x="190" y="24" type="curve"/>
      <point x="477" y="1302" type="line"/>
      <point x="510" y="1318"/>
      <point x="563" y="1325"/>
      <point x="614" y="1325" type="curve" smooth="yes"/>
      <point x="667" y="1325"/>
      <point x="718" y="1318"/>
      <point x="748" y="1302" type="curve"/>
      <point x="461" y="24" type="line"/>
      <point x="428" y="9"/>
      <point x="375" y="1"/>
      <point x="324" y="1" type="curve" smooth="yes"/>
      <point x="272" y="1"/>
      <point x="220" y="9"/>
    </contour>
    <contour>
      <point x="699" y="24" type="curve"/>
      <point x="986" y="1302" type="line"/>
      <point x="1020" y="1318"/>
      <point x="1073" y="1325"/>
      <point x="1124" y="1325" type="curve" smooth="yes"/>
      <point x="1177" y="1325"/>
      <point x="1227" y="1318"/>
      <point x="1258" y="1302" type="curve"/>
      <point x="971" y="24" type="line"/>
      <point x="938" y="9"/>
      <point x="885" y="1"/>
      <point x="833" y="1" type="curve" smooth="yes"/>
      <point x="782" y="1"/>
      <point x="730" y="9"/>
    </contour>
    <contour>
      <point x="1282" y="264" type="curve"/>
      <point x="55" y="264" type="line"/>
      <point x="42" y="300"/>
      <point x="36" y="344"/>
      <point x="36" y="387" type="curve" smooth="yes"/>
      <point x="36" y="431"/>
      <point x="42" y="475"/>
      <point x="55" y="510" type="curve"/>
      <point x="1282" y="510" type="line"/>
      <point x="1294" y="475"/>
      <point x="1301" y="431"/>
      <point x="1301" y="387" type="curve" smooth="yes"/>
      <point x="1301" y="344"/>
      <point x="1294" y="300"/>
    </contour>
    <contour>
      <point x="1388" y="817" type="curve"/>
      <point x="161" y="817" type="line"/>
      <point x="149" y="852"/>
      <point x="143" y="896"/>
      <point x="143" y="940" type="curve" smooth="yes"/>
      <point x="143" y="984"/>
      <point x="149" y="1027"/>
      <point x="161" y="1062" type="curve"/>
      <point x="1388" y="1062" type="line"/>
      <point x="1401" y="1027"/>
      <point x="1408" y="984"/>
      <point x="1408" y="940" type="curve" smooth="yes"/>
      <point x="1408" y="896"/>
      <point x="1401" y="852"/>
    </contour>
  </outline>
</glyph>
<glyph name="dollar" format="2">
  <advance width="1080"/>
  <unicode hex="0024"/>
  <outline>
    <contour>
      <point x="506" y="41" type="curve" smooth="yes"/>
      <point x="763" y="41"/>
      <point x="945" y="178"/>
      <point x="945" y="391" type="curve" smooth="yes"/>
      <point x="945" y="569"/>
      <point x="837" y="684"/>
      <point x="681" y="744" type="curve" smooth="yes"/>
      <point x="518" y="806" type="line" smooth="yes"/>
      <point x="451" y="832"/>
      <point x="416" y="854"/>
      <point x="416" y="904" type="curve" smooth="yes"/>
      <point x="416" y="951"/>
      <point x="454" y="981"/>
      <point x="525" y="981" type="curve" smooth="yes"/>
      <point x="604" y="981"/>
      <point x="704" y="954"/>
      <point x="806" y="905" type="curve"/>
      <point x="869" y="957"/>
      <point x="913" y="1052"/>
      <point x="913" y="1138" type="curve"/>
      <point x="802" y="1194"/>
      <point x="670" y="1232"/>
      <point x="488" y="1232" type="curve" smooth="yes"/>
      <point x="271" y="1232"/>
      <point x="92" y="1091"/>
      <point x="92" y="872" type="curve" smooth="yes"/>
      <point x="92" y="705"/>
      <point x="212" y="609"/>
      <point x="355" y="555" type="curve" smooth="yes"/>
      <point x="523" y="493" type="line" smooth="yes"/>
      <point x="600" y="464"/>
      <point x="619" y="420"/>
      <point x="619" y="382" type="curve" smooth="yes"/>
      <point x="619" y="325"/>
      <point x="573" y="290"/>
      <point x="497" y="291" type="curve" smooth="yes"/>
      <point x="402" y="292"/>
      <point x="273" y="339"/>
      <point x="178" y="398" type="curve"/>
      <point x="117" y="361"/>
      <point x="66" y="243"/>
      <point x="64" y="165" type="curve"/>
      <point x="143" y="110"/>
      <point x="330" y="41"/>
    </contour>
    <contour>
      <point x="494" y="-128" type="curve" smooth="yes"/>
      <point x="537" y="-128"/>
      <point x="577" y="-124"/>
      <point x="604" y="-116" type="curve"/>
      <point x="604" y="147" type="line"/>
      <point x="381" y="147" type="line"/>
      <point x="381" y="-116" type="line"/>
      <point x="410" y="-124"/>
      <point x="450" y="-128"/>
    </contour>
    <contour>
      <point x="400" y="1125" type="line"/>
      <point x="624" y="1125" type="line"/>
      <point x="624" y="1388" type="line"/>
      <point x="595" y="1396"/>
      <point x="551" y="1400"/>
      <point x="512" y="1400" type="curve" smooth="yes"/>
      <point x="472" y="1400"/>
      <point x="430" y="1396"/>
      <point x="400" y="1388" type="curve"/>
    </contour>
  </outline>
</glyph>
<glyph name="percent" format="2">
  <advance width="1980"/>
  <unicode hex="0025"/>
  <outline>
    <contour>
      <point x="1891" y="409" type="curve" smooth="yes"/>
      <point x="1891" y="666"/>
      <point x="1795" y="841"/>
      <point x="1547" y="841" type="curve" smooth="yes"/>
      <point x="1297" y="841"/>
      <point x="1204" y="668"/>
      <point x="1204" y="409" type="curve" smooth="yes"/>
      <point x="1204" y="151"/>
      <point x="1292" y="-26"/>
      <point x="1547" y="-26" type="curve" smooth="yes"/>
      <point x="1797" y="-26"/>
      <point x="1891" y="147"/>
    </contour>
    <contour>
      <point x="1455" y="409" type="curve" smooth="yes"/>
      <point x="1455" y="544"/>
      <point x="1463" y="651"/>
      <point x="1548" y="651" type="curve" smooth="yes"/>
      <point x="1632" y="651"/>
      <point x="1640" y="544"/>
      <point x="1640" y="409" type="curve" smooth="yes"/>
      <point x="1640" y="274"/>
      <point x="1632" y="164"/>
      <point x="1548" y="164" type="curve" smooth="yes"/>
      <point x="1463" y="164"/>
      <point x="1455" y="274"/>
    </contour>
    <contour>
      <point x="777" y="863" type="curve" smooth="yes"/>
      <point x="777" y="1120"/>
      <point x="681" y="1295"/>
      <point x="433" y="1295" type="curve" smooth="yes"/>
      <point x="182" y="1295"/>
      <point x="89" y="1122"/>
      <point x="89" y="863" type="curve" smooth="yes"/>
      <point x="89" y="605"/>
      <point x="178" y="428"/>
      <point x="433" y="428" type="curve" smooth="yes"/>
      <point x="683" y="428"/>
      <point x="777" y="601"/>
    </contour>
    <contour>
      <point x="341" y="863" type="curve" smooth="yes"/>
      <point x="341" y="998"/>
      <point x="349" y="1105"/>
      <point x="433" y="1105" type="curve" smooth="yes"/>
      <point x="517" y="1105"/>
      <point x="526" y="998"/>
      <point x="526" y="863" type="curve" smooth="yes"/>
      <point x="526" y="727"/>
      <point x="517" y="618"/>
      <point x="433" y="618" type="curve" smooth="yes"/>
      <point x="349" y="618"/>
      <point x="341" y="727"/>
    </contour>
    <component base="fraction" xOffset="731"/>
  </outline>
</glyph>
<glyph name="ampersand" format="2">
  <advance width="1312"/>
  <unicode hex="0026"/>
  <outline>
    <contour>
      <point x="1052" y="849" type="curve" smooth="yes"/>
      <point x="664" y="849" type="line" smooth="yes"/>
      <point x="529" y="849"/>
      <point x="466" y="898"/>
      <point x="466" y="1004" type="curve" smooth="yes"/>
      <point x="466" y="1087"/>
      <point x="519" y="1150"/>
      <point x="629" y="1150" type="curve" smooth="yes"/>
      <point x="728" y="1150"/>
      <point x="828" y="1124"/>
      <point x="918" y="1095" type="curve" smooth="yes"/>
      <point x="971" y="1152"/>
      <point x="1002" y="1250"/>
      <point x="998" y="1329" type="curve"/>
      <point x="889" y="1366"/>
      <point x="731" y="1396"/>
      <point x="574" y="1396" type="curve" smooth="yes"/>
      <point x="308" y="1396"/>
      <point x="139" y="1248"/>
      <point x="139" y="1031" type="curve" smooth="yes"/>
      <point x="139" y="853"/>
      <point x="262" y="717"/>
      <point x="427" y="712" type="curve"/>
      <point x="427" y="744" type="line"/>
      <point x="257" y="744"/>
      <point x="79" y="591"/>
      <point x="79" y="358" type="curve" smooth="yes"/>
      <point x="79" y="149"/>
      <point x="215" y="-30"/>
      <point x="470" y="-30" type="curve" smooth="yes"/>
      <point x="593" y="-30"/>
      <point x="706" y="16"/>
      <point x="781" y="84" type="curve"/>
      <point x="802" y="-4" type="line"/>
      <point x="837" y="-13"/>
      <point x="892" y="-19"/>
      <point x="944" y="-19" type="curve" smooth="yes"/>
      <point x="1000" y="-19"/>
      <point x="1051" y="-13"/>
      <point x="1087" y="0" type="curve"/>
      <point x="1079" y="95"/>
      <point x="1074" y="231"/>
      <point x="1074" y="320" type="curve" smooth="yes"/>
      <point x="1074" y="463" type="line" smooth="yes"/>
      <point x="1074" y="533"/>
      <point x="1072" y="639"/>
      <point x="1064" y="732" type="curve"/>
      <point x="776" y="732" type="line"/>
      <point x="768" y="639"/>
      <point x="766" y="533"/>
      <point x="766" y="463" type="curve" smooth="yes"/>
      <point x="766" y="288" type="line"/>
      <point x="724" y="253"/>
      <point x="654" y="212"/>
      <point x="560" y="212" type="curve" smooth="yes"/>
      <point x="476" y="212"/>
      <point x="406" y="264"/>
      <point x="406" y="388" type="curve" smooth="yes"/>
      <point x="406" y="518"/>
      <point x="488" y="585"/>
      <point x="641" y="585" type="curve" smooth="yes"/>
      <point x="1116" y="585" type="line" smooth="yes"/>
      <point x="1236" y="585"/>
      <point x="1305" y="636"/>
      <point x="1305" y="742" type="curve" smooth="yes"/>
      <point x="1305" y="799"/>
      <point x="1290" y="857"/>
      <point x="1264" y="888" type="curve"/>
      <point x="1206" y="862"/>
      <point x="1129" y="849"/>
    </contour>
  </outline>
</glyph>
<glyph name="quotesingle" format="2">
  <advance width="483"/>
  <unicode hex="0027"/>
  <outline>
    <contour>
      <point x="84" y="1436" type="curve" smooth="yes"/>
      <point x="84" y="1393"/>
      <point x="122" y="1176"/>
      <point x="157" y="980" type="curve"/>
      <point x="191" y="959"/>
      <point x="273" y="959"/>
      <point x="307" y="980" type="curve"/>
      <point x="342" y="1176"/>
      <point x="380" y="1393"/>
      <point x="380" y="1436" type="curve" smooth="yes"/>
      <point x="380" y="1478"/>
      <point x="374" y="1519"/>
      <point x="366" y="1556" type="curve"/>
      <point x="327" y="1579"/>
      <point x="283" y="1591"/>
      <point x="232" y="1591" type="curve" smooth="yes"/>
      <point x="180" y="1591"/>
      <point x="137" y="1579"/>
      <point x="98" y="1556" type="curve"/>
      <point x="90" y="1519"/>
      <point x="84" y="1478"/>
    </contour>
  </outline>
</glyph>
<glyph name="parenleft" format="2">
  <advance width="750"/>
  <unicode hex="0028"/>
  <outline>
    <contour>
      <point x="442" y="545" type="curve" smooth="yes"/>
      <point x="442" y="834"/>
      <point x="529" y="1167"/>
      <point x="711" y="1423" type="curve"/>
      <point x="672" y="1506"/>
      <point x="602" y="1561"/>
      <point x="531" y="1586" type="curve"/>
      <point x="255" y="1325"/>
      <point x="117" y="900"/>
      <point x="117" y="545" type="curve" smooth="yes"/>
      <point x="117" y="189"/>
      <point x="255" y="-235"/>
      <point x="531" y="-497" type="curve"/>
      <point x="602" y="-472"/>
      <point x="672" y="-417"/>
      <point x="711" y="-334" type="curve"/>
      <point x="529" y="-78"/>
      <point x="442" y="256"/>
    </contour>
  </outline>
</glyph>
<glyph name="parenright" format="2">
  <advance width="750"/>
  <unicode hex="0029"/>
  <outline>
    <contour>
      <point x="307" y="545" type="curve" smooth="yes"/>
      <point x="307" y="834"/>
      <point x="221" y="1167"/>
      <point x="39" y="1423" type="curve"/>
      <point x="77" y="1506"/>
      <point x="148" y="1561"/>
      <point x="219" y="1586" type="curve"/>
      <point x="495" y="1325"/>
      <point x="633" y="900"/>
      <point x="633" y="545" type="curve" smooth="yes"/>
      <point x="633" y="189"/>
      <point x="495" y="-235"/>
      <point x="219" y="-497" type="curve"/>
      <point x="148" y="-472"/>
      <point x="77" y="-417"/>
      <point x="39" y="-334" type="curve"/>
      <point x="221" y="-78"/>
      <point x="307" y="256"/>
    </contour>
  </outline>
</glyph>
<glyph name="asterisk" format="2">
  <advance width="1041"/>
  <unicode hex="002A"/>
  <outline>
    <contour>
      <point x="395" y="1460" type="curve"/>
      <point x="402" y="1331" type="line" smooth="yes"/>
      <point x="407" y="1241"/>
      <point x="446" y="1142"/>
      <point x="473" y="1052" type="curve"/>
      <point x="485" y="1037"/>
      <point x="502" y="1030"/>
      <point x="520" y="1030" type="curve" smooth="yes"/>
      <point x="537" y="1030"/>
      <point x="555" y="1038"/>
      <point x="567" y="1052" type="curve"/>
      <point x="594" y="1142"/>
      <point x="632" y="1241"/>
      <point x="638" y="1331" type="curve" smooth="yes"/>
      <point x="645" y="1460" type="line"/>
      <point x="587" y="1484"/>
      <point x="451" y="1484"/>
    </contour>
    <contour>
      <point x="72" y="1043" type="curve"/>
      <point x="198" y="1011" type="line" smooth="yes"/>
      <point x="284" y="988"/>
      <point x="390" y="993"/>
      <point x="484" y="993" type="curve"/>
      <point x="502" y="998"/>
      <point x="514" y="1012"/>
      <point x="520" y="1030" type="curve" smooth="yes"/>
      <point x="526" y="1047"/>
      <point x="523" y="1065"/>
      <point x="513" y="1081" type="curve"/>
      <point x="436" y="1135"/>
      <point x="354" y="1204"/>
      <point x="269" y="1235" type="curve" smooth="yes"/>
      <point x="150" y="1282" type="line"/>
      <point x="109" y="1233"/>
      <point x="67" y="1105"/>
    </contour>
    <contour>
      <point x="368" y="609" type="curve"/>
      <point x="437" y="718" type="line" smooth="yes"/>
      <point x="486" y="794"/>
      <point x="515" y="894"/>
      <point x="545" y="984" type="curve"/>
      <point x="543" y="1002"/>
      <point x="535" y="1018"/>
      <point x="520" y="1030" type="curve" smooth="yes"/>
      <point x="504" y="1041"/>
      <point x="487" y="1043"/>
      <point x="469" y="1039" type="curve"/>
      <point x="394" y="983"/>
      <point x="303" y="926"/>
      <point x="247" y="856" type="curve" smooth="yes"/>
      <point x="166" y="755" type="line"/>
      <point x="199" y="701"/>
      <point x="308" y="623"/>
    </contour>
    <contour>
      <point x="872" y="755" type="curve"/>
      <point x="790" y="854" type="line" smooth="yes"/>
      <point x="733" y="924"/>
      <point x="647" y="983"/>
      <point x="571" y="1039" type="curve"/>
      <point x="553" y="1043"/>
      <point x="535" y="1041"/>
      <point x="520" y="1030" type="curve" smooth="yes"/>
      <point x="504" y="1018"/>
      <point x="497" y="1002"/>
      <point x="495" y="984" type="curve"/>
      <point x="525" y="896"/>
      <point x="552" y="792"/>
      <point x="601" y="717" type="curve" smooth="yes"/>
      <point x="672" y="607" type="line"/>
      <point x="734" y="623"/>
      <point x="841" y="703"/>
    </contour>
    <contour>
      <point x="890" y="1280" type="curve"/>
      <point x="770" y="1232" type="line" smooth="yes"/>
      <point x="686" y="1198"/>
      <point x="603" y="1137"/>
      <point x="526" y="1080" type="curve"/>
      <point x="518" y="1065"/>
      <point x="514" y="1047"/>
      <point x="520" y="1030" type="curve" smooth="yes"/>
      <point x="526" y="1012"/>
      <point x="539" y="999"/>
      <point x="556" y="993" type="curve"/>
      <point x="648" y="993"/>
      <point x="756" y="987"/>
      <point x="842" y="1009" type="curve" smooth="yes"/>
      <point x="969" y="1043" type="line"/>
      <point x="973" y="1107"/>
      <point x="929" y="1234"/>
    </contour>
  </outline>
</glyph>
<glyph name="plus" format="2">
  <advance width="1080"/>
  <unicode hex="002B"/>
  <outline>
    <contour>
      <point x="115" y="763" type="curve"/>
      <point x="273" y="763" type="line" smooth="yes"/>
      <point x="326" y="763"/>
      <point x="366" y="761"/>
      <point x="417" y="761" type="curve" smooth="yes"/>
      <point x="663" y="761" type="line" smooth="yes"/>
      <point x="714" y="761"/>
      <point x="754" y="763"/>
      <point x="807" y="763" type="curve" smooth="yes"/>
      <point x="965" y="763" type="line"/>
      <point x="974" y="718"/>
      <point x="978" y="683"/>
      <point x="978" y="638" type="curve" smooth="yes"/>
      <point x="978" y="594"/>
      <point x="974" y="554"/>
      <point x="965" y="514" type="curve"/>
      <point x="807" y="514" type="line" smooth="yes"/>
      <point x="754" y="514"/>
      <point x="714" y="516"/>
      <point x="663" y="516" type="curve" smooth="yes"/>
      <point x="417" y="516" type="line" smooth="yes"/>
      <point x="366" y="516"/>
      <point x="326" y="514"/>
      <point x="273" y="514" type="curve" smooth="yes"/>
      <point x="115" y="514" type="line"/>
      <point x="106" y="552"/>
      <point x="102" y="594"/>
      <point x="102" y="638" type="curve" smooth="yes"/>
      <point x="102" y="683"/>
      <point x="106" y="723"/>
    </contour>
    <contour>
      <point x="407" y="900" type="curve" smooth="yes"/>
      <point x="407" y="1069" type="line"/>
      <point x="453" y="1078"/>
      <point x="495" y="1080"/>
      <point x="540" y="1080" type="curve" smooth="yes"/>
      <point x="584" y="1080"/>
      <point x="627" y="1078"/>
      <point x="673" y="1069" type="curve"/>
      <point x="673" y="900" type="line" smooth="yes"/>
      <point x="673" y="846"/>
      <point x="671" y="806"/>
      <point x="671" y="755" type="curve" smooth="yes"/>
      <point x="671" y="524" type="line" smooth="yes"/>
      <point x="671" y="472"/>
      <point x="673" y="434"/>
      <point x="673" y="381" type="curve" smooth="yes"/>
      <point x="673" y="210" type="line"/>
      <point x="627" y="201"/>
      <point x="588" y="199"/>
      <point x="544" y="199" type="curve" smooth="yes"/>
      <point x="499" y="199"/>
      <point x="453" y="201"/>
      <point x="407" y="210" type="curve"/>
      <point x="407" y="381" type="line" smooth="yes"/>
      <point x="407" y="434"/>
      <point x="409" y="472"/>
      <point x="409" y="524" type="curve" smooth="yes"/>
      <point x="409" y="755" type="line" smooth="yes"/>
      <point x="409" y="806"/>
      <point x="407" y="846"/>
    </contour>
  </outline>
</glyph>
<glyph name="comma" format="2">
  <advance width="590"/>
  <unicode hex="002C"/>
  <outline>
    <contour>
      <point x="450" y="255" type="curve"/>
      <point x="416" y="276"/>
      <point x="349" y="292"/>
      <point x="297" y="292" type="curve" smooth="yes"/>
      <point x="244" y="292"/>
      <point x="180" y="276"/>
      <point x="143" y="255" type="curve"/>
      <point x="130" y="230"/>
      <point x="120" y="172"/>
      <point x="120" y="132" type="curve" smooth="yes"/>
      <point x="120" y="93"/>
      <point x="130" y="40"/>
      <point x="143" y="15" type="curve"/>
      <point x="163" y="0"/>
      <point x="197" y="-10"/>
      <point x="230" y="-16" type="curve"/>
      <point x="216" y="-109"/>
      <point x="137" y="-183"/>
      <point x="43" y="-216" type="curve"/>
      <point x="38" y="-272"/>
      <point x="65" y="-334"/>
      <point x="118" y="-361" type="curve"/>
      <point x="355" y="-287"/>
      <point x="476" y="-92"/>
      <point x="476" y="97" type="curve" smooth="yes"/>
      <point x="476" y="154"/>
      <point x="469" y="202"/>
    </contour>
  </outline>
</glyph>
<glyph name="hyphen" format="2">
  <advance width="752"/>
  <unicode hex="002D"/>
  <outline>
    <contour>
      <point x="95" y="414" type="curve"/>
      <point x="658" y="414" type="line"/>
      <point x="669" y="456"/>
      <point x="671" y="511"/>
      <point x="671" y="539" type="curve" smooth="yes"/>
      <point x="671" y="567"/>
      <point x="669" y="622"/>
      <point x="658" y="664" type="curve"/>
      <point x="95" y="664" type="line"/>
      <point x="84" y="622"/>
      <point x="82" y="567"/>
      <point x="82" y="539" type="curve" smooth="yes"/>
      <point x="82" y="511"/>
      <point x="84" y="456"/>
    </contour>
  </outline>
</glyph>
<glyph name="period" format="2">
  <advance width="573"/>
  <unicode hex="002E"/>
  <outline>
    <contour>
      <point x="106" y="136" type="curve" smooth="yes"/>
      <point x="106" y="112"/>
      <point x="112" y="51"/>
      <point x="130" y="15" type="curve"/>
      <point x="170" y="-10"/>
      <point x="234" y="-21"/>
      <point x="287" y="-21" type="curve" smooth="yes"/>
      <point x="339" y="-21"/>
      <point x="404" y="-10"/>
      <point x="444" y="15" type="curve"/>
      <point x="461" y="51"/>
      <point x="467" y="112"/>
      <point x="467" y="136" type="curve" smooth="yes"/>
      <point x="467" y="160"/>
      <point x="461" y="221"/>
      <point x="444" y="257" type="curve"/>
      <point x="404" y="280"/>
      <point x="339" y="294"/>
      <point x="287" y="294" type="curve" smooth="yes"/>
      <point x="234" y="294"/>
      <point x="170" y="280"/>
      <point x="130" y="257" type="curve"/>
      <point x="112" y="221"/>
      <point x="106" y="160"/>
    </contour>
  </outline>
</glyph>
<glyph name="slash" format="2">
  <advance width="902"/>
  <unicode hex="002F"/>
  <outline>
    <contour>
      <point x="630" y="1436" type="curve"/>
      <point x="2" y="-238" type="line"/>
      <point x="78" y="-298"/>
      <point x="176" y="-328"/>
      <point x="267" y="-339" type="curve"/>
      <point x="896" y="1335" type="line"/>
      <point x="820" y="1394"/>
      <point x="722" y="1425"/>
    </contour>
  </outline>
</glyph>
<glyph name="zero" format="2">
  <advance width="1080"/>
  <unicode hex="0030"/>
  <outline>
    <contour>
      <point x="70" y="633" type="curve" smooth="yes"/>
      <point x="70" y="421"/>
      <point x="88" y="235"/>
      <point x="211" y="97" type="curve" smooth="yes"/>
      <point x="288" y="24"/>
      <point x="378" y="-30"/>
      <point x="540" y="-30" type="curve" smooth="yes"/>
      <point x="704" y="-30"/>
      <point x="792" y="24"/>
      <point x="869" y="97" type="curve" smooth="yes"/>
      <point x="992" y="235"/>
      <point x="1010" y="421"/>
      <point x="1010" y="633" type="curve" smooth="yes"/>
      <point x="1010" y="846"/>
      <point x="992" y="1031"/>
      <point x="869" y="1169" type="curve" smooth="yes"/>
      <point x="792" y="1242"/>
      <point x="704" y="1296"/>
      <point x="540" y="1296" type="curve" smooth="yes"/>
      <point x="378" y="1296"/>
      <point x="288" y="1242"/>
      <point x="211" y="1169" type="curve" smooth="yes"/>
      <point x="87" y="1031"/>
      <point x="70" y="846"/>
    </contour>
    <contour>
      <point x="390" y="633" type="curve" smooth="yes"/>
      <point x="390" y="814"/>
      <point x="403" y="928"/>
      <point x="426" y="985" type="curve" smooth="yes"/>
      <point x="447" y="1037"/>
      <point x="492" y="1058"/>
      <point x="540" y="1058" type="curve" smooth="yes"/>
      <point x="590" y="1058"/>
      <point x="633" y="1037"/>
      <point x="654" y="985" type="curve" smooth="yes"/>
      <point x="677" y="928"/>
      <point x="690" y="814"/>
      <point x="690" y="633" type="curve" smooth="yes"/>
      <point x="690" y="455"/>
      <point x="677" y="339"/>
      <point x="654" y="281" type="curve" smooth="yes"/>
      <point x="635" y="228"/>
      <point x="590" y="208"/>
      <point x="540" y="208" type="curve" smooth="yes"/>
      <point x="492" y="208"/>
      <point x="447" y="229"/>
      <point x="426" y="281" type="curve" smooth="yes"/>
      <point x="401" y="338"/>
      <point x="390" y="455"/>
    </contour>
  </outline>
</glyph>
<glyph name="one" format="2">
  <advance width="1080"/>
  <unicode hex="0031"/>
  <outline>
    <contour>
      <point x="752" y="402" type="curve" smooth="yes"/>
      <point x="752" y="1266" type="line"/>
      <point x="697" y="1276"/>
      <point x="649" y="1278"/>
      <point x="605" y="1278" type="curve" smooth="yes"/>
      <point x="561" y="1278"/>
      <point x="513" y="1276"/>
      <point x="458" y="1266" type="curve"/>
      <point x="466" y="968" type="line" smooth="yes"/>
      <point x="468" y="874"/>
      <point x="449" y="714"/>
      <point x="449" y="634" type="curve" smooth="yes"/>
      <point x="449" y="402" type="line" smooth="yes"/>
      <point x="449" y="348"/>
      <point x="451" y="292"/>
      <point x="451" y="236" type="curve" smooth="yes"/>
      <point x="451" y="124" type="line"/>
      <point x="750" y="124" type="line"/>
      <point x="750" y="236" type="line" smooth="yes"/>
      <point x="750" y="292"/>
      <point x="752" y="348"/>
    </contour>
    <contour>
      <point x="322" y="256" type="curve" smooth="yes"/>
      <point x="160" y="256" type="line"/>
      <point x="150" y="218"/>
      <point x="144" y="170"/>
      <point x="144" y="128" type="curve" smooth="yes"/>
      <point x="144" y="86"/>
      <point x="150" y="40"/>
      <point x="160" y="0" type="curve"/>
      <point x="994" y="0" type="line"/>
      <point x="1003" y="39"/>
      <point x="1009" y="86"/>
      <point x="1009" y="128" type="curve" smooth="yes"/>
      <point x="1009" y="170"/>
      <point x="1003" y="218"/>
      <point x="994" y="256" type="curve"/>
      <point x="886" y="256" type="line" smooth="yes"/>
      <point x="856" y="256"/>
      <point x="776" y="254"/>
      <point x="746" y="254" type="curve" smooth="yes"/>
      <point x="455" y="254" type="line" smooth="yes"/>
      <point x="425" y="254"/>
      <point x="352" y="256"/>
    </contour>
    <contour>
      <point x="67" y="861" type="curve"/>
      <point x="78" y="784"/>
      <point x="135" y="709"/>
      <point x="197" y="681" type="curve"/>
      <point x="337" y="742"/>
      <point x="502" y="863"/>
      <point x="564" y="1028" type="curve"/>
      <point x="458" y="1266" type="line"/>
      <point x="385" y="1114"/>
      <point x="266" y="986"/>
    </contour>
  </outline>
</glyph>
<glyph name="two" format="2">
  <advance width="1080"/>
  <unicode hex="0032"/>
  <outline>
    <contour>
      <point x="99" y="958" type="curve"/>
      <point x="137" y="900"/>
      <point x="246" y="866"/>
      <point x="320" y="865" type="curve"/>
      <point x="343" y="952"/>
      <point x="401" y="1041"/>
      <point x="497" y="1041" type="curve" smooth="yes"/>
      <point x="585" y="1041"/>
      <point x="635" y="981"/>
      <point x="635" y="905" type="curve" smooth="yes"/>
      <point x="635" y="829"/>
      <point x="589" y="771"/>
      <point x="531" y="720" type="curve" smooth="yes"/>
      <point x="314" y="533" type="line" smooth="yes"/>
      <point x="191" y="422"/>
      <point x="85" y="307"/>
      <point x="85" y="198" type="curve" smooth="yes"/>
      <point x="85" y="123"/>
      <point x="136" y="62"/>
      <point x="191" y="-2" type="curve"/>
      <point x="385" y="-2" type="line"/>
      <point x="396" y="209" type="line" smooth="yes"/>
      <point x="398" y="255"/>
      <point x="500" y="335"/>
      <point x="570" y="393" type="curve" smooth="yes"/>
      <point x="713" y="505" type="line" smooth="yes"/>
      <point x="842" y="614"/>
      <point x="952" y="727"/>
      <point x="952" y="896" type="curve" smooth="yes"/>
      <point x="952" y="1138"/>
      <point x="785" y="1296"/>
      <point x="529" y="1296" type="curve" smooth="yes"/>
      <point x="304" y="1296"/>
      <point x="150" y="1144"/>
    </contour>
    <contour>
      <point x="986" y="264" type="curve"/>
      <point x="711" y="264" type="line" smooth="yes"/>
      <point x="551" y="264"/>
      <point x="281" y="238"/>
      <point x="128" y="183" type="curve"/>
      <point x="210" y="-2" type="line"/>
      <point x="789" y="-2" type="line" smooth="yes"/>
      <point x="930" y="-2"/>
      <point x="986" y="62"/>
    </contour>
  </outline>
</glyph>
<glyph name="three" format="2">
  <advance width="1080"/>
  <unicode hex="0033"/>
  <outline>
    <contour>
      <point x="674" y="404" type="curve" smooth="yes"/>
      <point x="674" y="292"/>
      <point x="595" y="221"/>
      <point x="471" y="221" type="curve" smooth="yes"/>
      <point x="370" y="221"/>
      <point x="281" y="265"/>
      <point x="214" y="318" type="curve"/>
      <point x="151" y="268"/>
      <point x="97" y="189"/>
      <point x="83" y="116" type="curve"/>
      <point x="175" y="34"/>
      <point x="327" y="-30"/>
      <point x="511" y="-30" type="curve" smooth="yes"/>
      <point x="770" y="-30"/>
      <point x="993" y="124"/>
      <point x="993" y="392" type="curve" smooth="yes"/>
      <point x="993" y="634"/>
      <point x="819" y="764"/>
      <point x="590" y="764" type="curve" smooth="yes"/>
      <point x="434" y="764"/>
      <point x="358" y="740"/>
      <point x="274" y="711" type="curve"/>
      <point x="284" y="649"/>
      <point x="334" y="576"/>
      <point x="389" y="545" type="curve"/>
      <point x="424" y="560"/>
      <point x="460" y="568"/>
      <point x="497" y="568" type="curve" smooth="yes"/>
      <point x="595" y="568"/>
      <point x="674" y="509"/>
    </contour>
    <contour>
      <point x="726" y="809" type="curve" smooth="yes"/>
      <point x="880" y="954" type="line" smooth="yes"/>
      <point x="923" y="999"/>
      <point x="940" y="1037"/>
      <point x="940" y="1083" type="curve" smooth="yes"/>
      <point x="940" y="1126"/>
      <point x="926" y="1178"/>
      <point x="878" y="1266" type="curve"/>
      <point x="156" y="1266" type="line"/>
      <point x="133" y="1216"/>
      <point x="129" y="1161"/>
      <point x="129" y="1122" type="curve" smooth="yes"/>
      <point x="129" y="1097"/>
      <point x="131" y="1053"/>
      <point x="150" y="1004" type="curve"/>
      <point x="392" y="1004" type="line" smooth="yes"/>
      <point x="465" y="1004"/>
      <point x="539" y="1015"/>
      <point x="587" y="1029" type="curve"/>
      <point x="595" y="1016" type="line"/>
      <point x="562" y="991"/>
      <point x="496" y="930"/>
      <point x="459" y="892" type="curve" smooth="yes"/>
      <point x="274" y="711" type="line"/>
      <point x="439" y="643" type="line"/>
      <point x="510" y="668"/>
      <point x="643" y="725"/>
    </contour>
  </outline>
</glyph>
<glyph name="four" format="2">
  <advance width="1080"/>
  <unicode hex="0034"/>
  <outline>
    <contour>
      <point x="118" y="225" type="curve"/>
      <point x="407" y="225" type="line" smooth="yes"/>
      <point x="460" y="225"/>
      <point x="503" y="229"/>
      <point x="555" y="229" type="curve" smooth="yes"/>
      <point x="852" y="229" type="line" smooth="yes"/>
      <point x="904" y="229"/>
      <point x="914" y="229"/>
      <point x="967" y="229" type="curve" smooth="yes"/>
      <point x="1009" y="229" type="line"/>
      <point x="1023" y="276"/>
      <point x="1028" y="334"/>
      <point x="1028" y="376" type="curve" smooth="yes"/>
      <point x="1028" y="412"/>
      <point x="1027" y="450"/>
      <point x="1021" y="487" type="curve"/>
      <point x="967" y="487" type="line" smooth="yes"/>
      <point x="914" y="487"/>
      <point x="904" y="485"/>
      <point x="852" y="485" type="curve" smooth="yes"/>
      <point x="613" y="485" type="line" smooth="yes"/>
      <point x="580" y="485"/>
      <point x="430" y="479"/>
      <point x="348" y="470" type="curve"/>
      <point x="342" y="480" type="line"/>
      <point x="418" y="584"/>
      <point x="518" y="804"/>
      <point x="566" y="915" type="curve" smooth="yes"/>
      <point x="700" y="1217" type="line"/>
      <point x="652" y="1272"/>
      <point x="504" y="1299"/>
      <point x="415" y="1282" type="curve"/>
      <point x="88" y="549" type="line" smooth="yes"/>
      <point x="73" y="514"/>
      <point x="51" y="462"/>
      <point x="51" y="418" type="curve" smooth="yes"/>
      <point x="51" y="362"/>
      <point x="80" y="286"/>
    </contour>
    <contour>
      <point x="553" y="84" type="curve" smooth="yes"/>
      <point x="553" y="0" type="line"/>
      <point x="608" y="-10"/>
      <point x="659" y="-12"/>
      <point x="704" y="-12" type="curve" smooth="yes"/>
      <point x="748" y="-12"/>
      <point x="800" y="-10"/>
      <point x="854" y="0" type="curve"/>
      <point x="854" y="84" type="line" smooth="yes"/>
      <point x="854" y="137"/>
      <point x="852" y="178"/>
      <point x="852" y="229" type="curve" smooth="yes"/>
      <point x="852" y="485" type="line" smooth="yes"/>
      <point x="852" y="536"/>
      <point x="854" y="576"/>
      <point x="854" y="629" type="curve" smooth="yes"/>
      <point x="854" y="824" type="line"/>
      <point x="841" y="837" type="line"/>
      <point x="769" y="837" type="line" smooth="yes"/>
      <point x="631" y="837"/>
      <point x="553" y="740"/>
      <point x="553" y="588" type="curve" smooth="yes"/>
      <point x="553" y="523" type="line" smooth="yes"/>
      <point x="553" y="506"/>
      <point x="555" y="450"/>
      <point x="555" y="435" type="curve" smooth="yes"/>
      <point x="555" y="229" type="line" smooth="yes"/>
      <point x="555" y="178"/>
      <point x="553" y="137"/>
    </contour>
  </outline>
</glyph>
<glyph name="five" format="2">
  <advance width="1080"/>
  <unicode hex="0035"/>
  <outline>
    <contour>
      <point x="450" y="870" type="curve" smooth="yes"/>
      <point x="458" y="955" type="line" smooth="yes"/>
      <point x="462" y="1007"/>
      <point x="456" y="1140"/>
      <point x="443" y="1201" type="curve"/>
      <point x="170" y="1250" type="line"/>
      <point x="135" y="656" type="line"/>
      <point x="224" y="659"/>
      <point x="330" y="674"/>
      <point x="412" y="703" type="curve"/>
      <point x="434" y="759"/>
      <point x="444" y="811"/>
    </contour>
    <contour>
      <point x="83" y="109" type="curve"/>
      <point x="182" y="19"/>
      <point x="329" y="-30"/>
      <point x="484" y="-30" type="curve" smooth="yes"/>
      <point x="731" y="-30"/>
      <point x="980" y="117"/>
      <point x="980" y="432" type="curve" smooth="yes"/>
      <point x="980" y="679"/>
      <point x="824" y="847"/>
      <point x="552" y="847" type="curve" smooth="yes"/>
      <point x="360" y="847"/>
      <point x="218" y="729"/>
      <point x="135" y="656" type="curve"/>
      <point x="165" y="607"/>
      <point x="235" y="559"/>
      <point x="291" y="548" type="curve"/>
      <point x="343" y="588"/>
      <point x="399" y="610"/>
      <point x="461" y="610" type="curve" smooth="yes"/>
      <point x="568" y="610"/>
      <point x="661" y="551"/>
      <point x="661" y="419" type="curve" smooth="yes"/>
      <point x="661" y="290"/>
      <point x="569" y="223"/>
      <point x="456" y="223" type="curve" smooth="yes"/>
      <point x="365" y="223"/>
      <point x="288" y="256"/>
      <point x="210" y="312" type="curve"/>
      <point x="149" y="268"/>
      <point x="95" y="167"/>
    </contour>
    <contour>
      <point x="912" y="1266" type="curve"/>
      <point x="186" y="1266" type="line"/>
      <point x="170" y="1250" type="line"/>
      <point x="181" y="1021" type="line"/>
      <point x="222" y="1015"/>
      <point x="378" y="1008"/>
      <point x="475" y="1008" type="curve" smooth="yes"/>
      <point x="801" y="1008" type="line" smooth="yes"/>
      <point x="886" y="1008"/>
      <point x="934" y="1053"/>
      <point x="934" y="1138" type="curve" smooth="yes"/>
      <point x="934" y="1169"/>
      <point x="931" y="1215"/>
    </contour>
  </outline>
</glyph>
<glyph name="six" format="2">
  <advance width="1080"/>
  <unicode hex="0036"/>
  <outline>
    <contour>
      <point x="552" y="-30" type="curve" smooth="yes"/>
      <point x="797" y="-30"/>
      <point x="1006" y="132"/>
      <point x="1006" y="424" type="curve" smooth="yes"/>
      <point x="1006" y="725"/>
      <point x="860" y="851"/>
      <point x="644" y="851" type="curve" smooth="yes"/>
      <point x="454" y="851"/>
      <point x="327" y="730"/>
      <point x="265" y="609" type="curve"/>
      <point x="316" y="453" type="line"/>
      <point x="385" y="548"/>
      <point x="469" y="602"/>
      <point x="562" y="602" type="curve" smooth="yes"/>
      <point x="649" y="602"/>
      <point x="698" y="547"/>
      <point x="698" y="404" type="curve" smooth="yes"/>
      <point x="698" y="288"/>
      <point x="657" y="201"/>
      <point x="556" y="201" type="curve" smooth="yes"/>
      <point x="507" y="201"/>
      <point x="475" y="226"/>
      <point x="454" y="253" type="curve" smooth="yes"/>
      <point x="418" y="300"/>
      <point x="398" y="389"/>
      <point x="398" y="519" type="curve" smooth="yes"/>
      <point x="398" y="726" type="line" smooth="yes"/>
      <point x="398" y="921"/>
      <point x="466" y="1052"/>
      <point x="647" y="1052" type="curve" smooth="yes"/>
      <point x="726" y="1052"/>
      <point x="794" y="1034"/>
      <point x="847" y="1012" type="curve"/>
      <point x="907" y="1061"/>
      <point x="942" y="1146"/>
      <point x="947" y="1226" type="curve"/>
      <point x="865" y="1268"/>
      <point x="756" y="1296"/>
      <point x="621" y="1296" type="curve" smooth="yes"/>
      <point x="274" y="1296"/>
      <point x="73" y="1041"/>
      <point x="73" y="617" type="curve" smooth="yes"/>
      <point x="73" y="275"/>
      <point x="168" y="170"/>
      <point x="205" y="121" type="curve" smooth="yes"/>
      <point x="242" y="72"/>
      <point x="343" y="-30"/>
    </contour>
  </outline>
</glyph>
<glyph name="seven" format="2">
  <advance width="1080"/>
  <unicode hex="0037"/>
  <outline>
    <contour>
      <point x="949" y="1266" type="curve"/>
      <point x="127" y="1266" type="line"/>
      <point x="110" y="1223"/>
      <point x="98" y="1166"/>
      <point x="98" y="1111" type="curve" smooth="yes"/>
      <point x="98" y="1075"/>
      <point x="104" y="1035"/>
      <point x="114" y="1004" type="curve"/>
      <point x="429" y="1004" type="line" smooth="yes"/>
      <point x="487" y="1004"/>
      <point x="638" y="1013"/>
      <point x="706" y="1031" type="curve"/>
      <point x="715" y="1019" type="line"/>
      <point x="467" y="798"/>
      <point x="310" y="444"/>
      <point x="282" y="96" type="curve" smooth="yes"/>
      <point x="274" y="0" type="line"/>
      <point x="323" y="-8"/>
      <point x="379" y="-12"/>
      <point x="434" y="-12" type="curve" smooth="yes"/>
      <point x="493" y="-12"/>
      <point x="549" y="-8"/>
      <point x="589" y="0" type="curve"/>
      <point x="597" y="93" type="line" smooth="yes"/>
      <point x="626" y="433"/>
      <point x="710" y="626"/>
      <point x="961" y="960" type="curve" smooth="yes"/>
      <point x="989" y="998"/>
      <point x="1004" y="1045"/>
      <point x="1004" y="1076" type="curve" smooth="yes"/>
      <point x="1004" y="1128"/>
      <point x="974" y="1210"/>
    </contour>
  </outline>
</glyph>
<glyph name="eight" format="2">
  <advance width="1080"/>
  <unicode hex="0038"/>
  <outline>
    <contour>
      <point x="61" y="322" type="curve" smooth="yes"/>
      <point x="61" y="103"/>
      <point x="244" y="-30"/>
      <point x="526" y="-30" type="curve" smooth="yes"/>
      <point x="799" y="-30"/>
      <point x="1019" y="107"/>
      <point x="1019" y="337" type="curve" smooth="yes"/>
      <point x="1019" y="568"/>
      <point x="845" y="684"/>
      <point x="615" y="771" type="curve" smooth="yes"/>
      <point x="565" y="789" type="line" smooth="yes"/>
      <point x="461" y="828"/>
      <point x="398" y="875"/>
      <point x="398" y="950" type="curve" smooth="yes"/>
      <point x="398" y="1022"/>
      <point x="456" y="1075"/>
      <point x="538" y="1075" type="curve" smooth="yes"/>
      <point x="627" y="1075"/>
      <point x="684" y="1018"/>
      <point x="684" y="943" type="curve" smooth="yes"/>
      <point x="684" y="853"/>
      <point x="624" y="780"/>
      <point x="503" y="731" type="curve"/>
      <point x="694" y="643" type="line"/>
      <point x="834" y="684"/>
      <point x="983" y="793"/>
      <point x="983" y="955" type="curve" smooth="yes"/>
      <point x="983" y="1152"/>
      <point x="811" y="1296"/>
      <point x="540" y="1296" type="curve" smooth="yes"/>
      <point x="280" y="1296"/>
      <point x="94" y="1144"/>
      <point x="94" y="950" type="curve" smooth="yes"/>
      <point x="94" y="749"/>
      <point x="236" y="650"/>
      <point x="480" y="553" type="curve" smooth="yes"/>
      <point x="532" y="532" type="line" smooth="yes"/>
      <point x="644" y="489"/>
      <point x="701" y="419"/>
      <point x="701" y="339" type="curve" smooth="yes"/>
      <point x="701" y="256"/>
      <point x="645" y="185"/>
      <point x="540" y="185" type="curve" smooth="yes"/>
      <point x="438" y="185"/>
      <point x="375" y="253"/>
      <point x="375" y="342" type="curve" smooth="yes"/>
      <point x="375" y="439"/>
      <point x="428" y="543"/>
      <point x="585" y="616" type="curve"/>
      <point x="386" y="700" type="line"/>
      <point x="226" y="644"/>
      <point x="61" y="509"/>
    </contour>
  </outline>
</glyph>
<glyph name="nine" format="2">
  <advance width="1080"/>
  <unicode hex="0039"/>
  <outline>
    <contour>
      <point x="528" y="1296" type="curve" smooth="yes"/>
      <point x="283" y="1296"/>
      <point x="74" y="1134"/>
      <point x="74" y="842" type="curve" smooth="yes"/>
      <point x="74" y="541"/>
      <point x="220" y="415"/>
      <point x="436" y="415" type="curve" smooth="yes"/>
      <point x="626" y="415"/>
      <point x="753" y="536"/>
      <point x="815" y="657" type="curve"/>
      <point x="764" y="813" type="line"/>
      <point x="695" y="718"/>
      <point x="611" y="664"/>
      <point x="518" y="664" type="curve" smooth="yes"/>
      <point x="431" y="664"/>
      <point x="382" y="719"/>
      <point x="382" y="862" type="curve" smooth="yes"/>
      <point x="382" y="978"/>
      <point x="423" y="1065"/>
      <point x="524" y="1065" type="curve" smooth="yes"/>
      <point x="573" y="1065"/>
      <point x="605" y="1040"/>
      <point x="626" y="1013" type="curve" smooth="yes"/>
      <point x="662" y="966"/>
      <point x="682" y="877"/>
      <point x="682" y="747" type="curve" smooth="yes"/>
      <point x="682" y="540" type="line" smooth="yes"/>
      <point x="682" y="345"/>
      <point x="614" y="214"/>
      <point x="433" y="214" type="curve" smooth="yes"/>
      <point x="354" y="214"/>
      <point x="286" y="232"/>
      <point x="233" y="254" type="curve"/>
      <point x="173" y="205"/>
      <point x="138" y="120"/>
      <point x="133" y="40" type="curve"/>
      <point x="215" y="-2"/>
      <point x="324" y="-30"/>
      <point x="459" y="-30" type="curve" smooth="yes"/>
      <point x="806" y="-30"/>
      <point x="1007" y="225"/>
      <point x="1007" y="649" type="curve" smooth="yes"/>
      <point x="1007" y="991"/>
      <point x="912" y="1096"/>
      <point x="875" y="1145" type="curve" smooth="yes"/>
      <point x="838" y="1194"/>
      <point x="737" y="1296"/>
    </contour>
  </outline>
</glyph>
<glyph name="less" format="2">
  <advance width="1080"/>
  <unicode hex="003C"/>
  <outline>
    <contour>
      <point x="823" y="1147" type="curve"/>
      <point x="113" y="755" type="line"/>
      <point x="93" y="684"/>
      <point x="95" y="587"/>
      <point x="113" y="519" type="curve"/>
      <point x="821" y="126" type="line"/>
      <point x="895" y="166"/>
      <point x="956" y="272"/>
      <point x="964" y="370" type="curve"/>
      <point x="597" y="559" type="line" smooth="yes"/>
      <point x="556" y="581"/>
      <point x="469" y="616"/>
      <point x="426" y="630" type="curve"/>
      <point x="426" y="646" type="line"/>
      <point x="469" y="660"/>
      <point x="556" y="696"/>
      <point x="597" y="718" type="curve" smooth="yes"/>
      <point x="964" y="906" type="line"/>
      <point x="960" y="1004"/>
      <point x="901" y="1105"/>
    </contour>
  </outline>
</glyph>
<glyph name="equal" format="2">
  <advance width="1080"/>
  <unicode hex="003D"/>
  <outline>
    <contour>
      <point x="115" y="287" type="curve"/>
      <point x="965" y="287" type="line"/>
      <point x="976" y="329"/>
      <point x="978" y="384"/>
      <point x="978" y="412" type="curve" smooth="yes"/>
      <point x="978" y="440"/>
      <point x="976" y="494"/>
      <point x="965" y="537" type="curve"/>
      <point x="115" y="537" type="line"/>
      <point x="104" y="494"/>
      <point x="102" y="440"/>
      <point x="102" y="412" type="curve" smooth="yes"/>
      <point x="102" y="384"/>
      <point x="104" y="329"/>
    </contour>
    <contour>
      <point x="115" y="744" type="curve"/>
      <point x="965" y="744" type="line"/>
      <point x="976" y="786"/>
      <point x="978" y="841"/>
      <point x="978" y="869" type="curve" smooth="yes"/>
      <point x="978" y="897"/>
      <point x="976" y="952"/>
      <point x="965" y="994" type="curve"/>
      <point x="115" y="994" type="line"/>
      <point x="104" y="952"/>
      <point x="102" y="897"/>
      <point x="102" y="869" type="curve" smooth="yes"/>
      <point x="102" y="841"/>
      <point x="104" y="786"/>
    </contour>
  </outline>
</glyph>
<glyph name="greater" format="2">
  <advance width="1078"/>
  <unicode hex="003E"/>
  <outline>
    <contour>
      <point x="256" y="130" type="curve"/>
      <point x="967" y="521" type="line"/>
      <point x="986" y="592"/>
      <point x="984" y="690"/>
      <point x="967" y="757" type="curve"/>
      <point x="258" y="1151" type="line"/>
      <point x="184" y="1110"/>
      <point x="123" y="1004"/>
      <point x="115" y="906" type="curve"/>
      <point x="482" y="718" type="line" smooth="yes"/>
      <point x="524" y="696"/>
      <point x="610" y="660"/>
      <point x="653" y="646" type="curve"/>
      <point x="653" y="631" type="line"/>
      <point x="610" y="617"/>
      <point x="524" y="581"/>
      <point x="482" y="559" type="curve" smooth="yes"/>
      <point x="115" y="370" type="line"/>
      <point x="119" y="273"/>
      <point x="179" y="172"/>
    </contour>
  </outline>
</glyph>
<glyph name="question" format="2">
  <advance width="841"/>
  <unicode hex="003F"/>
  <outline>
    <contour>
      <point x="3" y="1281" type="curve"/>
      <point x="7" y="1202"/>
      <point x="57" y="1103"/>
      <point x="115" y="1059" type="curve"/>
      <point x="185" y="1097"/>
      <point x="263" y="1129"/>
      <point x="344" y="1129" type="curve" smooth="yes"/>
      <point x="449" y="1129"/>
      <point x="502" y="1077"/>
      <point x="502" y="998" type="curve" smooth="yes"/>
      <point x="502" y="909"/>
      <point x="419" y="849"/>
      <point x="309" y="798" type="curve" smooth="yes"/>
      <point x="199" y="749" type="line"/>
      <point x="174" y="718" type="line"/>
      <point x="191" y="420" type="line"/>
      <point x="229" y="408"/>
      <point x="275" y="404"/>
      <point x="312" y="404" type="curve" smooth="yes"/>
      <point x="350" y="404"/>
      <point x="390" y="408"/>
      <point x="426" y="420" type="curve"/>
      <point x="446" y="573" type="line"/>
      <point x="566" y="636" type="line" smooth="yes"/>
      <point x="716" y="714"/>
      <point x="828" y="833"/>
      <point x="828" y="1033" type="curve" smooth="yes"/>
      <point x="828" y="1244"/>
      <point x="686" y="1397"/>
      <point x="414" y="1397" type="curve" smooth="yes"/>
      <point x="257" y="1397"/>
      <point x="114" y="1348"/>
    </contour>
    <contour>
      <point x="312" y="272" type="curve" smooth="yes"/>
      <point x="257" y="272"/>
      <point x="201" y="260"/>
      <point x="163" y="239" type="curve"/>
      <point x="149" y="214"/>
      <point x="141" y="158"/>
      <point x="141" y="121" type="curve" smooth="yes"/>
      <point x="141" y="84"/>
      <point x="149" y="29"/>
      <point x="163" y="4" type="curve"/>
      <point x="201" y="-17"/>
      <point x="257" y="-29"/>
      <point x="312" y="-29" type="curve" smooth="yes"/>
      <point x="366" y="-29"/>
      <point x="422" y="-17"/>
      <point x="459" y="4" type="curve"/>
      <point x="474" y="29"/>
      <point x="482" y="84"/>
      <point x="482" y="121" type="curve" smooth="yes"/>
      <point x="482" y="158"/>
      <point x="474" y="214"/>
      <point x="459" y="239" type="curve"/>
      <point x="422" y="260"/>
      <point x="366" y="272"/>
    </contour>
  </outline>
</glyph>
<glyph name="at" format="2">
  <advance width="1959"/>
  <unicode hex="0040"/>
  <outline>
    <contour>
      <point x="1391" y="328" type="curve" smooth="yes"/>
      <point x="1391" y="822" type="line"/>
      <point x="1314" y="900"/>
      <point x="1162" y="973"/>
      <point x="1006" y="973" type="curve" smooth="yes"/>
      <point x="728" y="973"/>
      <point x="575" y="760"/>
      <point x="575" y="454" type="curve" smooth="yes"/>
      <point x="575" y="184"/>
      <point x="686" y="-6"/>
      <point x="902" y="-6" type="curve" smooth="yes"/>
      <point x="1067" y="-6"/>
      <point x="1224" y="140"/>
      <point x="1275" y="254" type="curve"/>
      <point x="1168" y="391" type="line"/>
      <point x="1132" y="306"/>
      <point x="1048" y="226"/>
      <point x="974" y="226" type="curve" smooth="yes"/>
      <point x="896" y="226"/>
      <point x="873" y="302"/>
      <point x="873" y="469" type="curve" smooth="yes"/>
      <point x="873" y="626"/>
      <point x="897" y="756"/>
      <point x="1006" y="756" type="curve" smooth="yes"/>
      <point x="1045" y="756"/>
      <point x="1073" y="746"/>
      <point x="1102" y="722" type="curve"/>
      <point x="1102" y="319" type="line" smooth="yes"/>
      <point x="1102" y="144"/>
      <point x="1245" y="1"/>
      <point x="1451" y="1" type="curve" smooth="yes"/>
      <point x="1666" y="1"/>
      <point x="1896" y="176"/>
      <point x="1896" y="592" type="curve" smooth="yes"/>
      <point x="1896" y="1091"/>
      <point x="1514" y="1372"/>
      <point x="1012" y="1372" type="curve" smooth="yes"/>
      <point x="473" y="1372"/>
      <point x="77" y="987"/>
      <point x="77" y="443" type="curve" smooth="yes"/>
      <point x="77" y="-143"/>
      <point x="429" y="-406"/>
      <point x="922" y="-406" type="curve" smooth="yes"/>
      <point x="1086" y="-406"/>
      <point x="1289" y="-361"/>
      <point x="1415" y="-305" type="curve"/>
      <point x="1415" y="-238"/>
      <point x="1390" y="-150"/>
      <point x="1338" y="-93" type="curve"/>
      <point x="1213" y="-141"/>
      <point x="1080" y="-169"/>
      <point x="946" y="-169" type="curve" smooth="yes"/>
      <point x="602" y="-169"/>
      <point x="388" y="26"/>
      <point x="388" y="443" type="curve" smooth="yes"/>
      <point x="388" y="854"/>
      <point x="635" y="1142"/>
      <point x="1012" y="1142" type="curve" smooth="yes"/>
      <point x="1360" y="1142"/>
      <point x="1589" y="939"/>
      <point x="1589" y="600" type="curve" smooth="yes"/>
      <point x="1589" y="317"/>
      <point x="1527" y="227"/>
      <point x="1452" y="227" type="curve" smooth="yes"/>
      <point x="1408" y="227"/>
      <point x="1391" y="256"/>
    </contour>
  </outline>
</glyph>
<glyph name="A" format="2">
  <advance width="1276"/>
  <unicode hex="0041"/>
  <anchor x="644" y="0" name="bottom"/>
  <anchor x="1259" y="21" name="ogonek"/>
  <anchor x="644" y="1464" name="top"/>
  <outline>
    <contour>
      <point x="459" y="1366" type="curve"/>
      <point x="17" y="25" type="line"/>
      <point x="29" y="8" type="line"/>
      <point x="65" y="-6"/>
      <point x="135" y="-14"/>
      <point x="183" y="-14" type="curve" smooth="yes"/>
      <point x="233" y="-14"/>
      <point x="279" y="-12"/>
      <point x="319" y="-2" type="curve"/>
      <point x="523" y="693" type="line" smooth="yes"/>
      <point x="554" y="802"/>
      <point x="600" y="963"/>
      <point x="620" y="1074" type="curve"/>
      <point x="632" y="1074" type="line"/>
      <point x="666" y="942"/>
      <point x="711" y="775"/>
      <point x="742" y="663" type="curve" smooth="yes"/>
      <point x="885" y="156" type="line" smooth="yes"/>
      <point x="923" y="19"/>
      <point x="974" y="-18"/>
      <point x="1076" y="-18" type="curve" smooth="yes"/>
      <point x="1136" y="-18"/>
      <point x="1215" y="-4"/>
      <point x="1259" y="21" type="curve"/>
      <point x="829" y="1364" type="line"/>
      <point x="778" y="1374"/>
      <point x="695" y="1378"/>
      <point x="644" y="1378" type="curve" smooth="yes"/>
      <point x="590" y="1378"/>
      <point x="510" y="1374"/>
    </contour>
    <contour>
      <point x="483" y="286" type="curve" smooth="yes"/>
      <point x="768" y="286" type="line" smooth="yes"/>
      <point x="796" y="286"/>
      <point x="842" y="288"/>
      <point x="870" y="288" type="curve" smooth="yes"/>
      <point x="1039" y="288" type="line"/>
      <point x="958" y="537" type="line"/>
      <point x="805" y="537" type="line" smooth="yes"/>
      <point x="776" y="537"/>
      <point x="733" y="539"/>
      <point x="704" y="539" type="curve" smooth="yes"/>
      <point x="558" y="539" type="line" smooth="yes"/>
      <point x="530" y="539"/>
      <point x="486" y="537"/>
      <point x="458" y="537" type="curve" smooth="yes"/>
      <point x="310" y="537" type="line"/>
      <point x="213" y="288" type="line"/>
      <point x="381" y="288" type="line" smooth="yes"/>
      <point x="410" y="288"/>
      <point x="455" y="286"/>
    </contour>
  </outline>
</glyph>
<glyph name="B" format="2">
  <advance width="1229"/>
  <unicode hex="0042"/>
  <anchor x="597" y="0" name="bottom"/>
  <anchor x="580" y="1464" name="top"/>
  <outline>
    <contour>
      <point x="166" y="1370" type="curve"/>
      <point x="152" y="1356" type="line"/>
      <point x="152" y="10" type="line"/>
      <point x="166" y="-4" type="line"/>
      <point x="337" y="-8"/>
      <point x="504" y="-12"/>
      <point x="659" y="-12" type="curve" smooth="yes"/>
      <point x="964" y="-12"/>
      <point x="1159" y="113"/>
      <point x="1159" y="393" type="curve" smooth="yes"/>
      <point x="1159" y="579"/>
      <point x="1013" y="744"/>
      <point x="851" y="753" type="curve"/>
      <point x="851" y="721" type="line"/>
      <point x="984" y="737"/>
      <point x="1095" y="867"/>
      <point x="1095" y="1014" type="curve" smooth="yes"/>
      <point x="1095" y="1266"/>
      <point x="906" y="1378"/>
      <point x="627" y="1378" type="curve" smooth="yes"/>
      <point x="485" y="1378"/>
      <point x="326" y="1374"/>
    </contour>
    <contour>
      <point x="467" y="212" type="curve"/>
      <point x="467" y="1153" type="line"/>
      <point x="517" y="1151"/>
      <point x="576" y="1151"/>
      <point x="611" y="1151" type="curve" smooth="yes"/>
      <point x="745" y="1151"/>
      <point x="783" y="1071"/>
      <point x="783" y="992" type="curve" smooth="yes"/>
      <point x="783" y="914"/>
      <point x="746" y="830"/>
      <point x="611" y="830" type="curve" smooth="yes"/>
      <point x="347" y="830" type="line"/>
      <point x="347" y="603" type="line"/>
      <point x="634" y="603" type="line" smooth="yes"/>
      <point x="794" y="603"/>
      <point x="838" y="494"/>
      <point x="838" y="406" type="curve" smooth="yes"/>
      <point x="838" y="322"/>
      <point x="799" y="214"/>
      <point x="636" y="214" type="curve" smooth="yes"/>
      <point x="593" y="214"/>
      <point x="532" y="213"/>
    </contour>
  </outline>
</glyph>
<glyph name="C" format="2">
  <advance width="1218"/>
  <unicode hex="0043"/>
  <anchor x="654" y="0" name="bottom"/>
  <anchor x="653" y="1466" name="top"/>
  <outline>
    <contour>
      <point x="866" y="822" type="curve"/>
      <point x="905" y="812"/>
      <point x="941" y="805"/>
      <point x="987" y="805" type="curve" smooth="yes"/>
      <point x="1101" y="805"/>
      <point x="1170" y="856"/>
      <point x="1170" y="981" type="curve" smooth="yes"/>
      <point x="1170" y="1216"/>
      <point x="967" y="1397"/>
      <point x="657" y="1397" type="curve" smooth="yes"/>
      <point x="338" y="1397"/>
      <point x="72" y="1181"/>
      <point x="72" y="678" type="curve" smooth="yes"/>
      <point x="72" y="334"/>
      <point x="203" y="-30"/>
      <point x="623" y="-30" type="curve" smooth="yes"/>
      <point x="845" y="-30"/>
      <point x="1053" y="69"/>
      <point x="1169" y="183" type="curve"/>
      <point x="1155" y="257"/>
      <point x="1084" y="347"/>
      <point x="1022" y="389" type="curve"/>
      <point x="929" y="320"/>
      <point x="820" y="249"/>
      <point x="682" y="249" type="curve" smooth="yes"/>
      <point x="507" y="249"/>
      <point x="408" y="391"/>
      <point x="408" y="676" type="curve" smooth="yes"/>
      <point x="408" y="979"/>
      <point x="474" y="1143"/>
      <point x="646" y="1143" type="curve" smooth="yes"/>
      <point x="823" y="1143"/>
      <point x="870" y="988"/>
    </contour>
  </outline>
</glyph>
<glyph name="D" format="2">
  <advance width="1335"/>
  <unicode hex="0044"/>
  <guideline x="641" y="112" angle="90.0"/>
  <anchor x="631" y="0" name="bottom"/>
  <anchor x="641" y="1464" name="top"/>
  <outline>
    <contour>
      <point x="1261" y="684" type="curve" smooth="yes"/>
      <point x="1261" y="916"/>
      <point x="1225" y="1129"/>
      <point x="1036" y="1277" type="curve" smooth="yes"/>
      <point x="945" y="1349"/>
      <point x="780" y="1378"/>
      <point x="669" y="1378" type="curve" smooth="yes"/>
      <point x="496" y="1378"/>
      <point x="338" y="1376"/>
      <point x="166" y="1370" type="curve"/>
      <point x="152" y="1356" type="line"/>
      <point x="152" y="10" type="line"/>
      <point x="166" y="-4" type="line"/>
      <point x="340" y="-8"/>
      <point x="496" y="-12"/>
      <point x="669" y="-12" type="curve" smooth="yes"/>
      <point x="780" y="-12"/>
      <point x="944" y="16"/>
      <point x="1036" y="88" type="curve" smooth="yes"/>
      <point x="1227" y="236"/>
      <point x="1261" y="450"/>
    </contour>
    <contour>
      <point x="932" y="684" type="curve" smooth="yes"/>
      <point x="932" y="481"/>
      <point x="898" y="237"/>
      <point x="669" y="237" type="curve" smooth="yes"/>
      <point x="601" y="237"/>
      <point x="542" y="237"/>
      <point x="471" y="236" type="curve"/>
      <point x="471" y="1131" type="line"/>
      <point x="542" y="1129"/>
      <point x="601" y="1129"/>
      <point x="669" y="1129" type="curve" smooth="yes"/>
      <point x="898" y="1129"/>
      <point x="932" y="887"/>
    </contour>
  </outline>
</glyph>
<glyph name="E" format="2">
  <advance width="1146"/>
  <unicode hex="0045"/>
  <anchor x="621" y="0" name="bottom"/>
  <anchor x="929" y="0" name="ogonek"/>
  <anchor x="598" y="1464" name="top"/>
  <outline>
    <contour>
      <point x="150" y="1352" type="line"/>
      <point x="150" y="181" type="line" smooth="yes"/>
      <point x="150" y="65"/>
      <point x="219" y="-6"/>
      <point x="334" y="-6" type="curve" smooth="yes"/>
      <point x="465" y="-6" type="line"/>
      <point x="465" y="260" type="line" smooth="yes"/>
      <point x="465" y="314"/>
      <point x="467" y="352"/>
      <point x="467" y="404" type="curve" smooth="yes"/>
      <point x="467" y="954" type="line" smooth="yes"/>
      <point x="467" y="1008"/>
      <point x="465" y="1047"/>
      <point x="465" y="1103" type="curve" smooth="yes"/>
      <point x="465" y="1366" type="line"/>
      <point x="164" y="1366" type="line"/>
    </contour>
    <contour>
      <point x="907" y="817" type="curve"/>
      <point x="602" y="817" type="line" smooth="yes"/>
      <point x="552" y="817"/>
      <point x="420" y="815"/>
      <point x="356" y="813" type="curve"/>
      <point x="356" y="560" type="line"/>
      <point x="420" y="558"/>
      <point x="552" y="556"/>
      <point x="602" y="556" type="curve" smooth="yes"/>
      <point x="907" y="556" type="line"/>
      <point x="921" y="597"/>
      <point x="926" y="650"/>
      <point x="926" y="686" type="curve" smooth="yes"/>
      <point x="926" y="721"/>
      <point x="921" y="778"/>
    </contour>
    <contour>
      <point x="1026" y="1366" type="curve"/>
      <point x="356" y="1366" type="line"/>
      <point x="356" y="1102" type="line"/>
      <point x="420" y="1100"/>
      <point x="552" y="1098"/>
      <point x="602" y="1098" type="curve" smooth="yes"/>
      <point x="1011" y="1098" type="line"/>
      <point x="1028" y="1146"/>
      <point x="1037" y="1204"/>
      <point x="1037" y="1240" type="curve" smooth="yes"/>
      <point x="1037" y="1276"/>
      <point x="1036" y="1318"/>
    </contour>
    <contour>
      <point x="1076" y="262" type="curve"/>
      <point x="613" y="262" type="line" smooth="yes"/>
      <point x="515" y="262"/>
      <point x="443" y="256"/>
      <point x="356" y="252" type="curve"/>
      <point x="356" y="-6" type="line"/>
      <point x="866" y="-6" type="line" smooth="yes"/>
      <point x="1036" y="-6"/>
      <point x="1076" y="86"/>
    </contour>
  </outline>
</glyph>
<glyph name="F" format="2">
  <advance width="1070"/>
  <unicode hex="0046"/>
  <anchor x="591" y="1464" name="top"/>
  <outline>
    <contour>
      <point x="473" y="0" type="curve"/>
      <point x="473" y="938" type="line" smooth="yes"/>
      <point x="473" y="1043"/>
      <point x="471" y="1160"/>
      <point x="471" y="1271" type="curve" smooth="yes"/>
      <point x="471" y="1366" type="line"/>
      <point x="166" y="1366" type="line"/>
      <point x="152" y="1354" type="line"/>
      <point x="152" y="0" type="line"/>
      <point x="207" y="-10"/>
      <point x="272" y="-12"/>
      <point x="316" y="-12" type="curve" smooth="yes"/>
      <point x="361" y="-12"/>
      <point x="418" y="-10"/>
    </contour>
    <contour>
      <point x="1021" y="1366" type="curve"/>
      <point x="340" y="1366" type="line"/>
      <point x="340" y="1097" type="line"/>
      <point x="428" y="1097"/>
      <point x="514" y="1095"/>
      <point x="614" y="1095" type="curve" smooth="yes"/>
      <point x="864" y="1095" type="line" smooth="yes"/>
      <point x="979" y="1095"/>
      <point x="1035" y="1139"/>
      <point x="1035" y="1243" type="curve" smooth="yes"/>
      <point x="1035" y="1280"/>
      <point x="1031" y="1331"/>
    </contour>
    <contour>
      <point x="899" y="811" type="curve"/>
      <point x="511" y="811" type="line" smooth="yes"/>
      <point x="454" y="811"/>
      <point x="390" y="809"/>
      <point x="351" y="807" type="curve"/>
      <point x="351" y="553" type="line"/>
      <point x="390" y="551"/>
      <point x="454" y="549"/>
      <point x="511" y="549" type="curve" smooth="yes"/>
      <point x="899" y="549" type="line"/>
      <point x="911" y="588"/>
      <point x="916" y="645"/>
      <point x="916" y="681" type="curve" smooth="yes"/>
      <point x="916" y="715"/>
      <point x="911" y="774"/>
    </contour>
  </outline>
</glyph>
<glyph name="G" format="2">
  <advance width="1309"/>
  <unicode hex="0047"/>
  <anchor x="688" y="0" name="bottom"/>
  <anchor x="700" y="1464" name="top"/>
  <outline>
    <contour>
      <point x="1202" y="1253" type="curve"/>
      <point x="1066" y="1338"/>
      <point x="893" y="1396"/>
      <point x="710" y="1396" type="curve" smooth="yes"/>
      <point x="385" y="1396"/>
      <point x="72" y="1159"/>
      <point x="72" y="674" type="curve" smooth="yes"/>
      <point x="72" y="242"/>
      <point x="267" y="-30"/>
      <point x="678" y="-30" type="curve" smooth="yes"/>
      <point x="897" y="-30"/>
      <point x="1089" y="14"/>
      <point x="1205" y="53" type="curve"/>
      <point x="1038" y="272" type="line"/>
      <point x="970" y="253"/>
      <point x="863" y="222"/>
      <point x="733" y="222" type="curve" smooth="yes"/>
      <point x="518" y="222"/>
      <point x="399" y="360"/>
      <point x="399" y="672" type="curve" smooth="yes"/>
      <point x="399" y="993"/>
      <point x="527" y="1131"/>
      <point x="729" y="1131" type="curve" smooth="yes"/>
      <point x="841" y="1131"/>
      <point x="962" y="1088"/>
      <point x="1059" y="1023" type="curve"/>
      <point x="1124" y="1065"/>
      <point x="1195" y="1162"/>
    </contour>
    <contour>
      <point x="905" y="371" type="curve" smooth="yes"/>
      <point x="905" y="49" type="line"/>
      <point x="1205" y="53" type="line"/>
      <point x="1205" y="578" type="line"/>
      <point x="934" y="668" type="line"/>
      <point x="909" y="578"/>
      <point x="905" y="465"/>
    </contour>
    <contour>
      <point x="994" y="776" type="curve" smooth="yes"/>
      <point x="681" y="776" type="line"/>
      <point x="667" y="738"/>
      <point x="658" y="686"/>
      <point x="658" y="644" type="curve" smooth="yes"/>
      <point x="658" y="543"/>
      <point x="708" y="510"/>
      <point x="811" y="510" type="curve" smooth="yes"/>
      <point x="1205" y="510" type="line"/>
      <point x="1205" y="578" type="line" smooth="yes"/>
      <point x="1205" y="694"/>
      <point x="1153" y="776"/>
    </contour>
  </outline>
</glyph>
<glyph name="H" format="2">
  <advance width="1373"/>
  <unicode hex="0048"/>
  <anchor x="686" y="0" name="bottom"/>
  <anchor x="686" y="1466" name="top"/>
  <outline>
    <contour>
      <point x="571" y="570" type="curve" smooth="yes"/>
      <point x="802" y="570" type="line"/>
      <point x="830" y="570"/>
      <point x="873" y="572"/>
      <point x="902" y="572" type="curve" smooth="yes"/>
      <point x="965" y="572"/>
      <point x="1031" y="570"/>
      <point x="1094" y="570" type="curve"/>
      <point x="1094" y="838" type="line"/>
      <point x="1031" y="838"/>
      <point x="965" y="836"/>
      <point x="902" y="836" type="curve" smooth="yes"/>
      <point x="873" y="836"/>
      <point x="830" y="838"/>
      <point x="802" y="838" type="curve" smooth="yes"/>
      <point x="571" y="838" type="line" smooth="yes"/>
      <point x="542" y="838"/>
      <point x="500" y="836"/>
      <point x="471" y="836" type="curve" smooth="yes"/>
      <point x="408" y="836"/>
      <point x="341" y="838"/>
      <point x="278" y="838" type="curve"/>
      <point x="278" y="570" type="line"/>
      <point x="341" y="570"/>
      <point x="408" y="572"/>
      <point x="471" y="572" type="curve" smooth="yes"/>
      <point x="500" y="572"/>
      <point x="542" y="570"/>
    </contour>
    <contour>
      <point x="473" y="0" type="curve"/>
      <point x="473" y="424" type="line" smooth="yes"/>
      <point x="473" y="480"/>
      <point x="471" y="518"/>
      <point x="471" y="572" type="curve" smooth="yes"/>
      <point x="471" y="836" type="line" smooth="yes"/>
      <point x="471" y="890"/>
      <point x="473" y="928"/>
      <point x="473" y="984" type="curve" smooth="yes"/>
      <point x="473" y="1366" type="line"/>
      <point x="420" y="1376"/>
      <point x="355" y="1378"/>
      <point x="312" y="1378" type="curve" smooth="yes"/>
      <point x="273" y="1378"/>
      <point x="203" y="1376"/>
      <point x="152" y="1366" type="curve"/>
      <point x="152" y="0" type="line"/>
      <point x="203" y="-10"/>
      <point x="273" y="-12"/>
      <point x="312" y="-12" type="curve" smooth="yes"/>
      <point x="355" y="-12"/>
      <point x="420" y="-10"/>
    </contour>
    <contour>
      <point x="900" y="424" type="curve" smooth="yes"/>
      <point x="900" y="0" type="line"/>
      <point x="955" y="-10"/>
      <point x="1019" y="-12"/>
      <point x="1064" y="-12" type="curve" smooth="yes"/>
      <point x="1108" y="-12"/>
      <point x="1166" y="-10"/>
      <point x="1220" y="0" type="curve"/>
      <point x="1220" y="1366" type="line"/>
      <point x="1169" y="1376"/>
      <point x="1099" y="1378"/>
      <point x="1060" y="1378" type="curve" smooth="yes"/>
      <point x="1017" y="1378"/>
      <point x="953" y="1376"/>
      <point x="900" y="1366" type="curve"/>
      <point x="900" y="984" type="line" smooth="yes"/>
      <point x="900" y="928"/>
      <point x="902" y="890"/>
      <point x="902" y="836" type="curve" smooth="yes"/>
      <point x="902" y="572" type="line" smooth="yes"/>
      <point x="902" y="518"/>
      <point x="900" y="480"/>
    </contour>
  </outline>
</glyph>
<glyph name="I" format="2">
  <advance width="634"/>
  <unicode hex="0049"/>
  <anchor x="317" y="0" name="bottom"/>
  <anchor x="477" y="0" name="ogonek"/>
  <anchor x="317" y="1466" name="top"/>
  <outline>
    <contour>
      <point x="156" y="1366" type="curve"/>
      <point x="156" y="0" type="line"/>
      <point x="208" y="-10"/>
      <point x="278" y="-12"/>
      <point x="317" y="-12" type="curve" smooth="yes"/>
      <point x="359" y="-12"/>
      <point x="424" y="-10"/>
      <point x="477" y="0" type="curve"/>
      <point x="477" y="1366" type="line"/>
      <point x="424" y="1376"/>
      <point x="359" y="1378"/>
      <point x="317" y="1378" type="curve" smooth="yes"/>
      <point x="278" y="1378"/>
      <point x="208" y="1376"/>
    </contour>
  </outline>
</glyph>
<glyph name="J" format="2">
  <advance width="942"/>
  <unicode hex="004A"/>
  <anchor x="650" y="1464" name="top"/>
  <outline>
    <contour>
      <point x="130" y="304" type="curve"/>
      <point x="72" y="240"/>
      <point x="32" y="148"/>
      <point x="20" y="68" type="curve"/>
      <point x="115" y="8"/>
      <point x="240" y="-20"/>
      <point x="346" y="-20" type="curve" smooth="yes"/>
      <point x="722" y="-20"/>
      <point x="810" y="209"/>
      <point x="810" y="524" type="curve" smooth="yes"/>
      <point x="810" y="1366" type="line"/>
      <point x="757" y="1376"/>
      <point x="692" y="1378"/>
      <point x="650" y="1378" type="curve" smooth="yes"/>
      <point x="611" y="1378"/>
      <point x="541" y="1376"/>
      <point x="489" y="1366" type="curve"/>
      <point x="489" y="494" type="line" smooth="yes"/>
      <point x="489" y="336"/>
      <point x="455" y="244"/>
      <point x="310" y="244" type="curve" smooth="yes"/>
      <point x="247" y="244"/>
      <point x="186" y="270"/>
    </contour>
  </outline>
</glyph>
<glyph name="K" format="2">
  <advance width="1241"/>
  <unicode hex="004B"/>
  <anchor x="658" y="0" name="bottom"/>
  <anchor x="650" y="1464" name="top"/>
  <outline>
    <contour>
      <point x="152" y="1366" type="curve"/>
      <point x="152" y="0" type="line"/>
      <point x="203" y="-10"/>
      <point x="273" y="-12"/>
      <point x="312" y="-12" type="curve" smooth="yes"/>
      <point x="355" y="-12"/>
      <point x="420" y="-10"/>
      <point x="473" y="0" type="curve"/>
      <point x="473" y="1366" type="line"/>
      <point x="420" y="1376"/>
      <point x="355" y="1378"/>
      <point x="312" y="1378" type="curve" smooth="yes"/>
      <point x="273" y="1378"/>
      <point x="203" y="1376"/>
    </contour>
    <contour>
      <point x="1228" y="79" type="curve"/>
      <point x="1182" y="121"/>
      <point x="1163" y="150"/>
      <point x="1124" y="267" type="curve" smooth="yes"/>
      <point x="1042" y="514" type="line" smooth="yes"/>
      <point x="999" y="647"/>
      <point x="934" y="753"/>
      <point x="708" y="753" type="curve" smooth="yes"/>
      <point x="310" y="753" type="line"/>
      <point x="310" y="557" type="line"/>
      <point x="411" y="566"/>
      <point x="500" y="574"/>
      <point x="560" y="574" type="curve" smooth="yes"/>
      <point x="655" y="574"/>
      <point x="707" y="525"/>
      <point x="747" y="399" type="curve" smooth="yes"/>
      <point x="822" y="165" type="line" smooth="yes"/>
      <point x="860" y="42"/>
      <point x="900" y="-17"/>
      <point x="1016" y="-17" type="curve" smooth="yes"/>
      <point x="1101" y="-17"/>
      <point x="1186" y="17"/>
    </contour>
    <contour>
      <point x="803" y="1267" type="curve" smooth="yes"/>
      <point x="614" y="908" type="line" smooth="yes"/>
      <point x="586" y="854"/>
      <point x="574" y="840"/>
      <point x="523" y="840" type="curve" smooth="yes"/>
      <point x="453" y="839"/>
      <point x="381" y="837"/>
      <point x="310" y="836" type="curve"/>
      <point x="310" y="656" type="line"/>
      <point x="553" y="656" type="line" smooth="yes"/>
      <point x="750" y="656"/>
      <point x="859" y="743"/>
      <point x="935" y="887" type="curve" smooth="yes"/>
      <point x="1177" y="1346" type="line"/>
      <point x="1160" y="1368" type="line"/>
      <point x="1097" y="1374"/>
      <point x="1020" y="1377"/>
      <point x="968" y="1377" type="curve" smooth="yes"/>
      <point x="875" y="1377"/>
      <point x="842" y="1342"/>
    </contour>
  </outline>
</glyph>
<glyph name="L" format="2">
  <advance width="1045"/>
  <unicode hex="004C"/>
  <anchor x="571" y="0" name="bottom"/>
  <anchor x="1045" y="786" name="periodcentered"/>
  <anchor x="309" y="1455" name="top"/>
  <anchor x="512" y="896" name="topright"/>
  <outline>
    <contour>
      <point x="471" y="-6" type="line"/>
      <point x="471" y="1177" type="line" smooth="yes"/>
      <point x="471" y="1320"/>
      <point x="404" y="1379"/>
      <point x="281" y="1379" type="curve" smooth="yes"/>
      <point x="164" y="1379" type="line"/>
      <point x="150" y="1366" type="line"/>
      <point x="150" y="181" type="line" smooth="yes"/>
      <point x="150" y="65"/>
      <point x="221" y="-6"/>
      <point x="336" y="-6" type="curve" smooth="yes"/>
    </contour>
    <contour>
      <point x="1005" y="270" type="curve"/>
      <point x="658" y="270" type="line" smooth="yes"/>
      <point x="516" y="270"/>
      <point x="339" y="256"/>
      <point x="164" y="226" type="curve"/>
      <point x="336" y="-6" type="line"/>
      <point x="787" y="-6" type="line" smooth="yes"/>
      <point x="946" y="-6"/>
      <point x="1005" y="67"/>
    </contour>
  </outline>
</glyph>
<glyph name="M" format="2">
  <advance width="1667"/>
  <unicode hex="004D"/>
  <anchor x="833" y="0" name="bottom"/>
  <anchor x="834" y="1464" name="top"/>
  <outline>
    <contour>
      <point x="215" y="1364" type="curve"/>
      <point x="109" y="4" type="line"/>
      <point x="155" y="-8"/>
      <point x="220" y="-12"/>
      <point x="271" y="-12" type="curve" smooth="yes"/>
      <point x="319" y="-12"/>
      <point x="365" y="-10"/>
      <point x="411" y="-2" type="curve"/>
      <point x="442" y="555" type="line" smooth="yes"/>
      <point x="450" y="696"/>
      <point x="457" y="885"/>
      <point x="458" y="1015" type="curve"/>
      <point x="471" y="1015" type="line"/>
      <point x="668" y="201" type="line"/>
      <point x="716" y="193"/>
      <point x="792" y="190"/>
      <point x="832" y="190" type="curve" smooth="yes"/>
      <point x="877" y="190"/>
      <point x="950" y="193"/>
      <point x="998" y="201" type="curve"/>
      <point x="1195" y="1015" type="line"/>
      <point x="1209" y="1015" type="line"/>
      <point x="1209" y="885"/>
      <point x="1217" y="696"/>
      <point x="1225" y="555" type="curve" smooth="yes"/>
      <point x="1255" y="-2" type="line"/>
      <point x="1301" y="-10"/>
      <point x="1347" y="-12"/>
      <point x="1395" y="-12" type="curve" smooth="yes"/>
      <point x="1446" y="-12"/>
      <point x="1511" y="-8"/>
      <point x="1557" y="4" type="curve"/>
      <point x="1451" y="1364" type="line"/>
      <point x="1384" y="1376"/>
      <point x="1294" y="1379"/>
      <point x="1235" y="1379" type="curve" smooth="yes"/>
      <point x="1177" y="1379"/>
      <point x="1101" y="1376"/>
      <point x="1033" y="1364" type="curve"/>
      <point x="915" y="875" type="line" smooth="yes"/>
      <point x="904" y="827"/>
      <point x="857" y="613"/>
      <point x="840" y="511" type="curve"/>
      <point x="826" y="511" type="line"/>
      <point x="810" y="613"/>
      <point x="763" y="827"/>
      <point x="752" y="875" type="curve" smooth="yes"/>
      <point x="634" y="1364" type="line"/>
      <point x="566" y="1376"/>
      <point x="490" y="1379"/>
      <point x="431" y="1379" type="curve" smooth="yes"/>
      <point x="373" y="1379"/>
      <point x="283" y="1376"/>
    </contour>
  </outline>
</glyph>
<glyph name="N" format="2">
  <advance width="1392"/>
  <unicode hex="004E"/>
  <anchor x="696" y="0" name="bottom"/>
  <anchor x="703" y="1464" name="top"/>
  <outline>
    <contour>
      <point x="152" y="1360" type="curve"/>
      <point x="152" y="0" type="line"/>
      <point x="202" y="-10"/>
      <point x="266" y="-12"/>
      <point x="305" y="-12" type="curve" smooth="yes"/>
      <point x="345" y="-12"/>
      <point x="398" y="-10"/>
      <point x="450" y="0" type="curve"/>
      <point x="450" y="398" type="line" smooth="yes"/>
      <point x="450" y="564"/>
      <point x="440" y="825"/>
      <point x="425" y="995" type="curve"/>
      <point x="446" y="1002" type="line"/>
      <point x="527" y="1366" type="line"/>
      <point x="457" y="1376"/>
      <point x="382" y="1378"/>
      <point x="341" y="1378" type="curve" smooth="yes"/>
      <point x="300" y="1378"/>
      <point x="202" y="1372"/>
    </contour>
    <contour>
      <point x="545" y="716" type="curve" smooth="yes"/>
      <point x="861" y="0" type="line"/>
      <point x="1122" y="173" type="line"/>
      <point x="960" y="348" type="line"/>
      <point x="931" y="422"/>
      <point x="885" y="534"/>
      <point x="835" y="652" type="curve" smooth="yes"/>
      <point x="527" y="1366" type="line"/>
      <point x="285" y="1170" type="line"/>
      <point x="433" y="999" type="line"/>
      <point x="460" y="922"/>
      <point x="500" y="819"/>
    </contour>
    <contour>
      <point x="1239" y="1366" type="line"/>
      <point x="1226" y="1379" type="line"/>
      <point x="1122" y="1379" type="line" smooth="yes"/>
      <point x="999" y="1379"/>
      <point x="943" y="1329"/>
      <point x="943" y="1186" type="curve" smooth="yes"/>
      <point x="943" y="942" type="line" smooth="yes"/>
      <point x="943" y="804"/>
      <point x="951" y="538"/>
      <point x="968" y="352" type="curve"/>
      <point x="945" y="345" type="line"/>
      <point x="861" y="0" type="line"/>
      <point x="931" y="-10"/>
      <point x="1005" y="-12"/>
      <point x="1046" y="-12" type="curve" smooth="yes"/>
      <point x="1088" y="-12"/>
      <point x="1188" y="-6"/>
      <point x="1239" y="6" type="curve"/>
    </contour>
  </outline>
</glyph>
<glyph name="O" format="2">
  <advance width="1333"/>
  <unicode hex="004F"/>
  <anchor x="667" y="0" name="bottom"/>
  <anchor x="874" y="1" name="ogonek"/>
  <anchor x="667" y="1464" name="top"/>
  <anchor x="1103" y="1337" name="topright"/>
  <outline>
    <contour>
      <point x="406" y="684" type="curve" smooth="yes"/>
      <point x="406" y="894"/>
      <point x="436" y="1150"/>
      <point x="667" y="1150" type="curve" smooth="yes"/>
      <point x="898" y="1150"/>
      <point x="927" y="894"/>
      <point x="927" y="684" type="curve" smooth="yes"/>
      <point x="927" y="474"/>
      <point x="898" y="216"/>
      <point x="667" y="216" type="curve" smooth="yes"/>
      <point x="436" y="216"/>
      <point x="406" y="474"/>
    </contour>
    <contour>
      <point x="72" y="684" type="curve" smooth="yes"/>
      <point x="72" y="258"/>
      <point x="260" y="-30"/>
      <point x="667" y="-30" type="curve" smooth="yes"/>
      <point x="1070" y="-30"/>
      <point x="1262" y="254"/>
      <point x="1262" y="684" type="curve" smooth="yes"/>
      <point x="1262" y="1109"/>
      <point x="1073" y="1396"/>
      <point x="667" y="1396" type="curve" smooth="yes"/>
      <point x="263" y="1396"/>
      <point x="72" y="1112"/>
    </contour>
  </outline>
</glyph>
<glyph name="P" format="2">
  <advance width="1178"/>
  <unicode hex="0050"/>
  <anchor x="600" y="1464" name="top"/>
  <outline>
    <contour>
      <point x="1120" y="902" type="curve" smooth="yes"/>
      <point x="1120" y="1226"/>
      <point x="914" y="1378"/>
      <point x="630" y="1378" type="curve" smooth="yes"/>
      <point x="479" y="1378"/>
      <point x="337" y="1374"/>
      <point x="166" y="1370" type="curve"/>
      <point x="152" y="1356" type="line"/>
      <point x="152" y="0" type="line"/>
      <point x="203" y="-10"/>
      <point x="273" y="-12"/>
      <point x="312" y="-12" type="curve" smooth="yes"/>
      <point x="355" y="-12"/>
      <point x="420" y="-10"/>
      <point x="473" y="0" type="curve"/>
      <point x="473" y="1134" type="line"/>
      <point x="527" y="1132"/>
      <point x="563" y="1132"/>
      <point x="603" y="1132" type="curve" smooth="yes"/>
      <point x="763" y="1132"/>
      <point x="793" y="996"/>
      <point x="793" y="902" type="curve" smooth="yes"/>
      <point x="793" y="806"/>
      <point x="763" y="671"/>
      <point x="603" y="671" type="curve" smooth="yes"/>
      <point x="563" y="671"/>
      <point x="391" y="666"/>
      <point x="337" y="662" type="curve"/>
      <point x="337" y="428" type="line"/>
      <point x="630" y="428" type="line" smooth="yes"/>
      <point x="914" y="428"/>
      <point x="1120" y="589"/>
    </contour>
  </outline>
</glyph>
<glyph name="Q" format="2">
  <advance width="1339"/>
  <unicode hex="0051"/>
  <outline>
    <contour>
      <point x="400" y="684" type="curve" smooth="yes"/>
      <point x="400" y="897"/>
      <point x="437" y="1150"/>
      <point x="669" y="1150" type="curve" smooth="yes"/>
      <point x="902" y="1150"/>
      <point x="936" y="897"/>
      <point x="936" y="684" type="curve" smooth="yes"/>
      <point x="936" y="473"/>
      <point x="902" y="216"/>
      <point x="669" y="216" type="curve" smooth="yes"/>
      <point x="437" y="216"/>
      <point x="400" y="473"/>
    </contour>
    <contour>
      <point x="72" y="684" type="curve" smooth="yes"/>
      <point x="72" y="266"/>
      <point x="260" y="-30"/>
      <point x="669" y="-30" type="curve" smooth="yes"/>
      <point x="736" y="-30"/>
      <point x="793" y="3"/>
      <point x="841" y="41" type="curve" smooth="yes"/>
      <point x="1142" y="42"/>
      <point x="1267" y="349"/>
      <point x="1267" y="682" type="curve" smooth="yes"/>
      <point x="1267" y="1102"/>
      <point x="1079" y="1396"/>
      <point x="669" y="1396" type="curve" smooth="yes"/>
      <point x="262" y="1396"/>
      <point x="72" y="1105"/>
    </contour>
    <contour>
      <point x="557" y="68" type="line"/>
      <point x="871" y="-209" type="line" smooth="yes"/>
      <point x="925" y="-257"/>
      <point x="991" y="-289"/>
      <point x="1084" y="-289" type="curve" smooth="yes"/>
      <point x="1191" y="-289"/>
      <point x="1284" y="-202"/>
      <point x="1286" y="-62" type="curve"/>
      <point x="1204" y="-61"/>
      <point x="1139" y="-41"/>
      <point x="1034" y="33" type="curve" smooth="yes"/>
      <point x="846" y="166" type="line"/>
    </contour>
  </outline>
</glyph>
<glyph name="R" format="2">
  <advance width="1230"/>
  <unicode hex="0052"/>
  <anchor x="650" y="0" name="bottom"/>
  <anchor x="604" y="1464" name="top"/>
  <outline>
    <contour>
      <point x="1132" y="943" type="curve" smooth="yes"/>
      <point x="1132" y="1246"/>
      <point x="923" y="1378"/>
      <point x="645" y="1378" type="curve" smooth="yes"/>
      <point x="493" y="1378"/>
      <point x="337" y="1374"/>
      <point x="166" y="1370" type="curve"/>
      <point x="152" y="1356" type="line"/>
      <point x="152" y="0" type="line"/>
      <point x="203" y="-10"/>
      <point x="272" y="-12"/>
      <point x="310" y="-12" type="curve" smooth="yes"/>
      <point x="353" y="-12"/>
      <point x="416" y="-10"/>
      <point x="469" y="0" type="curve"/>
      <point x="469" y="1138" type="line"/>
      <point x="527" y="1136"/>
      <point x="577" y="1136"/>
      <point x="618" y="1136" type="curve" smooth="yes"/>
      <point x="770" y="1136"/>
      <point x="806" y="1047"/>
      <point x="806" y="943" type="curve" smooth="yes"/>
      <point x="806" y="843"/>
      <point x="770" y="750"/>
      <point x="618" y="750" type="curve" smooth="yes"/>
      <point x="575" y="750"/>
      <point x="417" y="744"/>
      <point x="339" y="740" type="curve"/>
      <point x="339" y="501" type="line"/>
      <point x="552" y="501" type="line" smooth="yes"/>
      <point x="659" y="501"/>
      <point x="698" y="445"/>
      <point x="721" y="376" type="curve" smooth="yes"/>
      <point x="793" y="167" type="line" smooth="yes"/>
      <point x="836" y="44"/>
      <point x="874" y="-18"/>
      <point x="989" y="-18" type="curve" smooth="yes"/>
      <point x="1075" y="-18"/>
      <point x="1161" y="22"/>
      <point x="1202" y="76" type="curve"/>
      <point x="1158" y="110"/>
      <point x="1125" y="161"/>
      <point x="1103" y="224" type="curve" smooth="yes"/>
      <point x="1043" y="393" type="line" smooth="yes"/>
      <point x="1012" y="481"/>
      <point x="963" y="550"/>
      <point x="889" y="577" type="curve"/>
      <point x="1003" y="622"/>
      <point x="1132" y="750"/>
    </contour>
  </outline>
</glyph>
<glyph name="S" format="2">
  <advance width="1114"/>
  <unicode hex="0053"/>
  <anchor x="550" y="0" name="bottom"/>
  <anchor x="565" y="1464" name="top"/>
  <outline>
    <contour>
      <point x="30" y="119" type="curve"/>
      <point x="178" y="23"/>
      <point x="374" y="-30"/>
      <point x="536" y="-30" type="curve" smooth="yes"/>
      <point x="886" y="-30"/>
      <point x="1062" y="156"/>
      <point x="1062" y="399" type="curve" smooth="yes"/>
      <point x="1062" y="572"/>
      <point x="954" y="714"/>
      <point x="760" y="794" type="curve" smooth="yes"/>
      <point x="514" y="895" type="line" smooth="yes"/>
      <point x="426" y="932"/>
      <point x="397" y="970"/>
      <point x="397" y="1021" type="curve" smooth="yes"/>
      <point x="397" y="1074"/>
      <point x="441" y="1139"/>
      <point x="556" y="1139" type="curve" smooth="yes"/>
      <point x="664" y="1139"/>
      <point x="815" y="1090"/>
      <point x="917" y="1042" type="curve"/>
      <point x="979" y="1099"/>
      <point x="1020" y="1189"/>
      <point x="1025" y="1281" type="curve"/>
      <point x="921" y="1335"/>
      <point x="745" y="1396"/>
      <point x="556" y="1396" type="curve" smooth="yes"/>
      <point x="284" y="1396"/>
      <point x="69" y="1227"/>
      <point x="69" y="978" type="curve" smooth="yes"/>
      <point x="69" y="787"/>
      <point x="190" y="678"/>
      <point x="355" y="609" type="curve" smooth="yes"/>
      <point x="596" y="509" type="line" smooth="yes"/>
      <point x="708" y="462"/>
      <point x="722" y="402"/>
      <point x="722" y="359" type="curve" smooth="yes"/>
      <point x="722" y="295"/>
      <point x="675" y="227"/>
      <point x="559" y="227" type="curve" smooth="yes"/>
      <point x="416" y="227"/>
      <point x="266" y="291"/>
      <point x="154" y="358" type="curve"/>
      <point x="92" y="304"/>
      <point x="38" y="209"/>
    </contour>
  </outline>
</glyph>
<glyph name="T" format="2">
  <advance width="1019"/>
  <unicode hex="0054"/>
  <anchor x="512" y="0" name="bottom"/>
  <anchor x="511" y="1464" name="top"/>
  <outline>
    <contour>
      <point x="18" y="1100" type="curve"/>
      <point x="225" y="1100" type="line" smooth="yes"/>
      <point x="254" y="1100"/>
      <point x="322" y="1102"/>
      <point x="351" y="1102" type="curve" smooth="yes"/>
      <point x="672" y="1102" type="line" smooth="yes"/>
      <point x="702" y="1102"/>
      <point x="769" y="1100"/>
      <point x="798" y="1100" type="curve" smooth="yes"/>
      <point x="857" y="1100" type="line" smooth="yes"/>
      <point x="972" y="1100"/>
      <point x="1024" y="1139"/>
      <point x="1024" y="1243" type="curve" smooth="yes"/>
      <point x="1024" y="1284"/>
      <point x="1018" y="1333"/>
      <point x="1008" y="1366" type="curve"/>
      <point x="18" y="1366" type="line"/>
      <point x="9" y="1318"/>
      <point x="7" y="1269"/>
      <point x="7" y="1232" type="curve" smooth="yes"/>
      <point x="7" y="1196"/>
      <point x="9" y="1148"/>
    </contour>
    <contour>
      <point x="351" y="954" type="curve" smooth="yes"/>
      <point x="351" y="0" type="line"/>
      <point x="406" y="-10"/>
      <point x="467" y="-12"/>
      <point x="512" y="-12" type="curve" smooth="yes"/>
      <point x="556" y="-12"/>
      <point x="617" y="-10"/>
      <point x="672" y="0" type="curve"/>
      <point x="672" y="954" type="line" smooth="yes"/>
      <point x="672" y="1008"/>
      <point x="670" y="1046"/>
      <point x="670" y="1102" type="curve" smooth="yes"/>
      <point x="670" y="1234" type="line"/>
      <point x="353" y="1234" type="line"/>
      <point x="353" y="1102" type="line" smooth="yes"/>
      <point x="353" y="1046"/>
      <point x="351" y="1008"/>
    </contour>
  </outline>
</glyph>
<glyph name="U" format="2">
  <advance width="1347"/>
  <unicode hex="0055"/>
  <anchor x="673" y="0" name="bottom"/>
  <anchor x="908" y="8" name="ogonek"/>
  <anchor x="668" y="1464" name="top"/>
  <anchor x="1214" y="1366" name="topright"/>
  <outline>
    <contour>
      <point x="1214" y="504" type="curve" smooth="yes"/>
      <point x="1214" y="1366" type="line"/>
      <point x="1163" y="1376"/>
      <point x="1089" y="1378"/>
      <point x="1050" y="1378" type="curve" smooth="yes"/>
      <point x="1008" y="1378"/>
      <point x="947" y="1376"/>
      <point x="894" y="1366" type="curve"/>
      <point x="894" y="501" type="line" smooth="yes"/>
      <point x="894" y="318"/>
      <point x="834" y="225"/>
      <point x="673" y="225" type="curve" smooth="yes"/>
      <point x="513" y="225"/>
      <point x="453" y="318"/>
      <point x="453" y="501" type="curve" smooth="yes"/>
      <point x="453" y="1177" type="line" smooth="yes"/>
      <point x="453" y="1320"/>
      <point x="386" y="1379"/>
      <point x="263" y="1379" type="curve" smooth="yes"/>
      <point x="146" y="1379" type="line"/>
      <point x="132" y="1366" type="line"/>
      <point x="132" y="504" type="line" smooth="yes"/>
      <point x="132" y="166"/>
      <point x="327" y="-30"/>
      <point x="673" y="-30" type="curve" smooth="yes"/>
      <point x="1020" y="-30"/>
      <point x="1214" y="166"/>
    </contour>
  </outline>
</glyph>
<glyph name="V" format="2">
  <advance width="1213"/>
  <unicode hex="0056"/>
  <anchor x="604" y="0" name="bottom"/>
  <anchor x="610" y="1464" name="top"/>
  <outline>
    <contour>
      <point x="897" y="1366" type="curve"/>
      <point x="633" y="267" type="line"/>
      <point x="622" y="267"/>
      <point x="616" y="271"/>
      <point x="612" y="292" type="curve" smooth="yes"/>
      <point x="593" y="409"/>
      <point x="568" y="538"/>
      <point x="536" y="656" type="curve" smooth="yes"/>
      <point x="382" y="1225" type="line" smooth="yes"/>
      <point x="354" y="1335"/>
      <point x="305" y="1384"/>
      <point x="210" y="1384" type="curve" smooth="yes"/>
      <point x="140" y="1384"/>
      <point x="75" y="1362"/>
      <point x="17" y="1337" type="curve"/>
      <point x="350" y="132" type="line" smooth="yes"/>
      <point x="382" y="19"/>
      <point x="446" y="-12"/>
      <point x="566" y="-12" type="curve" smooth="yes"/>
      <point x="649" y="-12"/>
      <point x="747" y="-8"/>
      <point x="821" y="0" type="curve"/>
      <point x="1196" y="1339" type="line"/>
      <point x="1183" y="1357" type="line"/>
      <point x="1140" y="1372"/>
      <point x="1075" y="1378"/>
      <point x="1036" y="1378" type="curve" smooth="yes"/>
      <point x="994" y="1378"/>
      <point x="944" y="1377"/>
    </contour>
  </outline>
</glyph>
<glyph name="W" format="2">
  <advance width="1807"/>
  <unicode hex="0057"/>
  <anchor x="905" y="0" name="bottom"/>
  <anchor x="905" y="1464" name="top"/>
  <outline>
    <contour>
      <point x="30" y="1347" type="curve"/>
      <point x="266" y="133" type="line" smooth="yes"/>
      <point x="291" y="4"/>
      <point x="367" y="-12"/>
      <point x="470" y="-12" type="curve" smooth="yes"/>
      <point x="557" y="-12"/>
      <point x="661" y="-6"/>
      <point x="737" y="2" type="curve"/>
      <point x="828" y="565" type="line" smooth="yes"/>
      <point x="854" y="724"/>
      <point x="879" y="903"/>
      <point x="893" y="1029" type="curve"/>
      <point x="909" y="1029" type="line"/>
      <point x="919" y="903"/>
      <point x="942" y="722"/>
      <point x="966" y="565" type="curve" smooth="yes"/>
      <point x="1034" y="133" type="line" smooth="yes"/>
      <point x="1054" y="4"/>
      <point x="1134" y="-12"/>
      <point x="1229" y="-12" type="curve" smooth="yes"/>
      <point x="1313" y="-12"/>
      <point x="1429" y="-6"/>
      <point x="1502" y="2" type="curve"/>
      <point x="1767" y="1337" type="line"/>
      <point x="1751" y="1357" type="line"/>
      <point x="1709" y="1370"/>
      <point x="1650" y="1378"/>
      <point x="1600" y="1378" type="curve" smooth="yes"/>
      <point x="1556" y="1378"/>
      <point x="1504" y="1376"/>
      <point x="1457" y="1366" type="curve"/>
      <point x="1343" y="695" type="line" smooth="yes"/>
      <point x="1320" y="559"/>
      <point x="1295" y="377"/>
      <point x="1284" y="267" type="curve"/>
      <point x="1272" y="267"/>
      <point x="1266" y="267"/>
      <point x="1262" y="294" type="curve" smooth="yes"/>
      <point x="1109" y="1340" type="line"/>
      <point x="1049" y="1351"/>
      <point x="970" y="1355"/>
      <point x="905" y="1355" type="curve" smooth="yes"/>
      <point x="842" y="1355"/>
      <point x="763" y="1351"/>
      <point x="700" y="1340" type="curve"/>
      <point x="535" y="267" type="line"/>
      <point x="521" y="267"/>
      <point x="517" y="269"/>
      <point x="515" y="294" type="curve" smooth="yes"/>
      <point x="506" y="390"/>
      <point x="481" y="561"/>
      <point x="460" y="691" type="curve" smooth="yes"/>
      <point x="376" y="1208" type="line" smooth="yes"/>
      <point x="355" y="1345"/>
      <point x="311" y="1384"/>
      <point x="199" y="1384" type="curve" smooth="yes"/>
      <point x="142" y="1384"/>
      <point x="77" y="1367"/>
    </contour>
  </outline>
</glyph>
<glyph name="X" format="2">
  <advance width="1232"/>
  <unicode hex="0058"/>
  <anchor x="612" y="1464" name="top"/>
  <outline>
    <contour>
      <point x="49" y="1316" type="curve"/>
      <point x="801" y="107" type="line"/>
      <point x="862" y="11"/>
      <point x="916" y="-19"/>
      <point x="1007" y="-19" type="curve" smooth="yes"/>
      <point x="1074" y="-19"/>
      <point x="1152" y="7"/>
      <point x="1215" y="50" type="curve"/>
      <point x="460" y="1261" type="line" smooth="yes"/>
      <point x="400" y="1355"/>
      <point x="348" y="1385"/>
      <point x="257" y="1385" type="curve" smooth="yes"/>
      <point x="191" y="1385"/>
      <point x="112" y="1359"/>
    </contour>
    <contour>
      <point x="866" y="1366" type="curve"/>
      <point x="614" y="939" type="line"/>
      <point x="484" y="794" type="line"/>
      <point x="17" y="33" type="line"/>
      <point x="25" y="15" type="line"/>
      <point x="70" y="0"/>
      <point x="135" y="-12"/>
      <point x="196" y="-12" type="curve" smooth="yes"/>
      <point x="251" y="-12"/>
      <point x="296" y="-8"/>
      <point x="330" y="0" type="curve"/>
      <point x="619" y="487" type="line"/>
      <point x="749" y="633" type="line"/>
      <point x="1175" y="1335" type="line"/>
      <point x="1167" y="1351" type="line"/>
      <point x="1125" y="1366"/>
      <point x="1060" y="1378"/>
      <point x="999" y="1378" type="curve" smooth="yes"/>
      <point x="944" y="1378"/>
      <point x="899" y="1374"/>
    </contour>
  </outline>
</glyph>
<glyph name="Y" format="2">
  <advance width="1085"/>
  <unicode hex="0059"/>
  <anchor x="544" y="0" name="bottom"/>
  <anchor x="549" y="1464" name="top"/>
  <outline>
    <contour>
      <point x="382" y="612" type="line"/>
      <point x="382" y="0" type="line"/>
      <point x="433" y="-10"/>
      <point x="505" y="-12"/>
      <point x="544" y="-12" type="curve" smooth="yes"/>
      <point x="587" y="-12"/>
      <point x="650" y="-10"/>
      <point x="703" y="0" type="curve"/>
      <point x="703" y="612" type="line"/>
    </contour>
    <contour>
      <point x="790" y="1366" type="curve"/>
      <point x="655" y="1027" type="line" smooth="yes"/>
      <point x="619" y="936"/>
      <point x="582" y="830"/>
      <point x="557" y="729" type="curve"/>
      <point x="545" y="729" type="line"/>
      <point x="517" y="837"/>
      <point x="487" y="932"/>
      <point x="454" y="1016" type="curve" smooth="yes"/>
      <point x="359" y="1255" type="line" smooth="yes"/>
      <point x="322" y="1345"/>
      <point x="280" y="1382"/>
      <point x="190" y="1382" type="curve" smooth="yes"/>
      <point x="122" y="1382"/>
      <point x="50" y="1359"/>
      <point x="-5" y="1328" type="curve"/>
      <point x="402" y="382" type="line"/>
      <point x="687" y="382" type="line"/>
      <point x="1090" y="1337" type="line"/>
      <point x="1077" y="1355" type="line"/>
      <point x="1034" y="1370"/>
      <point x="974" y="1378"/>
      <point x="920" y="1378" type="curve" smooth="yes"/>
      <point x="878" y="1378"/>
      <point x="834" y="1376"/>
    </contour>
  </outline>
</glyph>
<glyph name="Z" format="2">
  <advance width="1159"/>
  <unicode hex="005A"/>
  <anchor x="571" y="0" name="bottom"/>
  <anchor x="577" y="1464" name="top"/>
  <outline>
    <contour>
      <point x="558" y="921" type="curve" smooth="yes"/>
      <point x="113" y="310" type="line" smooth="yes"/>
      <point x="87" y="275"/>
      <point x="75" y="230"/>
      <point x="75" y="192" type="curve" smooth="yes"/>
      <point x="75" y="165"/>
      <point x="79" y="141"/>
      <point x="110" y="0" type="curve"/>
      <point x="875" y="0" type="line" smooth="yes"/>
      <point x="997" y="0"/>
      <point x="1084" y="54"/>
      <point x="1084" y="169" type="curve" smooth="yes"/>
      <point x="1084" y="219"/>
      <point x="1074" y="274"/>
      <point x="1063" y="313" type="curve"/>
      <point x="1009" y="287"/>
      <point x="934" y="266"/>
      <point x="837" y="266" type="curve" smooth="yes"/>
      <point x="726" y="266" type="line" smooth="yes"/>
      <point x="641" y="266"/>
      <point x="512" y="259"/>
      <point x="426" y="252" type="curve"/>
      <point x="420" y="258" type="line"/>
      <point x="472" y="312"/>
      <point x="537" y="393"/>
      <point x="576" y="446" type="curve" smooth="yes"/>
      <point x="1022" y="1058" type="line" smooth="yes"/>
      <point x="1049" y="1097"/>
      <point x="1057" y="1134"/>
      <point x="1057" y="1170" type="curve" smooth="yes"/>
      <point x="1057" y="1194"/>
      <point x="1055" y="1216"/>
      <point x="1013" y="1366" type="curve"/>
      <point x="128" y="1366" type="line"/>
      <point x="114" y="1312"/>
      <point x="106" y="1268"/>
      <point x="106" y="1213" type="curve" smooth="yes"/>
      <point x="106" y="1178"/>
      <point x="108" y="1144"/>
      <point x="118" y="1106" type="curve"/>
      <point x="405" y="1106" type="line" smooth="yes"/>
      <point x="486" y="1106"/>
      <point x="620" y="1111"/>
      <point x="713" y="1123" type="curve"/>
      <point x="719" y="1117" type="line"/>
      <point x="669" y="1062"/>
      <point x="597" y="974"/>
    </contour>
  </outline>
</glyph>
<glyph name="bracketleft" format="2">
  <advance width="789"/>
  <unicode hex="005B"/>
  <outline>
    <contour>
      <point x="196" y="1541" type="line"/>
      <point x="196" y="-412" type="line"/>
      <point x="500" y="-335" type="line"/>
      <point x="500" y="1435" type="line"/>
    </contour>
    <contour>
      <point x="214" y="-428" type="line"/>
      <point x="713" y="-410" type="line"/>
      <point x="720" y="-390"/>
      <point x="724" y="-347"/>
      <point x="724" y="-324" type="curve" smooth="yes"/>
      <point x="724" y="-274"/>
      <point x="711" y="-221"/>
      <point x="701" y="-197" type="curve"/>
      <point x="221" y="-184" type="line"/>
      <point x="196" y="-412" type="line"/>
    </contour>
    <contour>
      <point x="713" y="1539" type="curve"/>
      <point x="214" y="1556" type="line"/>
      <point x="196" y="1541" type="line"/>
      <point x="221" y="1312" type="line"/>
      <point x="701" y="1326" type="line"/>
      <point x="711" y="1349"/>
      <point x="724" y="1403"/>
      <point x="724" y="1452" type="curve" smooth="yes"/>
      <point x="724" y="1476"/>
      <point x="720" y="1519"/>
    </contour>
  </outline>
</glyph>
<glyph name="backslash" format="2">
  <advance width="902"/>
  <unicode hex="005C"/>
  <outline>
    <contour>
      <point x="634" y="-339" type="curve"/>
      <point x="6" y="1335" type="line"/>
      <point x="82" y="1394"/>
      <point x="180" y="1425"/>
      <point x="272" y="1436" type="curve"/>
      <point x="900" y="-238" type="line"/>
      <point x="824" y="-297"/>
      <point x="726" y="-328"/>
    </contour>
  </outline>
</glyph>
<glyph name="bracketright" format="2">
  <advance width="789"/>
  <unicode hex="005D"/>
  <outline>
    <contour>
      <point x="593" y="1541" type="line"/>
      <point x="593" y="-412" type="line"/>
      <point x="289" y="-335" type="line"/>
      <point x="289" y="1435" type="line"/>
    </contour>
    <contour>
      <point x="576" y="-428" type="line"/>
      <point x="77" y="-410" type="line"/>
      <point x="69" y="-390"/>
      <point x="66" y="-347"/>
      <point x="66" y="-324" type="curve" smooth="yes"/>
      <point x="66" y="-274"/>
      <point x="79" y="-221"/>
      <point x="89" y="-197" type="curve"/>
      <point x="568" y="-184" type="line"/>
      <point x="593" y="-412" type="line"/>
    </contour>
    <contour>
      <point x="77" y="1539" type="curve"/>
      <point x="576" y="1556" type="line"/>
      <point x="593" y="1541" type="line"/>
      <point x="568" y="1312" type="line"/>
      <point x="89" y="1326" type="line"/>
      <point x="79" y="1349"/>
      <point x="66" y="1403"/>
      <point x="66" y="1452" type="curve" smooth="yes"/>
      <point x="66" y="1476"/>
      <point x="69" y="1519"/>
    </contour>
  </outline>
</glyph>
<glyph name="asciicircum" format="2">
  <advance width="1060"/>
  <unicode hex="005E"/>
  <outline>
    <contour>
      <point x="1004" y="612" type="curve"/>
      <point x="696" y="1296" type="line"/>
      <point x="661" y="1306"/>
      <point x="598" y="1310"/>
      <point x="534" y="1310" type="curve" smooth="yes"/>
      <point x="466" y="1310"/>
      <point x="399" y="1305"/>
      <point x="364" y="1296" type="curve"/>
      <point x="56" y="612" type="line"/>
      <point x="95" y="603"/>
      <point x="153" y="598"/>
      <point x="209" y="598" type="curve" smooth="yes"/>
      <point x="263" y="598"/>
      <point x="316" y="602"/>
      <point x="353" y="612" type="curve"/>
      <point x="449" y="850" type="line" smooth="yes"/>
      <point x="466" y="893"/>
      <point x="508" y="1020"/>
      <point x="522" y="1064" type="curve"/>
      <point x="538" y="1064" type="line"/>
      <point x="552" y="1020"/>
      <point x="594" y="893"/>
      <point x="611" y="850" type="curve" smooth="yes"/>
      <point x="707" y="612" type="line"/>
      <point x="744" y="602"/>
      <point x="797" y="598"/>
      <point x="851" y="598" type="curve" smooth="yes"/>
      <point x="907" y="598"/>
      <point x="965" y="603"/>
    </contour>
  </outline>
</glyph>
<glyph name="underscore" format="2">
  <advance width="1130"/>
  <unicode hex="005F"/>
  <outline>
    <contour>
      <point x="-2" y="-354" type="curve"/>
      <point x="1132" y="-354" type="line"/>
      <point x="1141" y="-314"/>
      <point x="1145" y="-281"/>
      <point x="1145" y="-237" type="curve"/>
      <point x="1145" y="-192"/>
      <point x="1141" y="-162"/>
      <point x="1132" y="-120" type="curve"/>
      <point x="-2" y="-120" type="line"/>
      <point x="-13" y="-162"/>
      <point x="-15" y="-216"/>
      <point x="-15" y="-237" type="curve" smooth="yes"/>
      <point x="-15" y="-261"/>
      <point x="-13" y="-314"/>
    </contour>
  </outline>
</glyph>
<glyph name="a" format="2">
  <advance width="1026"/>
  <unicode hex="0061"/>
  <anchor x="510" y="0" name="bottom"/>
  <anchor x="872" y="-16" name="ogonek"/>
  <anchor x="500" y="1084" name="top"/>
  <outline>
    <contour>
      <point x="60" y="273" type="curve" smooth="yes"/>
      <point x="60" y="130"/>
      <point x="158" y="-30"/>
      <point x="364" y="-30" type="curve" smooth="yes"/>
      <point x="544" y="-30"/>
      <point x="648" y="71"/>
      <point x="727" y="164" type="curve"/>
      <point x="683" y="362" type="line"/>
      <point x="626" y="262"/>
      <point x="536" y="201"/>
      <point x="456" y="201" type="curve" smooth="yes"/>
      <point x="400" y="201"/>
      <point x="364" y="240"/>
      <point x="364" y="294" type="curve" smooth="yes"/>
      <point x="364" y="369"/>
      <point x="400" y="421"/>
      <point x="489" y="421" type="curve" smooth="yes"/>
      <point x="542" y="421"/>
      <point x="635" y="421"/>
      <point x="693" y="408" type="curve"/>
      <point x="693" y="606" type="line"/>
      <point x="620" y="620"/>
      <point x="516" y="621"/>
      <point x="456" y="621" type="curve" smooth="yes"/>
      <point x="250" y="621"/>
      <point x="60" y="514"/>
    </contour>
    <contour>
      <point x="967" y="144" type="curve"/>
      <point x="928" y="172"/>
      <point x="911" y="216"/>
      <point x="911" y="274" type="curve" smooth="yes"/>
      <point x="911" y="681" type="line" smooth="yes"/>
      <point x="911" y="934"/>
      <point x="731" y="1022"/>
      <point x="556" y="1022" type="curve" smooth="yes"/>
      <point x="427" y="1022"/>
      <point x="232" y="989"/>
      <point x="98" y="934" type="curve"/>
      <point x="104" y="857"/>
      <point x="129" y="768"/>
      <point x="173" y="717" type="curve"/>
      <point x="278" y="748"/>
      <point x="382" y="781"/>
      <point x="468" y="781" type="curve" smooth="yes"/>
      <point x="558" y="781"/>
      <point x="599" y="738"/>
      <point x="599" y="654" type="curve" smooth="yes"/>
      <point x="599" y="226" type="line"/>
      <point x="617" y="120"/>
      <point x="695" y="-13"/>
      <point x="872" y="-16" type="curve"/>
      <point x="911" y="15"/>
      <point x="956" y="89"/>
    </contour>
  </outline>
</glyph>
<glyph name="b" format="2">
  <advance width="1070"/>
  <unicode hex="0062"/>
  <anchor x="522" y="0" name="bottom"/>
  <anchor x="564" y="1520" name="top"/>
  <outline>
    <contour>
      <point x="425" y="50" type="line"/>
      <point x="425" y="1284" type="line" smooth="yes"/>
      <point x="425" y="1423"/>
      <point x="374" y="1472"/>
      <point x="251" y="1472" type="curve" smooth="yes"/>
      <point x="133" y="1472" type="line"/>
      <point x="119" y="1458" type="line"/>
      <point x="119" y="50" type="line"/>
    </contour>
    <contour>
      <point x="1010" y="513" type="curve" smooth="yes"/>
      <point x="1010" y="805"/>
      <point x="892" y="1018"/>
      <point x="655" y="1018" type="curve" smooth="yes"/>
      <point x="515" y="1018"/>
      <point x="416" y="957"/>
      <point x="335" y="877" type="curve"/>
      <point x="379" y="641" type="line"/>
      <point x="428" y="732"/>
      <point x="504" y="769"/>
      <point x="562" y="767" type="curve" smooth="yes"/>
      <point x="648" y="765"/>
      <point x="690" y="689"/>
      <point x="690" y="508" type="curve" smooth="yes"/>
      <point x="690" y="321"/>
      <point x="639" y="206"/>
      <point x="517" y="206" type="curve" smooth="yes"/>
      <point x="425" y="206"/>
      <point x="342" y="232"/>
      <point x="267" y="280" type="curve"/>
      <point x="119" y="50" type="line"/>
      <point x="226" y="8"/>
      <point x="366" y="-18"/>
      <point x="511" y="-18" type="curve" smooth="yes"/>
      <point x="817" y="-18"/>
      <point x="1012" y="188"/>
    </contour>
  </outline>
</glyph>
<glyph name="c" format="2">
  <advance width="949"/>
  <unicode hex="0063"/>
  <anchor x="501" y="0" name="bottom"/>
  <anchor x="504" y="1084" name="top"/>
  <outline>
    <contour>
      <point x="618" y="555" type="curve"/>
      <point x="657" y="548"/>
      <point x="692" y="544"/>
      <point x="745" y="544" type="curve" smooth="yes"/>
      <point x="833" y="544"/>
      <point x="898" y="591"/>
      <point x="898" y="696" type="curve" smooth="yes"/>
      <point x="898" y="894"/>
      <point x="733" y="1028"/>
      <point x="508" y="1028" type="curve" smooth="yes"/>
      <point x="289" y="1028"/>
      <point x="60" y="884"/>
      <point x="60" y="497" type="curve" smooth="yes"/>
      <point x="60" y="177"/>
      <point x="214" y="-30"/>
      <point x="501" y="-30" type="curve" smooth="yes"/>
      <point x="649" y="-30"/>
      <point x="801" y="30"/>
      <point x="890" y="124" type="curve"/>
      <point x="876" y="185"/>
      <point x="822" y="269"/>
      <point x="772" y="298" type="curve"/>
      <point x="709" y="253"/>
      <point x="630" y="214"/>
      <point x="552" y="214" type="curve" smooth="yes"/>
      <point x="438" y="214"/>
      <point x="379" y="285"/>
      <point x="379" y="497" type="curve" smooth="yes"/>
      <point x="379" y="706"/>
      <point x="409" y="796"/>
      <point x="502" y="796" type="curve" smooth="yes"/>
      <point x="606" y="796"/>
      <point x="619" y="710"/>
    </contour>
  </outline>
</glyph>
<glyph name="e" format="2">
  <advance width="993"/>
  <unicode hex="0065"/>
  <anchor x="519" y="0" name="bottom"/>
  <anchor x="717" y="0" name="ogonek"/>
  <anchor x="510" y="1084" name="top"/>
  <outline>
    <contour>
      <point x="260" y="398" type="line"/>
      <point x="898" y="398" type="line"/>
      <point x="917" y="465"/>
      <point x="925" y="515"/>
      <point x="925" y="604" type="curve" smooth="yes"/>
      <point x="925" y="845"/>
      <point x="771" y="1028"/>
      <point x="508" y="1028" type="curve" smooth="yes"/>
      <point x="189" y="1028"/>
      <point x="60" y="794"/>
      <point x="60" y="492" type="curve" smooth="yes"/>
      <point x="60" y="227"/>
      <point x="154" y="-30"/>
      <point x="505" y="-30" type="curve" smooth="yes"/>
      <point x="647" y="-30"/>
      <point x="797" y="11"/>
      <point x="899" y="84" type="curve"/>
      <point x="889" y="146"/>
      <point x="862" y="223"/>
      <point x="815" y="269" type="curve"/>
      <point x="735" y="235"/>
      <point x="646" y="209"/>
      <point x="556" y="209" type="curve" smooth="yes"/>
      <point x="395" y="209"/>
      <point x="374" y="330"/>
      <point x="374" y="467" type="curve" smooth="yes"/>
      <point x="374" y="561" type="line" smooth="yes"/>
      <point x="374" y="728"/>
      <point x="408" y="806"/>
      <point x="506" y="806" type="curve" smooth="yes"/>
      <point x="601" y="806"/>
      <point x="637" y="728"/>
      <point x="637" y="636" type="curve" smooth="yes"/>
      <point x="637" y="613" type="line"/>
      <point x="260" y="613" type="line"/>
    </contour>
  </outline>
</glyph>
<glyph name="f" format="2">
  <advance width="715"/>
  <unicode hex="0066"/>
  <anchor x="468" y="1521" name="top"/>
  <outline>
    <contour>
      <point x="328" y="996" type="line"/>
      <point x="4" y="1000" type="line"/>
      <point x="-4" y="966"/>
      <point x="-8" y="926"/>
      <point x="-8" y="891" type="curve" smooth="yes"/>
      <point x="-8" y="856"/>
      <point x="-4" y="813"/>
      <point x="4" y="778" type="curve"/>
      <point x="324" y="784" type="line"/>
      <point x="721" y="778" type="line"/>
      <point x="729" y="813"/>
      <point x="732" y="856"/>
      <point x="732" y="891" type="curve" smooth="yes"/>
      <point x="732" y="926"/>
      <point x="729" y="966"/>
      <point x="721" y="1000" type="curve"/>
    </contour>
    <contour>
      <point x="176" y="868" type="curve"/>
      <point x="176" y="0" type="line"/>
      <point x="223" y="-8"/>
      <point x="277" y="-12"/>
      <point x="326" y="-12" type="curve" smooth="yes"/>
      <point x="378" y="-12"/>
      <point x="433" y="-8"/>
      <point x="481" y="0" type="curve"/>
      <point x="481" y="866" type="line"/>
      <point x="471" y="940"/>
      <point x="449" y="1034"/>
      <point x="449" y="1109" type="curve" smooth="yes"/>
      <point x="449" y="1199"/>
      <point x="498" y="1245"/>
      <point x="584" y="1245" type="curve" smooth="yes"/>
      <point x="638" y="1245"/>
      <point x="698" y="1229"/>
      <point x="738" y="1219" type="curve"/>
      <point x="778" y="1261"/>
      <point x="807" y="1354"/>
      <point x="805" y="1425" type="curve"/>
      <point x="736" y="1451"/>
      <point x="624" y="1480"/>
      <point x="499" y="1480" type="curve" smooth="yes"/>
      <point x="290" y="1480"/>
      <point x="150" y="1330"/>
      <point x="150" y="1131" type="curve" smooth="yes"/>
      <point x="150" y="1040"/>
      <point x="168" y="955"/>
    </contour>
  </outline>
</glyph>
<glyph name="g" format="2">
  <advance width="1072"/>
  <unicode hex="0067"/>
  <anchor x="527" y="-418" name="bottom"/>
  <anchor x="551" y="1084" name="top"/>
  <outline>
    <contour>
      <point x="1012" y="854" type="curve"/>
      <point x="1004" y="909"/>
      <point x="956" y="984"/>
      <point x="917" y="1014" type="curve"/>
      <point x="741" y="1011"/>
      <point x="651" y="880"/>
      <point x="651" y="714" type="curve"/>
      <point x="651" y="-7" type="line" smooth="yes"/>
      <point x="651" y="-130"/>
      <point x="595" y="-210"/>
      <point x="449" y="-210" type="curve" smooth="yes"/>
      <point x="361" y="-210"/>
      <point x="264" y="-188"/>
      <point x="179" y="-150" type="curve"/>
      <point x="135" y="-202"/>
      <point x="102" y="-303"/>
      <point x="102" y="-376" type="curve"/>
      <point x="206" y="-415"/>
      <point x="352" y="-442"/>
      <point x="478" y="-442" type="curve" smooth="yes"/>
      <point x="638" y="-442"/>
      <point x="774" y="-397"/>
      <point x="853" y="-296" type="curve" smooth="yes"/>
      <point x="916" y="-216"/>
      <point x="956" y="-99"/>
      <point x="956" y="182" type="curve" smooth="yes"/>
      <point x="956" y="710" type="line" smooth="yes"/>
      <point x="956" y="773"/>
      <point x="979" y="830"/>
    </contour>
    <contour>
      <point x="64" y="497" type="curve" smooth="yes"/>
      <point x="64" y="193"/>
      <point x="180" y="-20"/>
      <point x="424" y="-20" type="curve" smooth="yes"/>
      <point x="564" y="-20"/>
      <point x="694" y="64"/>
      <point x="760" y="177" type="curve"/>
      <point x="716" y="394" type="line"/>
      <point x="664" y="286"/>
      <point x="582" y="231"/>
      <point x="502" y="231" type="curve" smooth="yes"/>
      <point x="434" y="231"/>
      <point x="384" y="310"/>
      <point x="384" y="495" type="curve" smooth="yes"/>
      <point x="384" y="682"/>
      <point x="423" y="796"/>
      <point x="520" y="796" type="curve" smooth="yes"/>
      <point x="592" y="796"/>
      <point x="688" y="718"/>
      <point x="765" y="573" type="curve"/>
      <point x="816" y="828" type="line"/>
      <point x="765" y="915"/>
      <point x="660" y="1028"/>
      <point x="465" y="1028" type="curve" smooth="yes"/>
      <point x="247" y="1028"/>
      <point x="64" y="841"/>
    </contour>
  </outline>
</glyph>
<glyph name="h" format="2">
  <advance width="1086"/>
  <unicode hex="0068"/>
  <anchor x="563" y="0" name="bottom"/>
  <anchor x="545" y="1520" name="top"/>
  <outline>
    <contour>
      <point x="425" y="0" type="curve"/>
      <point x="425" y="1284" type="line" smooth="yes"/>
      <point x="425" y="1423"/>
      <point x="378" y="1472"/>
      <point x="255" y="1472" type="curve" smooth="yes"/>
      <point x="133" y="1472" type="line"/>
      <point x="119" y="1458" type="line"/>
      <point x="119" y="0" type="line"/>
      <point x="167" y="-8"/>
      <point x="220" y="-12"/>
      <point x="270" y="-12" type="curve" smooth="yes"/>
      <point x="326" y="-12"/>
      <point x="381" y="-8"/>
    </contour>
    <contour>
      <point x="972" y="250" type="curve" smooth="yes"/>
      <point x="972" y="660" type="line" smooth="yes"/>
      <point x="972" y="869"/>
      <point x="874" y="1016"/>
      <point x="692" y="1016" type="curve" smooth="yes"/>
      <point x="549" y="1016"/>
      <point x="443" y="929"/>
      <point x="350" y="837" type="curve"/>
      <point x="350" y="564" type="line"/>
      <point x="410" y="689"/>
      <point x="512" y="736"/>
      <point x="573" y="736" type="curve" smooth="yes"/>
      <point x="640" y="736"/>
      <point x="659" y="693"/>
      <point x="659" y="603" type="curve" smooth="yes"/>
      <point x="659" y="178" type="line" smooth="yes"/>
      <point x="659" y="53"/>
      <point x="701" y="-16"/>
      <point x="826" y="-16" type="curve" smooth="yes"/>
      <point x="904" y="-16"/>
      <point x="975" y="13"/>
      <point x="1021" y="51" type="curve"/>
      <point x="985" y="102"/>
      <point x="972" y="172"/>
    </contour>
  </outline>
</glyph>
<glyph name="l" format="2">
  <advance width="626"/>
  <unicode hex="006C"/>
  <anchor x="357" y="0" name="bottom"/>
  <anchor x="626" y="786" name="periodcentered"/>
  <anchor x="262" y="1544" name="top"/>
  <anchor x="422" y="998" name="topright"/>
  <outline>
    <contour>
      <point x="564" y="228" type="curve"/>
      <point x="509" y="228" type="line"/>
      <point x="447" y="228"/>
      <point x="422" y="261"/>
      <point x="422" y="323" type="curve" smooth="yes"/>
      <point x="422" y="1284" type="line" smooth="yes"/>
      <point x="422" y="1423"/>
      <point x="376" y="1472"/>
      <point x="253" y="1472" type="curve" smooth="yes"/>
      <point x="131" y="1472" type="line"/>
      <point x="117" y="1458" type="line"/>
      <point x="117" y="268" type="line" smooth="yes"/>
      <point x="117" y="77"/>
      <point x="185" y="-10"/>
      <point x="366" y="-10" type="curve" smooth="yes"/>
      <point x="443" y="-10"/>
      <point x="521" y="0"/>
      <point x="581" y="10" type="curve"/>
      <point x="587" y="30"/>
      <point x="589" y="57"/>
      <point x="589" y="80" type="curve" smooth="yes"/>
      <point x="589" y="130"/>
      <point x="579" y="184"/>
    </contour>
  </outline>
</glyph>
<glyph name="m" format="2">
  <advance width="1617"/>
  <unicode hex="006D"/>
  <anchor x="811" y="0" name="bottom"/>
  <anchor x="794" y="1084" name="top"/>
  <outline>
    <contour>
      <point x="250" y="1012" type="curve" smooth="yes"/>
      <point x="133" y="1012" type="line"/>
      <point x="119" y="998" type="line"/>
      <point x="119" y="0" type="line"/>
      <point x="165" y="-8"/>
      <point x="224" y="-12"/>
      <point x="276" y="-12" type="curve" smooth="yes"/>
      <point x="329" y="-12"/>
      <point x="388" y="-8"/>
      <point x="432" y="0" type="curve"/>
      <point x="432" y="785" type="line" smooth="yes"/>
      <point x="432" y="924"/>
      <point x="369" y="1012"/>
    </contour>
    <contour>
      <point x="654" y="602" type="curve" smooth="yes"/>
      <point x="654" y="0" type="line"/>
      <point x="700" y="-8"/>
      <point x="759" y="-12"/>
      <point x="811" y="-12" type="curve" smooth="yes"/>
      <point x="864" y="-12"/>
      <point x="923" y="-8"/>
      <point x="967" y="0" type="curve"/>
      <point x="967" y="701" type="line" smooth="yes"/>
      <point x="967" y="884"/>
      <point x="867" y="1016"/>
      <point x="693" y="1016" type="curve" smooth="yes"/>
      <point x="549" y="1016"/>
      <point x="425" y="903"/>
      <point x="331" y="797" type="curve"/>
      <point x="331" y="527" type="line"/>
      <point x="365" y="620"/>
      <point x="478" y="734"/>
      <point x="564" y="736" type="curve" smooth="yes"/>
      <point x="607" y="736"/>
      <point x="654" y="708"/>
    </contour>
    <contour>
      <point x="1189" y="604" type="curve"/>
      <point x="1189" y="178" type="line" smooth="yes"/>
      <point x="1189" y="53"/>
      <point x="1231" y="-16"/>
      <point x="1357" y="-16" type="curve" smooth="yes"/>
      <point x="1435" y="-16"/>
      <point x="1506" y="13"/>
      <point x="1552" y="51" type="curve"/>
      <point x="1515" y="102"/>
      <point x="1502" y="172"/>
      <point x="1502" y="250" type="curve" smooth="yes"/>
      <point x="1502" y="697" type="line" smooth="yes"/>
      <point x="1502" y="880"/>
      <point x="1411" y="1016"/>
      <point x="1236" y="1016" type="curve" smooth="yes"/>
      <point x="1095" y="1016"/>
      <point x="947" y="913"/>
      <point x="858" y="805" type="curve"/>
      <point x="858" y="516" type="line"/>
      <point x="905" y="619"/>
      <point x="1017" y="736"/>
      <point x="1096" y="736" type="curve" smooth="yes"/>
      <point x="1139" y="736"/>
      <point x="1189" y="710"/>
    </contour>
  </outline>
</glyph>
<glyph name="n" format="2">
  <advance width="1094"/>
  <unicode hex="006E"/>
  <anchor x="563" y="0" name="bottom"/>
  <anchor x="561" y="1084" name="top"/>
  <outline>
    <contour>
      <point x="251" y="1012" type="curve" smooth="yes"/>
      <point x="133" y="1012" type="line"/>
      <point x="119" y="998" type="line"/>
      <point x="119" y="0" type="line"/>
      <point x="165" y="-8"/>
      <point x="224" y="-12"/>
      <point x="276" y="-12" type="curve" smooth="yes"/>
      <point x="329" y="-12"/>
      <point x="388" y="-8"/>
      <point x="432" y="0" type="curve"/>
      <point x="432" y="785" type="line" smooth="yes"/>
      <point x="432" y="924"/>
      <point x="371" y="1012"/>
    </contour>
    <contour>
      <point x="979" y="250" type="curve" smooth="yes"/>
      <point x="979" y="660" type="line" smooth="yes"/>
      <point x="979" y="869"/>
      <point x="882" y="1016"/>
      <point x="699" y="1016" type="curve" smooth="yes"/>
      <point x="557" y="1016"/>
      <point x="451" y="929"/>
      <point x="357" y="838" type="curve"/>
      <point x="357" y="564" type="line"/>
      <point x="418" y="690"/>
      <point x="519" y="736"/>
      <point x="581" y="736" type="curve" smooth="yes"/>
      <point x="647" y="736"/>
      <point x="666" y="694"/>
      <point x="666" y="603" type="curve" smooth="yes"/>
      <point x="666" y="178" type="line" smooth="yes"/>
      <point x="666" y="53"/>
      <point x="708" y="-16"/>
      <point x="834" y="-16" type="curve" smooth="yes"/>
      <point x="912" y="-16"/>
      <point x="983" y="13"/>
      <point x="1029" y="51" type="curve"/>
      <point x="992" y="102"/>
      <point x="979" y="172"/>
    </contour>
  </outline>
</glyph>
<glyph name="o" format="2">
  <advance width="1044"/>
  <unicode hex="006F"/>
  <anchor x="522" y="0" name="bottom"/>
  <anchor x="701" y="0" name="ogonek"/>
  <anchor x="522" y="1084" name="top"/>
  <anchor x="862" y="969" name="topright"/>
  <outline>
    <contour>
      <point x="984" y="499" type="curve" smooth="yes"/>
      <point x="984" y="818"/>
      <point x="826" y="1028"/>
      <point x="522" y="1028" type="curve" smooth="yes"/>
      <point x="220" y="1028"/>
      <point x="60" y="820"/>
      <point x="60" y="499" type="curve" smooth="yes"/>
      <point x="60" y="180"/>
      <point x="217" y="-30"/>
      <point x="522" y="-30" type="curve" smooth="yes"/>
      <point x="823" y="-30"/>
      <point x="984" y="178"/>
    </contour>
    <contour>
      <point x="381" y="499" type="curve" smooth="yes"/>
      <point x="381" y="664"/>
      <point x="399" y="795"/>
      <point x="522" y="795" type="curve" smooth="yes"/>
      <point x="645" y="795"/>
      <point x="663" y="664"/>
      <point x="663" y="499" type="curve" smooth="yes"/>
      <point x="663" y="334"/>
      <point x="645" y="204"/>
      <point x="522" y="204" type="curve" smooth="yes"/>
      <point x="399" y="204"/>
      <point x="381" y="334"/>
    </contour>
  </outline>
</glyph>
<glyph name="p" format="2">
  <advance width="1076"/>
  <unicode hex="0070"/>
  <anchor x="524" y="1084" name="top"/>
  <outline>
    <contour>
      <point x="216" y="1012" type="curve" smooth="yes"/>
      <point x="133" y="1012" type="line"/>
      <point x="119" y="998" type="line"/>
      <point x="119" y="-418" type="line"/>
      <point x="133" y="-432" type="line"/>
      <point x="255" y="-432" type="line" smooth="yes"/>
      <point x="378" y="-432"/>
      <point x="426" y="-383"/>
      <point x="426" y="-244" type="curve" smooth="yes"/>
      <point x="426" y="748" type="line" smooth="yes"/>
      <point x="426" y="912"/>
      <point x="343" y="1012"/>
    </contour>
    <contour>
      <point x="1012" y="511" type="curve" smooth="yes"/>
      <point x="1012" y="815"/>
      <point x="896" y="1028"/>
      <point x="652" y="1028" type="curve" smooth="yes"/>
      <point x="456" y="1028"/>
      <point x="296" y="863"/>
      <point x="277" y="701" type="curve"/>
      <point x="347" y="524" type="line"/>
      <point x="401" y="736"/>
      <point x="508" y="777"/>
      <point x="571" y="777" type="curve" smooth="yes"/>
      <point x="641" y="777"/>
      <point x="692" y="699"/>
      <point x="692" y="513" type="curve" smooth="yes"/>
      <point x="692" y="329"/>
      <point x="653" y="213"/>
      <point x="556" y="213" type="curve" smooth="yes"/>
      <point x="492" y="213"/>
      <point x="408" y="265"/>
      <point x="330" y="328" type="curve"/>
      <point x="280" y="107" type="line"/>
      <point x="368" y="53"/>
      <point x="472" y="-20"/>
      <point x="611" y="-20" type="curve" smooth="yes"/>
      <point x="831" y="-20"/>
      <point x="1012" y="167"/>
    </contour>
  </outline>
</glyph>
<glyph name="q" format="2">
  <advance width="1077"/>
  <unicode hex="0071"/>
  <outline>
    <contour>
      <point x="64" y="497" type="curve" smooth="yes"/>
      <point x="64" y="193"/>
      <point x="180" y="-20"/>
      <point x="424" y="-20" type="curve" smooth="yes"/>
      <point x="564" y="-20"/>
      <point x="694" y="64"/>
      <point x="760" y="176" type="curve"/>
      <point x="716" y="394" type="line"/>
      <point x="664" y="286"/>
      <point x="582" y="231"/>
      <point x="502" y="231" type="curve" smooth="yes"/>
      <point x="434" y="231"/>
      <point x="384" y="310"/>
      <point x="384" y="495" type="curve" smooth="yes"/>
      <point x="384" y="682"/>
      <point x="423" y="796"/>
      <point x="520" y="796" type="curve" smooth="yes"/>
      <point x="592" y="796"/>
      <point x="688" y="718"/>
      <point x="765" y="573" type="curve"/>
      <point x="816" y="828" type="line"/>
      <point x="765" y="915"/>
      <point x="660" y="1028"/>
      <point x="465" y="1028" type="curve" smooth="yes"/>
      <point x="247" y="1028"/>
      <point x="64" y="841"/>
    </contour>
    <contour>
      <point x="649" y="714" type="curve" smooth="yes"/>
      <point x="649" y="-244" type="line" smooth="yes"/>
      <point x="649" y="-383"/>
      <point x="696" y="-432"/>
      <point x="819" y="-432" type="curve" smooth="yes"/>
      <point x="941" y="-432" type="line"/>
      <point x="954" y="-418" type="line"/>
      <point x="954" y="710" type="line" smooth="yes"/>
      <point x="954" y="773"/>
      <point x="977" y="830"/>
      <point x="1010" y="854" type="curve"/>
      <point x="999" y="909"/>
      <point x="954" y="984"/>
      <point x="915" y="1014" type="curve"/>
      <point x="739" y="1011"/>
      <point x="649" y="880"/>
    </contour>
  </outline>
</glyph>
<glyph name="r" format="2">
  <advance width="794"/>
  <unicode hex="0072"/>
  <anchor x="292" y="0" name="bottom"/>
  <anchor x="418" y="1084" name="top"/>
  <outline>
    <contour>
      <point x="793" y="995" type="curve"/>
      <point x="753" y="1005"/>
      <point x="721" y="1012"/>
      <point x="660" y="1012" type="curve" smooth="yes"/>
      <point x="425" y="1012"/>
      <point x="368" y="771"/>
      <point x="354" y="551" type="curve"/>
      <point x="389" y="504" type="line"/>
      <point x="446" y="645"/>
      <point x="505" y="724"/>
      <point x="612" y="724" type="curve"/>
      <point x="646" y="720"/>
      <point x="680" y="716"/>
      <point x="715" y="703" type="curve"/>
      <point x="766" y="791"/>
      <point x="793" y="922"/>
    </contour>
    <contour>
      <point x="60" y="853" type="curve"/>
      <point x="92" y="830"/>
      <point x="135" y="764"/>
      <point x="135" y="646" type="curve" smooth="yes"/>
      <point x="135" y="0" type="line"/>
      <point x="181" y="-8"/>
      <point x="240" y="-12"/>
      <point x="292" y="-12" type="curve" smooth="yes"/>
      <point x="346" y="-12"/>
      <point x="404" y="-8"/>
      <point x="448" y="0" type="curve"/>
      <point x="448" y="669" type="line"/>
      <point x="430" y="869"/>
      <point x="340" y="1000"/>
      <point x="155" y="1014" type="curve"/>
      <point x="116" y="984"/>
      <point x="71" y="909"/>
    </contour>
  </outline>
</glyph>
<glyph name="s" format="2">
  <advance width="886"/>
  <unicode hex="0073"/>
  <anchor x="445" y="0" name="bottom"/>
  <anchor x="445" y="1084" name="top"/>
  <outline>
    <contour>
      <point x="39" y="69" type="curve"/>
      <point x="133" y="15"/>
      <point x="267" y="-30"/>
      <point x="410" y="-30" type="curve" smooth="yes"/>
      <point x="681" y="-30"/>
      <point x="842" y="97"/>
      <point x="842" y="296" type="curve" smooth="yes"/>
      <point x="842" y="466"/>
      <point x="728" y="564"/>
      <point x="576" y="618" type="curve" smooth="yes"/>
      <point x="452" y="662" type="line" smooth="yes"/>
      <point x="398" y="681"/>
      <point x="376" y="703"/>
      <point x="376" y="738" type="curve" smooth="yes"/>
      <point x="376" y="773"/>
      <point x="404" y="802"/>
      <point x="458" y="802" type="curve" smooth="yes"/>
      <point x="553" y="802"/>
      <point x="654" y="764"/>
      <point x="737" y="727" type="curve"/>
      <point x="787" y="764"/>
      <point x="827" y="871"/>
      <point x="823" y="944" type="curve"/>
      <point x="736" y="987"/>
      <point x="581" y="1028"/>
      <point x="455" y="1028" type="curve" smooth="yes"/>
      <point x="220" y="1028"/>
      <point x="68" y="900"/>
      <point x="68" y="697" type="curve" smooth="yes"/>
      <point x="68" y="536"/>
      <point x="177" y="449"/>
      <point x="318" y="397" type="curve" smooth="yes"/>
      <point x="429" y="357" type="line" smooth="yes"/>
      <point x="494" y="334"/>
      <point x="520" y="305"/>
      <point x="520" y="266" type="curve" smooth="yes"/>
      <point x="520" y="226"/>
      <point x="480" y="196"/>
      <point x="403" y="196" type="curve" smooth="yes"/>
      <point x="309" y="196"/>
      <point x="214" y="233"/>
      <point x="126" y="279" type="curve"/>
      <point x="80" y="231"/>
      <point x="41" y="136"/>
    </contour>
  </outline>
</glyph>
<glyph name="t" format="2">
  <advance width="749"/>
  <unicode hex="0074"/>
  <anchor x="418" y="0" name="bottom"/>
  <anchor x="342" y="1369" name="top"/>
  <anchor x="466" y="998" name="topright"/>
  <outline>
    <contour>
      <point x="161" y="1111" type="curve" smooth="yes"/>
      <point x="161" y="268" type="line" smooth="yes"/>
      <point x="161" y="77"/>
      <point x="244" y="-10"/>
      <point x="425" y="-10" type="curve" smooth="yes"/>
      <point x="505" y="-10"/>
      <point x="611" y="0"/>
      <point x="684" y="10" type="curve"/>
      <point x="690" y="30"/>
      <point x="692" y="57"/>
      <point x="692" y="80" type="curve" smooth="yes"/>
      <point x="692" y="128"/>
      <point x="682" y="184"/>
      <point x="667" y="228" type="curve"/>
      <point x="555" y="228" type="line" smooth="yes"/>
      <point x="491" y="228"/>
      <point x="466" y="262"/>
      <point x="466" y="322" type="curve" smooth="yes"/>
      <point x="466" y="1285" type="line"/>
      <point x="452" y="1299" type="line"/>
      <point x="330" y="1299" type="line" smooth="yes"/>
      <point x="207" y="1299"/>
      <point x="161" y="1250"/>
    </contour>
    <contour>
      <point x="703" y="1000" type="curve"/>
      <point x="339" y="995" type="line"/>
      <point x="4" y="1000" type="line"/>
      <point x="-5" y="962"/>
      <point x="-9" y="926"/>
      <point x="-9" y="891" type="curve" smooth="yes"/>
      <point x="-9" y="853"/>
      <point x="-5" y="815"/>
      <point x="4" y="778" type="curve"/>
      <point x="330" y="784" type="line"/>
      <point x="703" y="778" type="line"/>
      <point x="713" y="815"/>
      <point x="717" y="853"/>
      <point x="717" y="891" type="curve" smooth="yes"/>
      <point x="717" y="926"/>
      <point x="713" y="962"/>
    </contour>
  </outline>
</glyph>
<glyph name="v" format="2">
  <advance width="959"/>
  <unicode hex="0076"/>
  <anchor x="484" y="0" name="bottom"/>
  <anchor x="479" y="1084" name="top"/>
  <outline>
    <contour>
      <point x="673" y="997" type="curve"/>
      <point x="498" y="238" type="line"/>
      <point x="486" y="238"/>
      <point x="481" y="238"/>
      <point x="478" y="254" type="curve" smooth="yes"/>
      <point x="468" y="314"/>
      <point x="453" y="420"/>
      <point x="434" y="497" type="curve" smooth="yes"/>
      <point x="344" y="870" type="line" smooth="yes"/>
      <point x="319" y="978"/>
      <point x="262" y="1016"/>
      <point x="163" y="1016" type="curve" smooth="yes"/>
      <point x="112" y="1016"/>
      <point x="46" y="997"/>
      <point x="-9" y="974" type="curve"/>
      <point x="230" y="137" type="line" smooth="yes"/>
      <point x="266" y="15"/>
      <point x="328" y="-12"/>
      <point x="447" y="-12" type="curve" smooth="yes"/>
      <point x="526" y="-12"/>
      <point x="612" y="-8"/>
      <point x="681" y="0" type="curve"/>
      <point x="753" y="230"/>
      <point x="877" y="680"/>
      <point x="957" y="970" type="curve"/>
      <point x="948" y="984" type="line"/>
      <point x="900" y="1002"/>
      <point x="840" y="1008"/>
      <point x="786" y="1008" type="curve" smooth="yes"/>
      <point x="748" y="1008"/>
      <point x="710" y="1005"/>
    </contour>
  </outline>
</glyph>
<glyph name="w" format="2">
  <advance width="1512"/>
  <unicode hex="0077"/>
  <anchor x="754" y="0" name="bottom"/>
  <anchor x="754" y="1084" name="top"/>
  <outline>
    <contour>
      <point x="9" y="979" type="curve"/>
      <point x="203" y="134" type="line" smooth="yes"/>
      <point x="230" y="15"/>
      <point x="287" y="-12"/>
      <point x="404" y="-12" type="curve" smooth="yes"/>
      <point x="479" y="-12"/>
      <point x="575" y="-8"/>
      <point x="640" y="0" type="curve"/>
      <point x="696" y="349" type="line" smooth="yes"/>
      <point x="711" y="448"/>
      <point x="733" y="586"/>
      <point x="748" y="722" type="curve"/>
      <point x="760" y="722" type="line"/>
      <point x="775" y="584"/>
      <point x="797" y="444"/>
      <point x="811" y="345" type="curve" smooth="yes"/>
      <point x="845" y="130" type="line" smooth="yes"/>
      <point x="863" y="8"/>
      <point x="921" y="-12"/>
      <point x="1041" y="-12" type="curve" smooth="yes"/>
      <point x="1114" y="-12"/>
      <point x="1208" y="-10"/>
      <point x="1271" y="0" type="curve"/>
      <point x="1504" y="965" type="line"/>
      <point x="1495" y="984" type="line"/>
      <point x="1451" y="1006"/>
      <point x="1372" y="1010"/>
      <point x="1329" y="1010" type="curve" smooth="yes"/>
      <point x="1292" y="1010"/>
      <point x="1244" y="1006"/>
      <point x="1210" y="997" type="curve"/>
      <point x="1121" y="560" type="line" smooth="yes"/>
      <point x="1097" y="436"/>
      <point x="1080" y="322"/>
      <point x="1066" y="231" type="curve"/>
      <point x="1055" y="231"/>
      <point x="1053" y="235"/>
      <point x="1050" y="247" type="curve" smooth="yes"/>
      <point x="937" y="987" type="line"/>
      <point x="890" y="999"/>
      <point x="793" y="1003"/>
      <point x="752" y="1003" type="curve" smooth="yes"/>
      <point x="714" y="1003"/>
      <point x="622" y="999"/>
      <point x="572" y="987" type="curve"/>
      <point x="462" y="231" type="line"/>
      <point x="450" y="231"/>
      <point x="448" y="235"/>
      <point x="446" y="247" type="curve" smooth="yes"/>
      <point x="439" y="316"/>
      <point x="420" y="430"/>
      <point x="394" y="560" type="curve" smooth="yes"/>
      <point x="332" y="883" type="line" smooth="yes"/>
      <point x="315" y="968"/>
      <point x="283" y="1016"/>
      <point x="183" y="1016" type="curve" smooth="yes"/>
      <point x="128" y="1016"/>
      <point x="69" y="1003"/>
    </contour>
  </outline>
</glyph>
<glyph name="x" format="2">
  <advance width="962"/>
  <unicode hex="0078"/>
  <anchor x="479" y="1084" name="top"/>
  <outline>
    <contour>
      <point x="26" y="949" type="curve"/>
      <point x="590" y="76" type="line"/>
      <point x="630" y="13"/>
      <point x="676" y="-18"/>
      <point x="754" y="-18" type="curve" smooth="yes"/>
      <point x="824" y="-18"/>
      <point x="905" y="10"/>
      <point x="966" y="51" type="curve"/>
      <point x="396" y="921" type="line" smooth="yes"/>
      <point x="354" y="986"/>
      <point x="316" y="1018"/>
      <point x="238" y="1018" type="curve" smooth="yes"/>
      <point x="173" y="1018"/>
      <point x="94" y="998"/>
    </contour>
    <contour>
      <point x="648" y="998" type="curve"/>
      <point x="443" y="661" type="line"/>
      <point x="364" y="590" type="line"/>
      <point x="4" y="31" type="line"/>
      <point x="13" y="11" type="line"/>
      <point x="60" y="-6"/>
      <point x="118" y="-12"/>
      <point x="179" y="-12" type="curve" smooth="yes"/>
      <point x="224" y="-12"/>
      <point x="268" y="-10"/>
      <point x="300" y="0" type="curve"/>
      <point x="523" y="378" type="line"/>
      <point x="596" y="450" type="line"/>
      <point x="933" y="968" type="line"/>
      <point x="925" y="989" type="line"/>
      <point x="878" y="1002"/>
      <point x="828" y="1010"/>
      <point x="770" y="1010" type="curve" smooth="yes"/>
      <point x="727" y="1010"/>
      <point x="682" y="1006"/>
    </contour>
  </outline>
</glyph>
<glyph name="y" format="2">
  <advance width="994"/>
  <unicode hex="0079"/>
  <anchor x="876" y="-25" name="bottom"/>
  <anchor x="494" y="1084" name="top"/>
  <outline>
    <contour>
      <point x="737" y="27" type="curve" smooth="yes"/>
      <point x="984" y="966" type="line"/>
      <point x="972" y="987" type="line"/>
      <point x="916" y="1006"/>
      <point x="859" y="1010"/>
      <point x="805" y="1010" type="curve" smooth="yes"/>
      <point x="766" y="1010"/>
      <point x="717" y="1006"/>
      <point x="682" y="997" type="curve"/>
      <point x="508" y="221" type="line"/>
      <point x="498" y="221"/>
      <point x="493" y="223"/>
      <point x="491" y="235" type="curve" smooth="yes"/>
      <point x="482" y="300"/>
      <point x="464" y="430"/>
      <point x="447" y="497" type="curve" smooth="yes"/>
      <point x="353" y="882" type="line" smooth="yes"/>
      <point x="328" y="986"/>
      <point x="278" y="1016"/>
      <point x="202" y="1016" type="curve" smooth="yes"/>
      <point x="150" y="1016"/>
      <point x="73" y="1003"/>
      <point x="9" y="974" type="curve"/>
      <point x="242" y="112" type="line" smooth="yes"/>
      <point x="268" y="18"/>
      <point x="342" y="-13"/>
      <point x="450" y="-14" type="curve"/>
      <point x="442" y="-43" type="line" smooth="yes"/>
      <point x="412" y="-144"/>
      <point x="347" y="-205"/>
      <point x="246" y="-205" type="curve" smooth="yes"/>
      <point x="180" y="-205"/>
      <point x="109" y="-188"/>
      <point x="66" y="-174" type="curve"/>
      <point x="24" y="-222"/>
      <point x="-4" y="-326"/>
      <point x="3" y="-397" type="curve"/>
      <point x="57" y="-416"/>
      <point x="166" y="-438"/>
      <point x="246" y="-438" type="curve" smooth="yes"/>
      <point x="557" y="-438"/>
      <point x="665" y="-246"/>
    </contour>
  </outline>
</glyph>
<glyph name="z" format="2">
  <advance width="899"/>
  <unicode hex="007A"/>
  <anchor x="450" y="0" name="bottom"/>
  <anchor x="450" y="1084" name="top"/>
  <outline>
    <contour>
      <point x="330" y="584" type="curve" smooth="yes"/>
      <point x="93" y="268" type="line" smooth="yes"/>
      <point x="61" y="225"/>
      <point x="49" y="187"/>
      <point x="49" y="152" type="curve" smooth="yes"/>
      <point x="49" y="116"/>
      <point x="59" y="74"/>
      <point x="84" y="0" type="curve"/>
      <point x="687" y="0" type="line" smooth="yes"/>
      <point x="811" y="0"/>
      <point x="854" y="55"/>
      <point x="854" y="138" type="curve" smooth="yes"/>
      <point x="854" y="180"/>
      <point x="844" y="214"/>
      <point x="822" y="267" type="curve"/>
      <point x="766" y="240"/>
      <point x="696" y="234"/>
      <point x="635" y="234" type="curve" smooth="yes"/>
      <point x="566" y="234" type="line" smooth="yes"/>
      <point x="516" y="234"/>
      <point x="465" y="230"/>
      <point x="408" y="222" type="curve"/>
      <point x="402" y="232" type="line"/>
      <point x="453" y="285"/>
      <point x="508" y="354"/>
      <point x="553" y="412" type="curve" smooth="yes"/>
      <point x="798" y="735" type="line" smooth="yes"/>
      <point x="819" y="761"/>
      <point x="827" y="799"/>
      <point x="827" y="827" type="curve" smooth="yes"/>
      <point x="827" y="871"/>
      <point x="812" y="923"/>
      <point x="787" y="998" type="curve"/>
      <point x="89" y="998" type="line"/>
      <point x="79" y="956"/>
      <point x="72" y="909"/>
      <point x="72" y="862" type="curve" smooth="yes"/>
      <point x="72" y="832"/>
      <point x="76" y="797"/>
      <point x="83" y="767" type="curve"/>
      <point x="237" y="767" type="line" smooth="yes"/>
      <point x="310" y="767"/>
      <point x="412" y="774"/>
      <point x="486" y="782" type="curve"/>
      <point x="492" y="772" type="line"/>
      <point x="447" y="723"/>
      <point x="378" y="648"/>
    </contour>
  </outline>
</glyph>
<glyph name="braceleft" format="2">
  <advance width="797"/>
  <unicode hex="007B"/>
  <outline>
    <contour>
      <point x="89" y="655" type="curve"/>
      <point x="70" y="605"/>
      <point x="70" y="505"/>
      <point x="89" y="456" type="curve"/>
      <point x="188" y="438"/>
      <point x="259" y="341"/>
      <point x="259" y="237" type="curve" smooth="yes"/>
      <point x="259" y="-83" type="line" smooth="yes"/>
      <point x="259" y="-293"/>
      <point x="394" y="-410"/>
      <point x="581" y="-439" type="curve" smooth="yes"/>
      <point x="715" y="-461" type="line"/>
      <point x="757" y="-415"/>
      <point x="785" y="-306"/>
      <point x="774" y="-259" type="curve"/>
      <point x="653" y="-218" type="line" smooth="yes"/>
      <point x="612" y="-205"/>
      <point x="572" y="-158"/>
      <point x="572" y="-81" type="curve" smooth="yes"/>
      <point x="572" y="233" type="line" smooth="yes"/>
      <point x="572" y="370"/>
      <point x="502" y="501"/>
      <point x="395" y="547" type="curve"/>
      <point x="395" y="563" type="line"/>
      <point x="502" y="610"/>
      <point x="572" y="741"/>
      <point x="572" y="877" type="curve" smooth="yes"/>
      <point x="572" y="1192" type="line" smooth="yes"/>
      <point x="572" y="1268"/>
      <point x="612" y="1316"/>
      <point x="653" y="1329" type="curve" smooth="yes"/>
      <point x="774" y="1370" type="line"/>
      <point x="785" y="1417"/>
      <point x="757" y="1525"/>
      <point x="715" y="1571" type="curve"/>
      <point x="581" y="1550" type="line" smooth="yes"/>
      <point x="394" y="1520"/>
      <point x="259" y="1403"/>
      <point x="259" y="1194" type="curve" smooth="yes"/>
      <point x="259" y="873" type="line" smooth="yes"/>
      <point x="259" y="769"/>
      <point x="188" y="672"/>
    </contour>
  </outline>
</glyph>
<glyph name="bar" format="2">
  <advance width="540"/>
  <unicode hex="007C"/>
  <outline>
    <contour>
      <point x="125" y="1546" type="curve"/>
      <point x="125" y="-284" type="line"/>
      <point x="170" y="-295"/>
      <point x="240" y="-297"/>
      <point x="273" y="-297" type="curve" smooth="yes"/>
      <point x="310" y="-297"/>
      <point x="367" y="-295"/>
      <point x="415" y="-284" type="curve"/>
      <point x="415" y="1546" type="line"/>
      <point x="367" y="1558"/>
      <point x="310" y="1560"/>
      <point x="273" y="1560" type="curve" smooth="yes"/>
      <point x="240" y="1560"/>
      <point x="170" y="1558"/>
    </contour>
  </outline>
</glyph>
<glyph name="braceright" format="2">
  <advance width="797"/>
  <unicode hex="007D"/>
  <outline>
    <contour>
      <point x="708" y="655" type="curve"/>
      <point x="727" y="605"/>
      <point x="727" y="505"/>
      <point x="708" y="456" type="curve"/>
      <point x="609" y="438"/>
      <point x="539" y="341"/>
      <point x="539" y="237" type="curve" smooth="yes"/>
      <point x="539" y="-83" type="line" smooth="yes"/>
      <point x="539" y="-293"/>
      <point x="403" y="-410"/>
      <point x="216" y="-439" type="curve" smooth="yes"/>
      <point x="82" y="-461" type="line"/>
      <point x="40" y="-415"/>
      <point x="12" y="-306"/>
      <point x="24" y="-259" type="curve"/>
      <point x="144" y="-218" type="line" smooth="yes"/>
      <point x="185" y="-205"/>
      <point x="225" y="-158"/>
      <point x="225" y="-81" type="curve" smooth="yes"/>
      <point x="225" y="233" type="line" smooth="yes"/>
      <point x="225" y="370"/>
      <point x="295" y="501"/>
      <point x="402" y="547" type="curve"/>
      <point x="402" y="563" type="line"/>
      <point x="295" y="610"/>
      <point x="225" y="741"/>
      <point x="225" y="877" type="curve" smooth="yes"/>
      <point x="225" y="1192" type="line" smooth="yes"/>
      <point x="225" y="1268"/>
      <point x="185" y="1316"/>
      <point x="144" y="1329" type="curve" smooth="yes"/>
      <point x="24" y="1370" type="line"/>
      <point x="12" y="1417"/>
      <point x="40" y="1525"/>
      <point x="82" y="1571" type="curve"/>
      <point x="216" y="1550" type="line" smooth="yes"/>
      <point x="403" y="1520"/>
      <point x="539" y="1403"/>
      <point x="539" y="1194" type="curve" smooth="yes"/>
      <point x="539" y="873" type="line" smooth="yes"/>
      <point x="539" y="769"/>
      <point x="609" y="672"/>
    </contour>
  </outline>
</glyph>
<glyph name="asciitilde" format="2">
  <advance width="1265"/>
  <unicode hex="007E"/>
  <outline>
    <contour>
      <point x="769" y="694" type="curve" smooth="yes"/>
      <point x="603" y="770" type="line" smooth="yes"/>
      <point x="540" y="797"/>
      <point x="480" y="812"/>
      <point x="424" y="812" type="curve" smooth="yes"/>
      <point x="286" y="812"/>
      <point x="177" y="730"/>
      <point x="102" y="606" type="curve" smooth="yes"/>
      <point x="62" y="539" type="line"/>
      <point x="93" y="468"/>
      <point x="184" y="424"/>
      <point x="247" y="418" type="curve"/>
      <point x="298" y="471" type="line" smooth="yes"/>
      <point x="330" y="506"/>
      <point x="366" y="525"/>
      <point x="407" y="525" type="curve" smooth="yes"/>
      <point x="434" y="525"/>
      <point x="463" y="517"/>
      <point x="495" y="502" type="curve" smooth="yes"/>
      <point x="662" y="427" type="line" smooth="yes"/>
      <point x="725" y="399"/>
      <point x="785" y="385"/>
      <point x="841" y="385" type="curve" smooth="yes"/>
      <point x="978" y="385"/>
      <point x="1088" y="467"/>
      <point x="1162" y="591" type="curve" smooth="yes"/>
      <point x="1202" y="658" type="line"/>
      <point x="1172" y="729"/>
      <point x="1081" y="773"/>
      <point x="1017" y="778" type="curve"/>
      <point x="967" y="726" type="line" smooth="yes"/>
      <point x="935" y="691"/>
      <point x="898" y="672"/>
      <point x="857" y="672" type="curve" smooth="yes"/>
      <point x="831" y="672"/>
      <point x="802" y="680"/>
    </contour>
  </outline>
</glyph>
<glyph name="cent" format="2">
  <advance width="1080"/>
  <unicode hex="00A2"/>
  <outline>
    <contour>
      <point x="563" y="-55" type="curve" smooth="yes"/>
      <point x="601" y="-55"/>
      <point x="646" y="-51"/>
      <point x="675" y="-44" type="curve"/>
      <point x="675" y="282" type="line"/>
      <point x="451" y="282" type="line"/>
      <point x="451" y="-44" type="line"/>
      <point x="480" y="-51"/>
      <point x="526" y="-55"/>
    </contour>
    <contour>
      <point x="457" y="975" type="line"/>
      <point x="681" y="975" type="line"/>
      <point x="681" y="1310" type="line"/>
      <point x="652" y="1317"/>
      <point x="608" y="1321"/>
      <point x="569" y="1321" type="curve" smooth="yes"/>
      <point x="531" y="1321"/>
      <point x="486" y="1317"/>
      <point x="457" y="1310" type="curve"/>
    </contour>
    <contour>
      <point x="576" y="131" type="curve" smooth="yes"/>
      <point x="719" y="131"/>
      <point x="896" y="201"/>
      <point x="976" y="301" type="curve"/>
      <point x="959" y="363"/>
      <point x="904" y="437"/>
      <point x="853" y="472" type="curve"/>
      <point x="792" y="419"/>
      <point x="699" y="378"/>
      <point x="625" y="378" type="curve" smooth="yes"/>
      <point x="502" y="378"/>
      <point x="415" y="443"/>
      <point x="415" y="632" type="curve" smooth="yes"/>
      <point x="415" y="811"/>
      <point x="460" y="904"/>
      <point x="571" y="904" type="curve" smooth="yes"/>
      <point x="675" y="904"/>
      <point x="708" y="786"/>
      <point x="708" y="665" type="curve"/>
      <point x="741" y="655"/>
      <point x="782" y="651"/>
      <point x="814" y="651" type="curve" smooth="yes"/>
      <point x="920" y="651"/>
      <point x="980" y="701"/>
      <point x="980" y="820" type="curve" smooth="yes"/>
      <point x="980" y="998"/>
      <point x="810" y="1135"/>
      <point x="579" y="1135" type="curve" smooth="yes"/>
      <point x="340" y="1135"/>
      <point x="104" y="994"/>
      <point x="104" y="632" type="curve" smooth="yes"/>
      <point x="104" y="400"/>
      <point x="207" y="131"/>
    </contour>
  </outline>
</glyph>
<glyph name="sterling" format="2">
  <advance width="1080"/>
  <unicode hex="00A3"/>
  <guideline x="127" y="162" angle="90.0"/>
  <outline>
    <contour>
      <point x="165" y="0" type="curve"/>
      <point x="789" y="0" type="line" smooth="yes"/>
      <point x="934" y="0"/>
      <point x="996" y="62"/>
      <point x="996" y="254" type="curve"/>
      <point x="817" y="254" type="line" smooth="yes"/>
      <point x="677" y="254"/>
      <point x="551" y="253"/>
      <point x="443" y="239" type="curve"/>
      <point x="438" y="244" type="line"/>
      <point x="525" y="327"/>
      <point x="577" y="430"/>
      <point x="577" y="529" type="curve" smooth="yes"/>
      <point x="577" y="683"/>
      <point x="516" y="787"/>
      <point x="516" y="891" type="curve" smooth="yes"/>
      <point x="516" y="1009"/>
      <point x="591" y="1044"/>
      <point x="663" y="1044" type="curve" smooth="yes"/>
      <point x="727" y="1044"/>
      <point x="791" y="1005"/>
      <point x="841" y="964" type="curve"/>
      <point x="908" y="1001"/>
      <point x="967" y="1088"/>
      <point x="983" y="1162" type="curve"/>
      <point x="890" y="1245"/>
      <point x="767" y="1299"/>
      <point x="634" y="1299" type="curve" smooth="yes"/>
      <point x="383" y="1299"/>
      <point x="211" y="1134"/>
      <point x="211" y="919" type="curve" smooth="yes"/>
      <point x="211" y="756"/>
      <point x="300" y="668"/>
      <point x="300" y="503" type="curve" smooth="yes"/>
      <point x="300" y="421"/>
      <point x="261" y="365"/>
      <point x="219" y="319" type="curve" smooth="yes"/>
      <point x="195" y="293" type="line" smooth="yes"/>
      <point x="161" y="256"/>
      <point x="127" y="219"/>
      <point x="127" y="164" type="curve" smooth="yes"/>
      <point x="127" y="129"/>
      <point x="133" y="90"/>
    </contour>
    <contour>
      <point x="138" y="508" type="curve"/>
      <point x="421" y="510" type="line"/>
      <point x="836" y="508" type="line"/>
      <point x="844" y="536"/>
      <point x="848" y="581"/>
      <point x="848" y="619" type="curve" smooth="yes"/>
      <point x="848" y="656"/>
      <point x="844" y="700"/>
      <point x="836" y="728" type="curve"/>
      <point x="421" y="726" type="line"/>
      <point x="138" y="728" type="line"/>
      <point x="131" y="700"/>
      <point x="127" y="661"/>
      <point x="127" y="618" type="curve" smooth="yes"/>
      <point x="127" y="577"/>
      <point x="131" y="536"/>
    </contour>
  </outline>
</glyph>
<glyph name="currency" format="2">
  <advance width="1080"/>
  <unicode hex="00A4"/>
  <outline>
    <contour>
      <point x="537" y="228" type="curve" smooth="yes"/>
      <point x="778" y="228"/>
      <point x="945" y="387"/>
      <point x="945" y="632" type="curve" smooth="yes"/>
      <point x="945" y="879"/>
      <point x="778" y="1038"/>
      <point x="537" y="1038" type="curve" smooth="yes"/>
      <point x="298" y="1038"/>
      <point x="131" y="879"/>
      <point x="131" y="632" type="curve" smooth="yes"/>
      <point x="131" y="387"/>
      <point x="298" y="228"/>
    </contour>
    <contour>
      <point x="537" y="439" type="curve" smooth="yes"/>
      <point x="436" y="439"/>
      <point x="401" y="527"/>
      <point x="401" y="632" type="curve" smooth="yes"/>
      <point x="401" y="742"/>
      <point x="436" y="827"/>
      <point x="537" y="827" type="curve" smooth="yes"/>
      <point x="640" y="827"/>
      <point x="676" y="742"/>
      <point x="676" y="632" type="curve" smooth="yes"/>
      <point x="676" y="524"/>
      <point x="640" y="439"/>
    </contour>
    <contour>
      <point x="194" y="125" type="curve"/>
      <point x="448" y="348" type="line"/>
      <point x="262" y="535" type="line"/>
      <point x="37" y="283" type="line"/>
      <point x="75" y="223"/>
      <point x="134" y="160"/>
    </contour>
    <contour>
      <point x="262" y="726" type="line"/>
      <point x="444" y="912" type="line"/>
      <point x="194" y="1135" type="line"/>
      <point x="134" y="1099"/>
      <point x="69" y="1039"/>
      <point x="37" y="978" type="curve"/>
    </contour>
    <contour>
      <point x="820" y="729" type="line"/>
      <point x="1043" y="983" type="line"/>
      <point x="1005" y="1043"/>
      <point x="946" y="1105"/>
      <point x="886" y="1141" type="curve"/>
      <point x="634" y="916" type="line"/>
    </contour>
    <contour>
      <point x="880" y="123" type="line"/>
      <point x="944" y="161"/>
      <point x="1003" y="221"/>
      <point x="1038" y="281" type="curve"/>
      <point x="814" y="531" type="line"/>
      <point x="628" y="348" type="line"/>
    </contour>
  </outline>
</glyph>
<glyph name="yen" format="2">
  <advance width="1080"/>
  <unicode hex="00A5"/>
  <guideline x="584" y="732" angle="156.53465600000004"/>
  <outline>
    <contour>
      <point x="388" y="441" type="line"/>
      <point x="679" y="441" type="line"/>
      <point x="1028" y="1239" type="line"/>
      <point x="1018" y="1263" type="line"/>
      <point x="959" y="1278"/>
      <point x="905" y="1282"/>
      <point x="857" y="1282" type="curve" smooth="yes"/>
      <point x="820" y="1282"/>
      <point x="785" y="1280"/>
      <point x="745" y="1268" type="curve"/>
      <point x="644" y="1004" type="line" smooth="yes"/>
      <point x="617" y="932"/>
      <point x="579" y="827"/>
      <point x="549" y="725" type="curve"/>
      <point x="538" y="725" type="line"/>
      <point x="509" y="840"/>
      <point x="478" y="933"/>
      <point x="453" y="1004" type="curve" smooth="yes"/>
      <point x="389" y="1180" type="line" smooth="yes"/>
      <point x="362" y="1258"/>
      <point x="322" y="1291"/>
      <point x="251" y="1291" type="curve" smooth="yes"/>
      <point x="185" y="1291"/>
      <point x="106" y="1265"/>
      <point x="52" y="1238" type="curve"/>
    </contour>
    <contour>
      <point x="537" y="-12" type="curve" smooth="yes"/>
      <point x="576" y="-12"/>
      <point x="633" y="-10"/>
      <point x="686" y="0" type="curve"/>
      <point x="686" y="531" type="line"/>
      <point x="381" y="531" type="line"/>
      <point x="381" y="0" type="line"/>
      <point x="432" y="-10"/>
      <point x="501" y="-12"/>
    </contour>
    <contour>
      <point x="114" y="277" type="curve"/>
      <point x="954" y="277" type="line"/>
      <point x="962" y="307"/>
      <point x="967" y="342"/>
      <point x="967" y="379" type="curve" smooth="yes"/>
      <point x="967" y="415"/>
      <point x="962" y="450"/>
      <point x="954" y="479" type="curve"/>
      <point x="114" y="479" type="line"/>
      <point x="107" y="452"/>
      <point x="102" y="416"/>
      <point x="102" y="379" type="curve" smooth="yes"/>
      <point x="102" y="339"/>
      <point x="107" y="306"/>
    </contour>
    <contour>
      <point x="114" y="599" type="curve"/>
      <point x="394" y="599" type="line"/>
      <point x="394" y="805" type="line"/>
      <point x="114" y="805" type="line"/>
      <point x="107" y="776"/>
      <point x="102" y="741"/>
      <point x="102" y="702" type="curve" smooth="yes"/>
      <point x="102" y="663"/>
      <point x="107" y="628"/>
    </contour>
    <contour>
      <point x="674" y="599" type="line"/>
      <point x="954" y="599" type="line"/>
      <point x="962" y="629"/>
      <point x="967" y="665"/>
      <point x="967" y="702" type="curve" smooth="yes"/>
      <point x="967" y="746"/>
      <point x="960" y="782"/>
      <point x="954" y="805" type="curve"/>
      <point x="674" y="805" type="line"/>
    </contour>
  </outline>
</glyph>
<glyph name="brokenbar" format="2">
  <advance width="528"/>
  <unicode hex="00A6"/>
  <outline>
    <contour>
      <point x="121" y="490" type="curve"/>
      <point x="121" y="-284" type="line"/>
      <point x="166" y="-295"/>
      <point x="234" y="-297"/>
      <point x="267" y="-297" type="curve" smooth="yes"/>
      <point x="304" y="-297"/>
      <point x="360" y="-295"/>
      <point x="407" y="-284" type="curve"/>
      <point x="407" y="490" type="line"/>
      <point x="360" y="502"/>
      <point x="304" y="504"/>
      <point x="267" y="504" type="curve" smooth="yes"/>
      <point x="234" y="504"/>
      <point x="166" y="502"/>
    </contour>
    <contour>
      <point x="121" y="1546" type="curve"/>
      <point x="121" y="772" type="line"/>
      <point x="166" y="761"/>
      <point x="234" y="759"/>
      <point x="267" y="759" type="curve" smooth="yes"/>
      <point x="304" y="759"/>
      <point x="360" y="761"/>
      <point x="407" y="772" type="curve"/>
      <point x="407" y="1546" type="line"/>
      <point x="360" y="1558"/>
      <point x="304" y="1560"/>
      <point x="267" y="1560" type="curve" smooth="yes"/>
      <point x="234" y="1560"/>
      <point x="166" y="1558"/>
    </contour>
  </outline>
</glyph>
<glyph name="section" format="2">
  <advance width="1000"/>
  <unicode hex="00A7"/>
  <outline>
    <contour>
      <point x="513" y="403" type="curve"/>
      <point x="606" y="257" type="line"/>
      <point x="794" y="323"/>
      <point x="950" y="460"/>
      <point x="950" y="622" type="curve" smooth="yes"/>
      <point x="950" y="805"/>
      <point x="802" y="897"/>
      <point x="621" y="972" type="curve" smooth="yes"/>
      <point x="507" y="1020" type="line" smooth="yes"/>
      <point x="453" y="1041"/>
      <point x="426" y="1063"/>
      <point x="426" y="1100" type="curve" smooth="yes"/>
      <point x="426" y="1143"/>
      <point x="468" y="1169"/>
      <point x="526" y="1169" type="curve" smooth="yes"/>
      <point x="600" y="1169"/>
      <point x="680" y="1144"/>
      <point x="762" y="1111" type="curve"/>
      <point x="812" y="1148"/>
      <point x="854" y="1249"/>
      <point x="848" y="1322" type="curve"/>
      <point x="761" y="1362"/>
      <point x="634" y="1396"/>
      <point x="512" y="1396" type="curve" smooth="yes"/>
      <point x="273" y="1396"/>
      <point x="119" y="1249"/>
      <point x="119" y="1074" type="curve" smooth="yes"/>
      <point x="119" y="923"/>
      <point x="226" y="828"/>
      <point x="375" y="769" type="curve" smooth="yes"/>
      <point x="463" y="734" type="line" smooth="yes"/>
      <point x="575" y="690"/>
      <point x="653" y="640"/>
      <point x="653" y="566" type="curve" smooth="yes"/>
      <point x="653" y="493"/>
      <point x="589" y="430"/>
    </contour>
    <contour>
      <point x="490" y="761" type="curve"/>
      <point x="398" y="907" type="line"/>
      <point x="210" y="841"/>
      <point x="53" y="704"/>
      <point x="53" y="542" type="curve" smooth="yes"/>
      <point x="53" y="358"/>
      <point x="202" y="267"/>
      <point x="382" y="192" type="curve" smooth="yes"/>
      <point x="497" y="144" type="line" smooth="yes"/>
      <point x="550" y="123"/>
      <point x="577" y="97"/>
      <point x="577" y="60" type="curve" smooth="yes"/>
      <point x="577" y="18"/>
      <point x="536" y="-9"/>
      <point x="477" y="-9" type="curve" smooth="yes"/>
      <point x="384" y="-9"/>
      <point x="282" y="27"/>
      <point x="209" y="60" type="curve"/>
      <point x="159" y="23"/>
      <point x="118" y="-78"/>
      <point x="123" y="-151" type="curve"/>
      <point x="218" y="-205"/>
      <point x="355" y="-235"/>
      <point x="480" y="-235" type="curve" smooth="yes"/>
      <point x="731" y="-235"/>
      <point x="885" y="-89"/>
      <point x="885" y="86" type="curve" smooth="yes"/>
      <point x="885" y="237"/>
      <point x="778" y="336"/>
      <point x="629" y="395" type="curve" smooth="yes"/>
      <point x="541" y="430" type="line" smooth="yes"/>
      <point x="420" y="477"/>
      <point x="350" y="524"/>
      <point x="350" y="598" type="curve" smooth="yes"/>
      <point x="350" y="670"/>
      <point x="415" y="734"/>
    </contour>
  </outline>
</glyph>
<glyph name="copyright" format="2">
  <advance width="1578"/>
  <unicode hex="00A9"/>
  <outline>
    <contour>
      <point x="63" y="682" type="curve" smooth="yes"/>
      <point x="63" y="272"/>
      <point x="378" y="-43"/>
      <point x="788" y="-43" type="curve" smooth="yes"/>
      <point x="1198" y="-43"/>
      <point x="1515" y="272"/>
      <point x="1515" y="682" type="curve" smooth="yes"/>
      <point x="1515" y="1092"/>
      <point x="1198" y="1409"/>
      <point x="788" y="1409" type="curve" smooth="yes"/>
      <point x="378" y="1409"/>
      <point x="63" y="1092"/>
    </contour>
    <contour>
      <point x="296" y="682" type="curve" smooth="yes"/>
      <point x="296" y="972"/>
      <point x="498" y="1204"/>
      <point x="788" y="1204" type="curve" smooth="yes"/>
      <point x="1078" y="1204"/>
      <point x="1282" y="972"/>
      <point x="1282" y="682" type="curve" smooth="yes"/>
      <point x="1282" y="392"/>
      <point x="1078" y="162"/>
      <point x="788" y="162" type="curve" smooth="yes"/>
      <point x="498" y="162"/>
      <point x="296" y="392"/>
    </contour>
    <contour>
      <point x="876" y="728" type="curve"/>
      <point x="895" y="721"/>
      <point x="934" y="717"/>
      <point x="961" y="717" type="curve" smooth="yes"/>
      <point x="1048" y="717"/>
      <point x="1090" y="756"/>
      <point x="1090" y="839" type="curve" smooth="yes"/>
      <point x="1090" y="971"/>
      <point x="964" y="1071"/>
      <point x="794" y="1071" type="curve" smooth="yes"/>
      <point x="629" y="1071"/>
      <point x="445" y="969"/>
      <point x="445" y="684" type="curve" smooth="yes"/>
      <point x="445" y="495"/>
      <point x="523" y="297"/>
      <point x="793" y="297" type="curve" smooth="yes"/>
      <point x="891" y="297"/>
      <point x="1018" y="345"/>
      <point x="1078" y="408" type="curve"/>
      <point x="1072" y="456"/>
      <point x="1035" y="518"/>
      <point x="996" y="544" type="curve"/>
      <point x="942" y="513"/>
      <point x="881" y="482"/>
      <point x="833" y="482" type="curve" smooth="yes"/>
      <point x="738" y="482"/>
      <point x="685" y="549"/>
      <point x="685" y="684" type="curve" smooth="yes"/>
      <point x="685" y="826"/>
      <point x="714" y="899"/>
      <point x="784" y="899" type="curve" smooth="yes"/>
      <point x="862" y="899"/>
      <point x="876" y="813"/>
    </contour>
  </outline>
</glyph>
<glyph name="ordfeminine" format="2">
  <advance width="915"/>
  <unicode hex="00AA"/>
  <outline>
    <contour>
      <point x="78" y="690" type="curve" smooth="yes"/>
      <point x="78" y="560"/>
      <point x="172" y="442"/>
      <point x="332" y="442" type="curve" smooth="yes"/>
      <point x="475" y="442"/>
      <point x="569" y="533"/>
      <point x="636" y="606" type="curve"/>
      <point x="595" y="762" type="line"/>
      <point x="548" y="687"/>
      <point x="469" y="631"/>
      <point x="409" y="631" type="curve" smooth="yes"/>
      <point x="360" y="631"/>
      <point x="328" y="665"/>
      <point x="328" y="705" type="curve" smooth="yes"/>
      <point x="328" y="766"/>
      <point x="360" y="803"/>
      <point x="425" y="803" type="curve" smooth="yes"/>
      <point x="474" y="803"/>
      <point x="546" y="799"/>
      <point x="596" y="794" type="curve"/>
      <point x="596" y="956" type="line"/>
      <point x="532" y="961"/>
      <point x="450" y="967"/>
      <point x="401" y="967" type="curve" smooth="yes"/>
      <point x="225" y="967"/>
      <point x="78" y="882"/>
    </contour>
    <contour>
      <point x="840" y="589" type="curve"/>
      <point x="798" y="609"/>
      <point x="785" y="648"/>
      <point x="785" y="701" type="curve" smooth="yes"/>
      <point x="785" y="1018" type="line" smooth="yes"/>
      <point x="785" y="1222"/>
      <point x="630" y="1296"/>
      <point x="490" y="1296" type="curve" smooth="yes"/>
      <point x="379" y="1296"/>
      <point x="228" y="1267"/>
      <point x="119" y="1222" type="curve"/>
      <point x="123" y="1160"/>
      <point x="143" y="1096"/>
      <point x="181" y="1054" type="curve"/>
      <point x="271" y="1081"/>
      <point x="339" y="1101"/>
      <point x="416" y="1101" type="curve" smooth="yes"/>
      <point x="461" y="1101"/>
      <point x="513" y="1075"/>
      <point x="513" y="1010" type="curve" smooth="yes"/>
      <point x="513" y="719" type="line" smooth="yes"/>
      <point x="513" y="554"/>
      <point x="605" y="454"/>
      <point x="745" y="452" type="curve"/>
      <point x="792" y="477"/>
      <point x="834" y="538"/>
    </contour>
  </outline>
</glyph>
<glyph name="logicalnot" format="2">
  <advance width="1080"/>
  <unicode hex="00AC"/>
  <outline>
    <contour>
      <point x="105" y="773" type="curve"/>
      <point x="954" y="773" type="line"/>
      <point x="968" y="760" type="line"/>
      <point x="968" y="524" type="line"/>
      <point x="711" y="526" type="line" smooth="yes"/>
      <point x="660" y="526"/>
      <point x="620" y="524"/>
      <point x="567" y="524" type="curve" smooth="yes"/>
      <point x="105" y="524" type="line"/>
      <point x="94" y="566"/>
      <point x="92" y="623"/>
      <point x="92" y="649" type="curve" smooth="yes"/>
      <point x="92" y="675"/>
      <point x="94" y="731"/>
    </contour>
    <contour>
      <point x="703" y="554" type="curve" smooth="yes"/>
      <point x="701" y="667" type="line"/>
      <point x="968" y="667" type="line"/>
      <point x="968" y="289" type="line"/>
      <point x="926" y="280"/>
      <point x="884" y="278"/>
      <point x="839" y="278" type="curve" smooth="yes"/>
      <point x="795" y="278"/>
      <point x="754" y="280"/>
      <point x="701" y="289" type="curve"/>
      <point x="701" y="400" type="line" smooth="yes"/>
      <point x="701" y="453"/>
      <point x="704" y="503"/>
    </contour>
  </outline>
</glyph>
<glyph name="registered" format="2">
  <advance width="1203"/>
  <unicode hex="00AE"/>
  <outline>
    <contour>
      <point x="54" y="939" type="curve" smooth="yes"/>
      <point x="54" y="631"/>
      <point x="293" y="393"/>
      <point x="601" y="393" type="curve" smooth="yes"/>
      <point x="909" y="393"/>
      <point x="1149" y="631"/>
      <point x="1149" y="939" type="curve" smooth="yes"/>
      <point x="1149" y="1247"/>
      <point x="909" y="1488"/>
      <point x="601" y="1488" type="curve" smooth="yes"/>
      <point x="293" y="1488"/>
      <point x="54" y="1247"/>
    </contour>
    <contour>
      <point x="234" y="939" type="curve" smooth="yes"/>
      <point x="234" y="1150"/>
      <point x="389" y="1323"/>
      <point x="601" y="1323" type="curve" smooth="yes"/>
      <point x="812" y="1323"/>
      <point x="969" y="1150"/>
      <point x="969" y="939" type="curve" smooth="yes"/>
      <point x="969" y="728"/>
      <point x="812" y="557"/>
      <point x="601" y="557" type="curve" smooth="yes"/>
      <point x="389" y="557"/>
      <point x="234" y="728"/>
    </contour>
    <contour>
      <point x="819" y="1058" type="curve" smooth="yes"/>
      <point x="819" y="1134"/>
      <point x="766" y="1205"/>
      <point x="615" y="1205" type="curve" smooth="yes"/>
      <point x="549" y="1205"/>
      <point x="473" y="1201"/>
      <point x="399" y="1199" type="curve"/>
      <point x="393" y="1195" type="line"/>
      <point x="393" y="701" type="line"/>
      <point x="411" y="695"/>
      <point x="441" y="692"/>
      <point x="471" y="692" type="curve" smooth="yes"/>
      <point x="501" y="692"/>
      <point x="530" y="695"/>
      <point x="548" y="701" type="curve"/>
      <point x="548" y="1088" type="line"/>
      <point x="570" y="1088"/>
      <point x="576" y="1088"/>
      <point x="598" y="1088" type="curve" smooth="yes"/>
      <point x="637" y="1088"/>
      <point x="654" y="1066"/>
      <point x="654" y="1041" type="curve" smooth="yes"/>
      <point x="654" y="1014"/>
      <point x="639" y="991"/>
      <point x="592" y="991" type="curve" smooth="yes"/>
      <point x="574" y="991"/>
      <point x="509" y="989"/>
      <point x="476" y="989" type="curve"/>
      <point x="476" y="872" type="line"/>
      <point x="560" y="872" type="line" smooth="yes"/>
      <point x="592" y="872"/>
      <point x="601" y="862"/>
      <point x="614" y="838" type="curve" smooth="yes"/>
      <point x="656" y="752" type="line" smooth="yes"/>
      <point x="678" y="709"/>
      <point x="702" y="691"/>
      <point x="743" y="691" type="curve" smooth="yes"/>
      <point x="784" y="691"/>
      <point x="830" y="714"/>
      <point x="853" y="747" type="curve"/>
      <point x="832" y="759"/>
      <point x="818" y="783"/>
      <point x="806" y="806" type="curve" smooth="yes"/>
      <point x="785" y="850" type="line" smooth="yes"/>
      <point x="771" y="878"/>
      <point x="752" y="909"/>
      <point x="719" y="923" type="curve"/>
      <point x="769" y="935"/>
      <point x="819" y="977"/>
    </contour>
  </outline>
</glyph>
<glyph name="degree" format="2">
  <advance width="800"/>
  <unicode hex="00B0"/>
  <outline>
    <contour>
      <point x="58" y="954" type="curve" smooth="yes"/>
      <point x="58" y="752"/>
      <point x="201" y="612"/>
      <point x="400" y="612" type="curve" smooth="yes"/>
      <point x="599" y="612"/>
      <point x="742" y="752"/>
      <point x="742" y="954" type="curve" smooth="yes"/>
      <point x="742" y="1155"/>
      <point x="599" y="1296"/>
      <point x="400" y="1296" type="curve" smooth="yes"/>
      <point x="201" y="1296"/>
      <point x="58" y="1155"/>
    </contour>
    <contour>
      <point x="274" y="954" type="curve" smooth="yes"/>
      <point x="274" y="1045"/>
      <point x="323" y="1103"/>
      <point x="400" y="1103" type="curve" smooth="yes"/>
      <point x="474" y="1103"/>
      <point x="524" y="1045"/>
      <point x="524" y="954" type="curve" smooth="yes"/>
      <point x="524" y="862"/>
      <point x="474" y="804"/>
      <point x="400" y="804" type="curve" smooth="yes"/>
      <point x="323" y="804"/>
      <point x="274" y="862"/>
    </contour>
  </outline>
</glyph>
<glyph name="plusminus" format="2">
  <advance width="1080"/>
  <unicode hex="00B1"/>
  <outline>
    <contour>
      <point x="137" y="842" type="curve"/>
      <point x="280" y="842" type="line" smooth="yes"/>
      <point x="332" y="842"/>
      <point x="372" y="840"/>
      <point x="421" y="840" type="curve" smooth="yes"/>
      <point x="659" y="840" type="line" smooth="yes"/>
      <point x="708" y="840"/>
      <point x="748" y="842"/>
      <point x="800" y="842" type="curve" smooth="yes"/>
      <point x="943" y="842" type="line"/>
      <point x="953" y="798"/>
      <point x="955" y="775"/>
      <point x="955" y="732" type="curve" smooth="yes"/>
      <point x="955" y="688"/>
      <point x="953" y="664"/>
      <point x="943" y="618" type="curve"/>
      <point x="800" y="618" type="line" smooth="yes"/>
      <point x="748" y="618"/>
      <point x="708" y="620"/>
      <point x="659" y="620" type="curve" smooth="yes"/>
      <point x="421" y="620" type="line" smooth="yes"/>
      <point x="372" y="620"/>
      <point x="332" y="618"/>
      <point x="280" y="618" type="curve" smooth="yes"/>
      <point x="137" y="618" type="line"/>
      <point x="127" y="664"/>
      <point x="125" y="688"/>
      <point x="125" y="732" type="curve" smooth="yes"/>
      <point x="125" y="775"/>
      <point x="127" y="798"/>
    </contour>
    <contour>
      <point x="411" y="984" type="curve" smooth="yes"/>
      <point x="411" y="1122" type="line"/>
      <point x="455" y="1132"/>
      <point x="499" y="1134"/>
      <point x="542" y="1134" type="curve" smooth="yes"/>
      <point x="584" y="1134"/>
      <point x="627" y="1132"/>
      <point x="671" y="1122" type="curve"/>
      <point x="671" y="984" type="line" smooth="yes"/>
      <point x="671" y="931"/>
      <point x="669" y="884"/>
      <point x="669" y="834" type="curve" smooth="yes"/>
      <point x="669" y="628" type="line" smooth="yes"/>
      <point x="669" y="579"/>
      <point x="671" y="531"/>
      <point x="671" y="480" type="curve" smooth="yes"/>
      <point x="671" y="358" type="line"/>
      <point x="627" y="349"/>
      <point x="584" y="347"/>
      <point x="542" y="347" type="curve" smooth="yes"/>
      <point x="499" y="347"/>
      <point x="455" y="349"/>
      <point x="411" y="358" type="curve"/>
      <point x="411" y="480" type="line" smooth="yes"/>
      <point x="411" y="531"/>
      <point x="413" y="579"/>
      <point x="413" y="628" type="curve" smooth="yes"/>
      <point x="413" y="834" type="line" smooth="yes"/>
      <point x="413" y="884"/>
      <point x="411" y="931"/>
    </contour>
    <contour>
      <point x="137" y="0" type="curve"/>
      <point x="943" y="0" type="line"/>
      <point x="953" y="44"/>
      <point x="955" y="75"/>
      <point x="955" y="118" type="curve" smooth="yes"/>
      <point x="955" y="162"/>
      <point x="953" y="189"/>
      <point x="943" y="233" type="curve"/>
      <point x="137" y="233" type="line"/>
      <point x="127" y="189"/>
      <point x="125" y="162"/>
      <point x="125" y="118" type="curve" smooth="yes"/>
      <point x="125" y="75"/>
      <point x="127" y="44"/>
    </contour>
  </outline>
</glyph>
<glyph name="twosuperior" format="2">
  <advance width="824"/>
  <unicode hex="00B2"/>
  <outline>
    <contour>
      <point x="83" y="1286" type="curve"/>
      <point x="112" y="1242"/>
      <point x="219" y="1204"/>
      <point x="279" y="1205" type="curve"/>
      <point x="289" y="1256"/>
      <point x="323" y="1301"/>
      <point x="371" y="1303" type="curve" smooth="yes"/>
      <point x="414" y="1305"/>
      <point x="441" y="1276"/>
      <point x="441" y="1233" type="curve" smooth="yes"/>
      <point x="441" y="1170"/>
      <point x="394" y="1133"/>
      <point x="347" y="1097" type="curve" smooth="yes"/>
      <point x="219" y="1000" type="line" smooth="yes"/>
      <point x="144" y="942"/>
      <point x="74" y="865"/>
      <point x="74" y="780" type="curve" smooth="yes"/>
      <point x="74" y="738"/>
      <point x="92" y="702"/>
      <point x="156" y="625" type="curve"/>
      <point x="321" y="625" type="line"/>
      <point x="321" y="779" type="line" smooth="yes"/>
      <point x="321" y="813"/>
      <point x="382" y="855"/>
      <point x="451" y="903" type="curve" smooth="yes"/>
      <point x="528" y="956" type="line" smooth="yes"/>
      <point x="584" y="995"/>
      <point x="701" y="1082"/>
      <point x="701" y="1241" type="curve" smooth="yes"/>
      <point x="701" y="1404"/>
      <point x="578" y="1522"/>
      <point x="395" y="1522" type="curve" smooth="yes"/>
      <point x="227" y="1522"/>
      <point x="111" y="1422"/>
    </contour>
    <contour>
      <point x="726" y="850" type="curve"/>
      <point x="614" y="850" type="line" smooth="yes"/>
      <point x="414" y="850"/>
      <point x="282" y="825"/>
      <point x="170" y="773" type="curve"/>
      <point x="197" y="625" type="line"/>
      <point x="569" y="625" type="line" smooth="yes"/>
      <point x="663" y="625"/>
      <point x="726" y="650"/>
    </contour>
  </outline>
</glyph>
<glyph name="threesuperior" format="2">
  <advance width="825"/>
  <unicode hex="00B3"/>
  <outline>
    <contour>
      <point x="465" y="912" type="curve" smooth="yes"/>
      <point x="465" y="856"/>
      <point x="421" y="817"/>
      <point x="352" y="817" type="curve" smooth="yes"/>
      <point x="285" y="817"/>
      <point x="232" y="844"/>
      <point x="185" y="878" type="curve"/>
      <point x="136" y="837"/>
      <point x="95" y="769"/>
      <point x="83" y="712" type="curve"/>
      <point x="149" y="655"/>
      <point x="253" y="615"/>
      <point x="372" y="615" type="curve" smooth="yes"/>
      <point x="559" y="615"/>
      <point x="725" y="719"/>
      <point x="725" y="910" type="curve" smooth="yes"/>
      <point x="725" y="1066"/>
      <point x="595" y="1164"/>
      <point x="458" y="1164" type="curve" smooth="yes"/>
      <point x="382" y="1164"/>
      <point x="299" y="1152"/>
      <point x="200" y="1130" type="curve"/>
      <point x="212" y="1079"/>
      <point x="258" y="1016"/>
      <point x="304" y="996" type="curve"/>
      <point x="322" y="1001"/>
      <point x="340" y="1005"/>
      <point x="362" y="1005" type="curve" smooth="yes"/>
      <point x="420" y="1005"/>
      <point x="465" y="969"/>
    </contour>
    <contour>
      <point x="569" y="1191" type="curve" smooth="yes"/>
      <point x="623" y="1237" type="line"/>
      <point x="665" y="1271"/>
      <point x="690" y="1300"/>
      <point x="690" y="1354" type="curve" smooth="yes"/>
      <point x="690" y="1406"/>
      <point x="661" y="1466"/>
      <point x="636" y="1508" type="curve"/>
      <point x="138" y="1508" type="line"/>
      <point x="120" y="1464"/>
      <point x="115" y="1420"/>
      <point x="115" y="1387" type="curve" smooth="yes"/>
      <point x="115" y="1362"/>
      <point x="118" y="1333"/>
      <point x="127" y="1299" type="curve"/>
      <point x="255" y="1299" type="line" smooth="yes"/>
      <point x="286" y="1299"/>
      <point x="369" y="1303"/>
      <point x="406" y="1309" type="curve"/>
      <point x="410" y="1303" type="line"/>
      <point x="386" y="1285"/>
      <point x="353" y="1260"/>
      <point x="325" y="1237" type="curve" smooth="yes"/>
      <point x="200" y="1130" type="line"/>
      <point x="335" y="1079" type="line"/>
      <point x="432" y="1103"/>
      <point x="528" y="1159"/>
    </contour>
  </outline>
</glyph>
<glyph name="micro" format="2">
  <advance width="1104"/>
  <unicode hex="00B5"/>
  <outline>
    <contour>
      <point x="228" y="480" type="line"/>
      <point x="426" y="480" type="line"/>
      <point x="426" y="390" type="line" smooth="yes"/>
      <point x="426" y="304"/>
      <point x="460" y="244"/>
      <point x="541" y="244" type="curve" smooth="yes"/>
      <point x="625" y="244"/>
      <point x="681" y="310"/>
      <point x="727" y="420" type="curve"/>
      <point x="753" y="177" type="line"/>
      <point x="716" y="66"/>
      <point x="630" y="-18"/>
      <point x="505" y="-18" type="curve" smooth="yes"/>
      <point x="342" y="-18"/>
      <point x="228" y="167"/>
      <point x="228" y="351" type="curve" smooth="yes"/>
    </contour>
    <contour>
      <point x="978" y="998" type="curve"/>
      <point x="978" y="287" type="line" smooth="yes"/>
      <point x="978" y="223"/>
      <point x="1000" y="165"/>
      <point x="1034" y="141" type="curve"/>
      <point x="1022" y="85"/>
      <point x="977" y="15"/>
      <point x="938" y="-16" type="curve"/>
      <point x="761" y="-13"/>
      <point x="665" y="124"/>
      <point x="665" y="290" type="curve" smooth="yes"/>
      <point x="665" y="998" type="line"/>
      <point x="709" y="1006"/>
      <point x="768" y="1010"/>
      <point x="821" y="1010" type="curve" smooth="yes"/>
      <point x="873" y="1010"/>
      <point x="932" y="1006"/>
    </contour>
    <contour>
      <point x="426" y="998" type="curve"/>
      <point x="426" y="165" type="line"/>
      <point x="406" y="165" type="line"/>
      <point x="406" y="-226" type="line" smooth="yes"/>
      <point x="406" y="-349"/>
      <point x="386" y="-438"/>
      <point x="257" y="-438" type="curve" smooth="yes"/>
      <point x="181" y="-438"/>
      <point x="121" y="-415"/>
      <point x="68" y="-375" type="curve"/>
      <point x="110" y="-316"/>
      <point x="117" y="-219"/>
      <point x="117" y="-172" type="curve" smooth="yes"/>
      <point x="117" y="998" type="line"/>
      <point x="161" y="1006"/>
      <point x="220" y="1010"/>
      <point x="274" y="1010" type="curve" smooth="yes"/>
      <point x="326" y="1010"/>
      <point x="381" y="1006"/>
    </contour>
  </outline>
</glyph>
<glyph name="paragraph" format="2">
  <advance width="1501"/>
  <unicode hex="00B6"/>
  <outline>
    <contour>
      <point x="551" y="127" type="curve" smooth="yes"/>
      <point x="551" y="472" type="line"/>
      <point x="527" y="472" type="line" smooth="yes"/>
      <point x="264" y="472"/>
      <point x="52" y="618"/>
      <point x="52" y="928" type="curve" smooth="yes"/>
      <point x="52" y="1252"/>
      <point x="262" y="1378"/>
      <point x="546" y="1378" type="curve" smooth="yes"/>
      <point x="647" y="1378"/>
      <point x="736" y="1372"/>
      <point x="851" y="1368" type="curve"/>
      <point x="864" y="1354" type="line"/>
      <point x="864" y="191" type="line" smooth="yes"/>
      <point x="864" y="-148"/>
      <point x="743" y="-319"/>
      <point x="402" y="-319" type="curve" smooth="yes"/>
      <point x="285" y="-319"/>
      <point x="173" y="-293"/>
      <point x="108" y="-269" type="curve"/>
      <point x="107" y="-213"/>
      <point x="128" y="-106"/>
      <point x="173" y="-45" type="curve"/>
      <point x="233" y="-65"/>
      <point x="306" y="-85"/>
      <point x="371" y="-85" type="curve" smooth="yes"/>
      <point x="509" y="-85"/>
      <point x="551" y="-14"/>
    </contour>
    <contour>
      <point x="986" y="1352" type="line"/>
      <point x="986" y="-261" type="line"/>
      <point x="1037" y="-272"/>
      <point x="1109" y="-274"/>
      <point x="1148" y="-274" type="curve" smooth="yes"/>
      <point x="1190" y="-274"/>
      <point x="1250" y="-272"/>
      <point x="1303" y="-261" type="curve"/>
      <point x="1303" y="1366" type="line"/>
      <point x="1000" y="1366" type="line"/>
    </contour>
    <contour>
      <point x="1146" y="1366" type="line"/>
      <point x="1146" y="1104" type="line"/>
      <point x="1246" y="1104" type="line" smooth="yes"/>
      <point x="1301" y="1104"/>
      <point x="1355" y="1098"/>
      <point x="1411" y="1098" type="curve" smooth="yes"/>
      <point x="1465" y="1098" type="line"/>
      <point x="1484" y="1158"/>
      <point x="1484" y="1307"/>
      <point x="1465" y="1366" type="curve"/>
    </contour>
  </outline>
</glyph>
<glyph name="onesuperior" format="2">
  <advance width="824"/>
  <unicode hex="00B9"/>
  <outline>
    <contour>
      <point x="581" y="744" type="line"/>
      <point x="581" y="1502" type="line"/>
      <point x="533" y="1510"/>
      <point x="501" y="1514"/>
      <point x="461" y="1514" type="curve" smooth="yes"/>
      <point x="423" y="1514"/>
      <point x="382" y="1510"/>
      <point x="340" y="1502" type="curve"/>
      <point x="342" y="1260" type="line" smooth="yes"/>
      <point x="343" y="1181"/>
      <point x="332" y="1051"/>
      <point x="332" y="1008" type="curve" smooth="yes"/>
      <point x="332" y="744" type="line"/>
    </contour>
    <contour>
      <point x="232" y="834" type="curve" smooth="yes"/>
      <point x="135" y="834" type="line"/>
      <point x="127" y="802"/>
      <point x="124" y="760"/>
      <point x="124" y="729" type="curve" smooth="yes"/>
      <point x="124" y="694"/>
      <point x="127" y="659"/>
      <point x="135" y="625" type="curve"/>
      <point x="740" y="625" type="line"/>
      <point x="750" y="658"/>
      <point x="753" y="697"/>
      <point x="753" y="729" type="curve" smooth="yes"/>
      <point x="753" y="764"/>
      <point x="749" y="802"/>
      <point x="740" y="834" type="curve"/>
      <point x="690" y="834" type="line" smooth="yes"/>
      <point x="666" y="834"/>
      <point x="605" y="834"/>
      <point x="581" y="834" type="curve" smooth="yes"/>
      <point x="332" y="834" type="line" smooth="yes"/>
      <point x="311" y="834"/>
      <point x="259" y="834"/>
    </contour>
    <contour>
      <point x="65" y="1213" type="curve"/>
      <point x="76" y="1157"/>
      <point x="123" y="1084"/>
      <point x="180" y="1056" type="curve"/>
      <point x="324" y="1124"/>
      <point x="382" y="1197"/>
      <point x="422" y="1355" type="curve"/>
      <point x="340" y="1502" type="line"/>
      <point x="281" y="1379"/>
      <point x="215" y="1305"/>
    </contour>
  </outline>
</glyph>
<glyph name="ordmasculine" format="2">
  <advance width="912"/>
  <unicode hex="00BA"/>
  <outline>
    <contour>
      <point x="829" y="869" type="curve" smooth="yes"/>
      <point x="829" y="998"/>
      <point x="797" y="1115"/>
      <point x="708" y="1205" type="curve" smooth="yes"/>
      <point x="647" y="1266"/>
      <point x="555" y="1296"/>
      <point x="456" y="1296" type="curve" smooth="yes"/>
      <point x="353" y="1296"/>
      <point x="265" y="1266"/>
      <point x="203" y="1205" type="curve" smooth="yes"/>
      <point x="114" y="1116"/>
      <point x="82" y="998"/>
      <point x="82" y="869" type="curve" smooth="yes"/>
      <point x="82" y="740"/>
      <point x="114" y="620"/>
      <point x="203" y="531" type="curve" smooth="yes"/>
      <point x="264" y="470"/>
      <point x="353" y="440"/>
      <point x="456" y="440" type="curve" smooth="yes"/>
      <point x="555" y="440"/>
      <point x="647" y="470"/>
      <point x="708" y="531" type="curve" smooth="yes"/>
      <point x="798" y="620"/>
      <point x="829" y="740"/>
    </contour>
    <contour>
      <point x="339" y="869" type="curve" smooth="yes"/>
      <point x="339" y="1007"/>
      <point x="369" y="1100"/>
      <point x="456" y="1100" type="curve" smooth="yes"/>
      <point x="543" y="1100"/>
      <point x="572" y="1007"/>
      <point x="572" y="869" type="curve" smooth="yes"/>
      <point x="572" y="730"/>
      <point x="543" y="636"/>
      <point x="456" y="636" type="curve" smooth="yes"/>
      <point x="369" y="636"/>
      <point x="339" y="730"/>
    </contour>
  </outline>
</glyph>
<glyph name="AE" format="2">
  <advance width="1773"/>
  <unicode hex="00C6"/>
  <anchor x="937" y="1464" name="top"/>
  <outline>
    <contour>
      <point x="600" y="1339" type="curve"/>
      <point x="9" y="26" type="line"/>
      <point x="20" y="9" type="line"/>
      <point x="59" y="-6"/>
      <point x="130" y="-12"/>
      <point x="184" y="-12" type="curve" smooth="yes"/>
      <point x="234" y="-12"/>
      <point x="284" y="-12"/>
      <point x="332" y="0" type="curve"/>
      <point x="621" y="691" type="line" smooth="yes"/>
      <point x="671" y="808"/>
      <point x="728" y="955"/>
      <point x="771" y="1074" type="curve"/>
      <point x="783" y="1074" type="line"/>
      <point x="985" y="1366" type="line"/>
      <point x="793" y="1366" type="line"/>
      <point x="732" y="1366"/>
      <point x="646" y="1360"/>
    </contour>
    <contour>
      <point x="533" y="286" type="curve" smooth="yes"/>
      <point x="710" y="286" type="line" smooth="yes"/>
      <point x="740" y="286"/>
      <point x="782" y="288"/>
      <point x="811" y="288" type="curve" smooth="yes"/>
      <point x="928" y="288" type="line"/>
      <point x="928" y="534" type="line"/>
      <point x="810" y="534" type="line" smooth="yes"/>
      <point x="780" y="534"/>
      <point x="738" y="536"/>
      <point x="708" y="536" type="curve" smooth="yes"/>
      <point x="623" y="536" type="line" smooth="yes"/>
      <point x="592" y="536"/>
      <point x="553" y="534"/>
      <point x="523" y="534" type="curve" smooth="yes"/>
      <point x="402" y="534" type="line"/>
      <point x="293" y="288" type="line"/>
      <point x="423" y="288" type="line" smooth="yes"/>
      <point x="452" y="288"/>
      <point x="503" y="286"/>
    </contour>
    <contour>
      <point x="779" y="1352" type="line"/>
      <point x="779" y="181" type="line" smooth="yes"/>
      <point x="779" y="65"/>
      <point x="846" y="-6"/>
      <point x="961" y="-6" type="curve" smooth="yes"/>
      <point x="1086" y="-6" type="line"/>
      <point x="1086" y="260" type="line" smooth="yes"/>
      <point x="1086" y="314"/>
      <point x="1088" y="356"/>
      <point x="1088" y="407" type="curve" smooth="yes"/>
      <point x="1088" y="954" type="line" smooth="yes"/>
      <point x="1088" y="1008"/>
      <point x="1086" y="1047"/>
      <point x="1086" y="1103" type="curve" smooth="yes"/>
      <point x="1086" y="1366" type="line"/>
      <point x="793" y="1366" type="line"/>
    </contour>
    <contour>
      <point x="1534" y="817" type="curve"/>
      <point x="1223" y="817" type="line" smooth="yes"/>
      <point x="1174" y="817"/>
      <point x="1047" y="815"/>
      <point x="983" y="813" type="curve"/>
      <point x="983" y="560" type="line"/>
      <point x="1047" y="558"/>
      <point x="1174" y="556"/>
      <point x="1223" y="556" type="curve" smooth="yes"/>
      <point x="1534" y="556" type="line"/>
      <point x="1548" y="597"/>
      <point x="1553" y="650"/>
      <point x="1553" y="686" type="curve" smooth="yes"/>
      <point x="1553" y="721"/>
      <point x="1548" y="778"/>
    </contour>
    <contour>
      <point x="1653" y="1366" type="curve"/>
      <point x="983" y="1366" type="line"/>
      <point x="983" y="1102" type="line"/>
      <point x="1047" y="1100"/>
      <point x="1174" y="1098"/>
      <point x="1223" y="1098" type="curve" smooth="yes"/>
      <point x="1638" y="1098" type="line"/>
      <point x="1655" y="1146"/>
      <point x="1664" y="1204"/>
      <point x="1664" y="1240" type="curve" smooth="yes"/>
      <point x="1664" y="1276"/>
      <point x="1663" y="1318"/>
    </contour>
    <contour>
      <point x="1703" y="262" type="curve"/>
      <point x="1234" y="262" type="line" smooth="yes"/>
      <point x="1136" y="262"/>
      <point x="1070" y="256"/>
      <point x="983" y="252" type="curve"/>
      <point x="983" y="-6" type="line"/>
      <point x="1493" y="-6" type="line" smooth="yes"/>
      <point x="1643" y="-6"/>
      <point x="1703" y="61"/>
    </contour>
  </outline>
</glyph>
<glyph name="Eth" format="2">
  <advance width="1365"/>
  <unicode hex="00D0"/>
  <outline>
    <contour>
      <point x="1291" y="684" type="curve" smooth="yes"/>
      <point x="1291" y="916"/>
      <point x="1255" y="1129"/>
      <point x="1066" y="1277" type="curve" smooth="yes"/>
      <point x="975" y="1349"/>
      <point x="810" y="1378"/>
      <point x="701" y="1378" type="curve" smooth="yes"/>
      <point x="528" y="1378"/>
      <point x="370" y="1376"/>
      <point x="196" y="1370" type="curve"/>
      <point x="182" y="1356" type="line"/>
      <point x="182" y="10" type="line"/>
      <point x="196" y="-4" type="line"/>
      <point x="370" y="-8"/>
      <point x="528" y="-12"/>
      <point x="701" y="-12" type="curve" smooth="yes"/>
      <point x="810" y="-12"/>
      <point x="975" y="16"/>
      <point x="1066" y="88" type="curve" smooth="yes"/>
      <point x="1257" y="236"/>
      <point x="1291" y="450"/>
    </contour>
    <contour>
      <point x="962" y="684" type="curve" smooth="yes"/>
      <point x="962" y="481"/>
      <point x="929" y="237"/>
      <point x="701" y="237" type="curve" smooth="yes"/>
      <point x="631" y="237"/>
      <point x="565" y="237"/>
      <point x="494" y="236" type="curve"/>
      <point x="494" y="1131" type="line"/>
      <point x="565" y="1129"/>
      <point x="631" y="1129"/>
      <point x="701" y="1129" type="curve" smooth="yes"/>
      <point x="929" y="1129"/>
      <point x="962" y="887"/>
    </contour>
    <contour>
      <point x="48" y="564" type="curve"/>
      <point x="748" y="564" type="line"/>
      <point x="757" y="604"/>
      <point x="761" y="649"/>
      <point x="761" y="694" type="curve" smooth="yes"/>
      <point x="761" y="738"/>
      <point x="757" y="780"/>
      <point x="748" y="822" type="curve"/>
      <point x="48" y="822" type="line"/>
      <point x="36" y="780"/>
      <point x="34" y="729"/>
      <point x="34" y="690" type="curve" smooth="yes"/>
      <point x="34" y="647"/>
      <point x="36" y="604"/>
    </contour>
  </outline>
</glyph>
